<ttFont>
    <TTGlyph name="A" xMin="45" yMin="0" xMax="621" yMax="700">
      <contour>
        <pt x="482" y="185" on="1"/>
        <pt x="174" y="185" on="1"/>
        <pt x="110" y="0" on="1"/>
        <pt x="45" y="0" on="1"/>
        <pt x="298" y="700" on="1"/>
        <pt x="359" y="700" on="1"/>
        <pt x="621" y="0" on="1"/>
        <pt x="548" y="0" on="1"/>
      </contour>
      <contour>
        <pt x="191" y="235" on="1"/>
        <pt x="464" y="235" on="1"/>
        <pt x="325" y="624" on="1"/>
      </contour>
    </TTGlyph>
    <TTGlyph name="AE" xMin="56" yMin="0" xMax="643" yMax="700">
      <contour>
        <pt x="638" y="0" on="1"/>
        <pt x="349" y="0" on="1"/>
        <pt x="349" y="185" on="1"/>
        <pt x="187" y="185" on="1"/>
        <pt x="121" y="0" on="1"/>
        <pt x="56" y="0" on="1"/>
        <pt x="319" y="700" on="1"/>
        <pt x="623" y="700" on="1"/>
        <pt x="618" y="640" on="1"/>
        <pt x="417" y="640" on="1"/>
        <pt x="417" y="377" on="1"/>
        <pt x="597" y="377" on="1"/>
        <pt x="592" y="317" on="1"/>
        <pt x="417" y="317" on="1"/>
        <pt x="417" y="60" on="1"/>
        <pt x="643" y="60" on="1"/>
      </contour>
      <contour>
        <pt x="349" y="235" on="1"/>
        <pt x="349" y="636" on="1"/>
        <pt x="205" y="235" on="1"/>
      </contour>
    </TTGlyph>
    <TTGlyph name="Aacute" xMin="45" yMin="0" xMax="621" yMax="901">
      <contour>
        <pt x="548" y="0" on="1"/>
        <pt x="621" y="0" on="1"/>
        <pt x="359" y="700" on="1"/>
        <pt x="298" y="700" on="1"/>
        <pt x="45" y="0" on="1"/>
        <pt x="110" y="0" on="1"/>
        <pt x="174" y="185" on="1"/>
        <pt x="482" y="185" on="1"/>
      </contour>
      <contour>
        <pt x="325" y="624" on="1"/>
        <pt x="464" y="235" on="1"/>
        <pt x="191" y="235" on="1"/>
      </contour>
      <contour>
        <pt x="478" y="894" on="1"/>
        <pt x="359" y="746" on="1"/>
        <pt x="314" y="754" on="1"/>
        <pt x="418" y="901" on="1"/>
      </contour>
    </TTGlyph>
    <TTGlyph name="Acircumflex" xMin="45" yMin="0" xMax="621" yMax="940">
      <contour>
        <pt x="482" y="185" on="1"/>
        <pt x="174" y="185" on="1"/>
        <pt x="110" y="0" on="1"/>
        <pt x="45" y="0" on="1"/>
        <pt x="298" y="700" on="1"/>
        <pt x="359" y="700" on="1"/>
        <pt x="621" y="0" on="1"/>
        <pt x="548" y="0" on="1"/>
      </contour>
      <contour>
        <pt x="191" y="235" on="1"/>
        <pt x="464" y="235" on="1"/>
        <pt x="325" y="624" on="1"/>
      </contour>
      <contour>
        <pt x="456" y="750" on="1"/>
        <pt x="322" y="883" on="1"/>
        <pt x="190" y="750" on="1"/>
        <pt x="156" y="779" on="1"/>
        <pt x="323" y="940" on="1"/>
        <pt x="369" y="894" on="0"/>
        <pt x="422" y="844" on="0"/>
        <pt x="483" y="785" on="0"/>
        <pt x="490" y="779" on="1"/>
      </contour>
    </TTGlyph>
    <TTGlyph name="Adieresis" xMin="45" yMin="0" xMax="621" yMax="830">
      <contour>
        <pt x="482" y="185" on="1"/>
        <pt x="174" y="185" on="1"/>
        <pt x="110" y="0" on="1"/>
        <pt x="45" y="0" on="1"/>
        <pt x="298" y="700" on="1"/>
        <pt x="359" y="700" on="1"/>
        <pt x="621" y="0" on="1"/>
        <pt x="548" y="0" on="1"/>
      </contour>
      <contour>
        <pt x="191" y="235" on="1"/>
        <pt x="464" y="235" on="1"/>
        <pt x="325" y="624" on="1"/>
      </contour>
      <contour>
        <pt x="209" y="750" on="0"/>
        <pt x="189" y="773" on="0"/>
        <pt x="189" y="809" on="0"/>
        <pt x="210" y="830" on="0"/>
        <pt x="245" y="830" on="0"/>
        <pt x="266" y="809" on="0"/>
        <pt x="266" y="770" on="0"/>
        <pt x="244" y="750" on="0"/>
      </contour>
      <contour>
        <pt x="424" y="750" on="0"/>
        <pt x="405" y="773" on="0"/>
        <pt x="405" y="809" on="0"/>
        <pt x="425" y="830" on="0"/>
        <pt x="442" y="830" on="1"/>
        <pt x="482" y="830" on="0"/>
        <pt x="482" y="790" on="1"/>
        <pt x="482" y="770" on="0"/>
        <pt x="459" y="750" on="0"/>
      </contour>
    </TTGlyph>
    <TTGlyph name="Agrave" xMin="45" yMin="0" xMax="621" yMax="901">
      <contour>
        <pt x="482" y="185" on="1"/>
        <pt x="174" y="185" on="1"/>
        <pt x="110" y="0" on="1"/>
        <pt x="45" y="0" on="1"/>
        <pt x="298" y="700" on="1"/>
        <pt x="359" y="700" on="1"/>
        <pt x="621" y="0" on="1"/>
        <pt x="548" y="0" on="1"/>
      </contour>
      <contour>
        <pt x="191" y="235" on="1"/>
        <pt x="464" y="235" on="1"/>
        <pt x="325" y="624" on="1"/>
      </contour>
      <contour>
        <pt x="313" y="746" on="1"/>
        <pt x="195" y="894" on="1"/>
        <pt x="255" y="901" on="1"/>
        <pt x="359" y="754" on="1"/>
      </contour>
    </TTGlyph>
    <TTGlyph name="Aring" xMin="45" yMin="0" xMax="621" yMax="909">
      <contour>
        <pt x="482" y="185" on="1"/>
        <pt x="174" y="185" on="1"/>
        <pt x="110" y="0" on="1"/>
        <pt x="45" y="0" on="1"/>
        <pt x="298" y="700" on="1"/>
        <pt x="359" y="700" on="1"/>
        <pt x="621" y="0" on="1"/>
        <pt x="548" y="0" on="1"/>
      </contour>
      <contour>
        <pt x="191" y="235" on="1"/>
        <pt x="464" y="235" on="1"/>
        <pt x="325" y="624" on="1"/>
      </contour>
      <contour>
        <pt x="302" y="750" on="0"/>
        <pt x="252" y="785" on="0"/>
        <pt x="252" y="863" on="0"/>
        <pt x="302" y="909" on="0"/>
        <pt x="372" y="909" on="0"/>
        <pt x="421" y="873" on="0"/>
        <pt x="421" y="797" on="0"/>
        <pt x="372" y="750" on="0"/>
      </contour>
      <contour>
        <pt x="316" y="881" on="0"/>
        <pt x="287" y="850" on="0"/>
        <pt x="287" y="803" on="0"/>
        <pt x="316" y="778" on="0"/>
        <pt x="357" y="778" on="0"/>
        <pt x="386" y="808" on="0"/>
        <pt x="386" y="855" on="0"/>
        <pt x="357" y="881" on="0"/>
      </contour>
    </TTGlyph>
    <TTGlyph name="Atilde" xMin="45" yMin="0" xMax="621" yMax="827">
      <contour>
        <pt x="482" y="185" on="1"/>
        <pt x="174" y="185" on="1"/>
        <pt x="110" y="0" on="1"/>
        <pt x="45" y="0" on="1"/>
        <pt x="298" y="700" on="1"/>
        <pt x="359" y="700" on="1"/>
        <pt x="621" y="0" on="1"/>
        <pt x="548" y="0" on="1"/>
      </contour>
      <contour>
        <pt x="191" y="235" on="1"/>
        <pt x="464" y="235" on="1"/>
        <pt x="325" y="624" on="1"/>
      </contour>
      <contour>
        <pt x="254" y="785" on="1"/>
        <pt x="201" y="785" on="0"/>
        <pt x="194" y="749" on="1"/>
        <pt x="160" y="756" on="1"/>
        <pt x="174" y="820" on="0"/>
        <pt x="249" y="820" on="1"/>
        <pt x="286" y="820" on="0"/>
        <pt x="418" y="788" on="0"/>
        <pt x="458" y="788" on="0"/>
        <pt x="468" y="791" on="1"/>
        <pt x="484" y="796" on="0"/>
        <pt x="491" y="827" on="1"/>
        <pt x="526" y="820" on="1"/>
        <pt x="512" y="757" on="0"/>
        <pt x="468" y="751" on="1"/>
        <pt x="460" y="750" on="0"/>
        <pt x="428" y="750" on="0"/>
        <pt x="292" y="785" on="0"/>
      </contour>
    </TTGlyph>
    <TTGlyph name="B" xMin="75" yMin="0" xMax="482" yMax="700">
      <contour>
        <pt x="371" y="402" on="1"/>
        <pt x="482" y="361" on="0"/>
        <pt x="482" y="217" on="1"/>
        <pt x="482" y="144" on="0"/>
        <pt x="449" y="64" on="0"/>
        <pt x="418" y="41" on="1"/>
        <pt x="361" y="0" on="0"/>
        <pt x="240" y="0" on="1"/>
        <pt x="75" y="0" on="1"/>
        <pt x="75" y="700" on="1"/>
        <pt x="225" y="700" on="1"/>
        <pt x="383" y="700" on="0"/>
        <pt x="425" y="620" on="1"/>
        <pt x="440" y="592" on="0"/>
        <pt x="440" y="512" on="0"/>
        <pt x="399" y="428" on="0"/>
      </contour>
      <contour>
        <pt x="143" y="363" on="1"/>
        <pt x="143" y="55" on="1"/>
        <pt x="235" y="55" on="1"/>
        <pt x="328" y="55" on="0"/>
        <pt x="366" y="80" on="1"/>
        <pt x="414" y="111" on="0"/>
        <pt x="414" y="203" on="1"/>
        <pt x="414" y="328" on="0"/>
        <pt x="326" y="354" on="1"/>
        <pt x="297" y="363" on="0"/>
        <pt x="260" y="363" on="1"/>
      </contour>
      <contour>
        <pt x="323" y="414" on="1"/>
        <pt x="372" y="478" on="0"/>
        <pt x="372" y="602" on="0"/>
        <pt x="294" y="645" on="0"/>
        <pt x="220" y="645" on="1"/>
        <pt x="143" y="645" on="1"/>
        <pt x="143" y="418" on="1"/>
        <pt x="265" y="418" on="1"/>
        <pt x="295" y="418" on="0"/>
      </contour>
    </TTGlyph>
    <TTGlyph name="C" xMin="65" yMin="-4" xMax="552" yMax="702">
      <contour>
        <pt x="492" y="626" on="1"/>
        <pt x="441" y="646" on="0"/>
        <pt x="385" y="646" on="1"/>
        <pt x="272" y="646" on="0"/>
        <pt x="133" y="480" on="0"/>
        <pt x="133" y="160" on="0"/>
        <pt x="206" y="96" on="1"/>
        <pt x="256" y="51" on="0"/>
        <pt x="345" y="51" on="1"/>
        <pt x="402" y="51" on="0"/>
        <pt x="517" y="77" on="0"/>
        <pt x="538" y="89" on="1"/>
        <pt x="552" y="40" on="1"/>
        <pt x="508" y="11" on="0"/>
        <pt x="398" y="0" on="1"/>
        <pt x="366" y="-4" on="0"/>
        <pt x="295" y="-4" on="0"/>
        <pt x="199" y="19" on="0"/>
        <pt x="158" y="54" on="1"/>
        <pt x="65" y="133" on="0"/>
        <pt x="65" y="501" on="0"/>
        <pt x="240" y="702" on="0"/>
        <pt x="380" y="702" on="1"/>
        <pt x="458" y="702" on="0"/>
        <pt x="514" y="671" on="1"/>
        <pt x="535" y="660" on="0"/>
        <pt x="547" y="647" on="1"/>
        <pt x="547" y="502" on="1"/>
        <pt x="497" y="499" on="1"/>
      </contour>
    </TTGlyph>
    <TTGlyph name="Ccedilla" xMin="65" yMin="-139" xMax="552" yMax="702">
      <contour>
        <pt x="270" y="-118" on="1"/>
        <pt x="313" y="-104" on="0"/>
        <pt x="342" y="-68" on="0"/>
        <pt x="345" y="-43" on="0"/>
        <pt x="345" y="-23" on="0"/>
        <pt x="339" y="-4" on="1"/>
        <pt x="338" y="-4" on="1"/>
        <pt x="226" y="-4" on="0"/>
        <pt x="158" y="54" on="1"/>
        <pt x="65" y="133" on="0"/>
        <pt x="65" y="501" on="0"/>
        <pt x="240" y="702" on="0"/>
        <pt x="380" y="702" on="1"/>
        <pt x="458" y="702" on="0"/>
        <pt x="514" y="671" on="1"/>
        <pt x="535" y="660" on="0"/>
        <pt x="547" y="647" on="1"/>
        <pt x="547" y="502" on="1"/>
        <pt x="497" y="499" on="1"/>
        <pt x="492" y="626" on="1"/>
        <pt x="441" y="646" on="0"/>
        <pt x="385" y="646" on="1"/>
        <pt x="272" y="646" on="0"/>
        <pt x="133" y="480" on="0"/>
        <pt x="133" y="160" on="0"/>
        <pt x="206" y="96" on="1"/>
        <pt x="256" y="51" on="0"/>
        <pt x="345" y="51" on="1"/>
        <pt x="402" y="51" on="0"/>
        <pt x="517" y="77" on="0"/>
        <pt x="538" y="89" on="1"/>
        <pt x="552" y="40" on="1"/>
        <pt x="505" y="10" on="0"/>
        <pt x="398" y="0" on="1"/>
        <pt x="376" y="-2" on="1"/>
        <pt x="381" y="-17" on="0"/>
        <pt x="381" y="-28" on="1"/>
        <pt x="381" y="-61" on="0"/>
        <pt x="362" y="-87" on="1"/>
        <pt x="333" y="-126" on="0"/>
        <pt x="280" y="-139" on="1"/>
      </contour>
    </TTGlyph>
    <TTGlyph name="D" xMin="80" yMin="0" xMax="558" yMax="700">
      <contour>
        <pt x="80" y="700" on="1"/>
        <pt x="260" y="700" on="1"/>
        <pt x="470" y="700" on="0"/>
        <pt x="534" y="524" on="1"/>
        <pt x="558" y="460" on="0"/>
        <pt x="558" y="251" on="0"/>
        <pt x="512" y="108" on="0"/>
        <pt x="428" y="28" on="0"/>
        <pt x="309" y="0" on="0"/>
        <pt x="235" y="0" on="1"/>
        <pt x="80" y="0" on="1"/>
      </contour>
      <contour>
        <pt x="148" y="645" on="1"/>
        <pt x="148" y="55" on="1"/>
        <pt x="230" y="55" on="1"/>
        <pt x="282" y="55" on="0"/>
        <pt x="330" y="64" on="1"/>
        <pt x="490" y="92" on="0"/>
        <pt x="490" y="361" on="1"/>
        <pt x="490" y="512" on="0"/>
        <pt x="420" y="584" on="1"/>
        <pt x="359" y="645" on="0"/>
        <pt x="255" y="645" on="1"/>
      </contour>
    </TTGlyph>
    <TTGlyph name="E" xMin="80" yMin="0" xMax="464" yMax="700">
      <contour>
        <pt x="439" y="640" on="1"/>
        <pt x="148" y="640" on="1"/>
        <pt x="148" y="377" on="1"/>
        <pt x="418" y="377" on="1"/>
        <pt x="413" y="317" on="1"/>
        <pt x="148" y="317" on="1"/>
        <pt x="148" y="60" on="1"/>
        <pt x="464" y="60" on="1"/>
        <pt x="459" y="0" on="1"/>
        <pt x="80" y="0" on="1"/>
        <pt x="80" y="700" on="1"/>
        <pt x="444" y="700" on="1"/>
      </contour>
    </TTGlyph>
    <TTGlyph name="Eacute" xMin="45" yMin="0" xMax="429" yMax="900">
      <contour>
        <pt x="409" y="700" on="1"/>
        <pt x="45" y="700" on="1"/>
        <pt x="45" y="0" on="1"/>
        <pt x="424" y="0" on="1"/>
        <pt x="429" y="60" on="1"/>
        <pt x="113" y="60" on="1"/>
        <pt x="113" y="317" on="1"/>
        <pt x="378" y="317" on="1"/>
        <pt x="383" y="377" on="1"/>
        <pt x="113" y="377" on="1"/>
        <pt x="113" y="640" on="1"/>
        <pt x="404" y="640" on="1"/>
      </contour>
      <contour>
        <pt x="385" y="893" on="1"/>
        <pt x="266" y="745" on="1"/>
        <pt x="221" y="753" on="1"/>
        <pt x="325" y="900" on="1"/>
      </contour>
    </TTGlyph>
    <TTGlyph name="Ecircumflex" xMin="45" yMin="0" xMax="429" yMax="939">
      <contour>
        <pt x="404" y="640" on="1"/>
        <pt x="113" y="640" on="1"/>
        <pt x="113" y="377" on="1"/>
        <pt x="383" y="377" on="1"/>
        <pt x="378" y="317" on="1"/>
        <pt x="113" y="317" on="1"/>
        <pt x="113" y="60" on="1"/>
        <pt x="429" y="60" on="1"/>
        <pt x="424" y="0" on="1"/>
        <pt x="45" y="0" on="1"/>
        <pt x="45" y="700" on="1"/>
        <pt x="409" y="700" on="1"/>
      </contour>
      <contour>
        <pt x="363" y="749" on="1"/>
        <pt x="229" y="882" on="1"/>
        <pt x="97" y="749" on="1"/>
        <pt x="63" y="778" on="1"/>
        <pt x="230" y="939" on="1"/>
        <pt x="276" y="893" on="0"/>
        <pt x="329" y="843" on="0"/>
        <pt x="390" y="784" on="0"/>
        <pt x="397" y="778" on="1"/>
      </contour>
    </TTGlyph>
    <TTGlyph name="Edieresis" xMin="45" yMin="0" xMax="429" yMax="830">
      <contour>
        <pt x="404" y="640" on="1"/>
        <pt x="113" y="640" on="1"/>
        <pt x="113" y="377" on="1"/>
        <pt x="383" y="377" on="1"/>
        <pt x="378" y="317" on="1"/>
        <pt x="113" y="317" on="1"/>
        <pt x="113" y="60" on="1"/>
        <pt x="429" y="60" on="1"/>
        <pt x="424" y="0" on="1"/>
        <pt x="45" y="0" on="1"/>
        <pt x="45" y="700" on="1"/>
        <pt x="409" y="700" on="1"/>
      </contour>
      <contour>
        <pt x="108" y="750" on="0"/>
        <pt x="88" y="773" on="0"/>
        <pt x="88" y="809" on="0"/>
        <pt x="109" y="830" on="0"/>
        <pt x="144" y="830" on="0"/>
        <pt x="165" y="809" on="0"/>
        <pt x="165" y="770" on="0"/>
        <pt x="143" y="750" on="0"/>
      </contour>
      <contour>
        <pt x="323" y="750" on="0"/>
        <pt x="304" y="773" on="0"/>
        <pt x="304" y="809" on="0"/>
        <pt x="324" y="830" on="0"/>
        <pt x="341" y="830" on="1"/>
        <pt x="381" y="830" on="0"/>
        <pt x="381" y="790" on="1"/>
        <pt x="381" y="770" on="0"/>
        <pt x="358" y="750" on="0"/>
      </contour>
    </TTGlyph>
    <TTGlyph name="Egrave" xMin="45" yMin="0" xMax="429" yMax="900">
      <contour>
        <pt x="404" y="640" on="1"/>
        <pt x="113" y="640" on="1"/>
        <pt x="113" y="377" on="1"/>
        <pt x="383" y="377" on="1"/>
        <pt x="378" y="317" on="1"/>
        <pt x="113" y="317" on="1"/>
        <pt x="113" y="60" on="1"/>
        <pt x="429" y="60" on="1"/>
        <pt x="424" y="0" on="1"/>
        <pt x="45" y="0" on="1"/>
        <pt x="45" y="700" on="1"/>
        <pt x="409" y="700" on="1"/>
      </contour>
      <contour>
        <pt x="218" y="745" on="1"/>
        <pt x="100" y="893" on="1"/>
        <pt x="160" y="900" on="1"/>
        <pt x="264" y="753" on="1"/>
      </contour>
    </TTGlyph>
    <TTGlyph name="Eth" xMin="80" yMin="0" xMax="595" yMax="700">
      <contour>
        <pt x="117" y="386" on="1"/>
        <pt x="117" y="700" on="1"/>
        <pt x="297" y="700" on="1"/>
        <pt x="507" y="700" on="0"/>
        <pt x="572" y="524" on="1"/>
        <pt x="595" y="460" on="0"/>
        <pt x="595" y="251" on="0"/>
        <pt x="549" y="108" on="0"/>
        <pt x="465" y="28" on="0"/>
        <pt x="346" y="0" on="0"/>
        <pt x="272" y="0" on="1"/>
        <pt x="117" y="0" on="1"/>
        <pt x="117" y="358" on="1"/>
        <pt x="80" y="358" on="1"/>
        <pt x="80" y="386" on="1"/>
      </contour>
      <contour>
        <pt x="185" y="358" on="1"/>
        <pt x="185" y="55" on="1"/>
        <pt x="267" y="55" on="1"/>
        <pt x="319" y="55" on="0"/>
        <pt x="366" y="64" on="1"/>
        <pt x="527" y="92" on="0"/>
        <pt x="527" y="361" on="1"/>
        <pt x="527" y="512" on="0"/>
        <pt x="456" y="584" on="1"/>
        <pt x="396" y="645" on="0"/>
        <pt x="292" y="645" on="1"/>
        <pt x="185" y="645" on="1"/>
        <pt x="185" y="386" on="1"/>
        <pt x="357" y="386" on="1"/>
        <pt x="357" y="358" on="1"/>
      </contour>
    </TTGlyph>
    <TTGlyph name="Euro" xMin="53" yMin="-6" xMax="534" yMax="606">
      <contour>
        <pt x="92" y="256" on="1"/>
        <pt x="91" y="277" on="0"/>
        <pt x="91" y="329" on="0"/>
        <pt x="93" y="355" on="1"/>
        <pt x="58" y="355" on="1"/>
        <pt x="58" y="383" on="1"/>
        <pt x="97" y="383" on="1"/>
        <pt x="113" y="470" on="0"/>
        <pt x="166" y="527" on="1"/>
        <pt x="240" y="606" on="0"/>
        <pt x="361" y="606" on="1"/>
        <pt x="439" y="606" on="0"/>
        <pt x="496" y="575" on="1"/>
        <pt x="516" y="564" on="0"/>
        <pt x="528" y="551" on="1"/>
        <pt x="502" y="511" on="1"/>
        <pt x="492" y="522" on="0"/>
        <pt x="415" y="550" on="0"/>
        <pt x="320" y="550" on="0"/>
        <pt x="282" y="536" on="1"/>
        <pt x="195" y="503" on="0"/>
        <pt x="165" y="383" on="1"/>
        <pt x="440" y="383" on="1"/>
        <pt x="440" y="355" on="1"/>
        <pt x="161" y="355" on="1"/>
        <pt x="158" y="329" on="0"/>
        <pt x="158" y="277" on="0"/>
        <pt x="159" y="256" on="1"/>
        <pt x="440" y="256" on="1"/>
        <pt x="440" y="228" on="1"/>
        <pt x="163" y="228" on="1"/>
        <pt x="176" y="153" on="0"/>
        <pt x="218" y="108" on="1"/>
        <pt x="271" y="50" on="0"/>
        <pt x="364" y="50" on="1"/>
        <pt x="435" y="50" on="0"/>
        <pt x="492" y="80" on="1"/>
        <pt x="506" y="87" on="0"/>
        <pt x="511" y="92" on="1"/>
        <pt x="534" y="50" on="1"/>
        <pt x="495" y="8" on="0"/>
        <pt x="392" y="-4" on="1"/>
        <pt x="376" y="-5" on="0"/>
        <pt x="360" y="-5" on="1"/>
        <pt x="300" y="-5" on="0"/>
        <pt x="242" y="19" on="1"/>
        <pt x="152" y="57" on="0"/>
        <pt x="111" y="164" on="1"/>
        <pt x="101" y="193" on="0"/>
        <pt x="95" y="228" on="1"/>
        <pt x="53" y="228" on="1"/>
        <pt x="53" y="256" on="1"/>
      </contour>
    </TTGlyph>
    <TTGlyph name="F" xMin="80" yMin="0" xMax="444" yMax="700">
      <contour>
        <pt x="439" y="640" on="1"/>
        <pt x="148" y="640" on="1"/>
        <pt x="148" y="377" on="1"/>
        <pt x="418" y="377" on="1"/>
        <pt x="413" y="317" on="1"/>
        <pt x="148" y="317" on="1"/>
        <pt x="148" y="0" on="1"/>
        <pt x="80" y="0" on="1"/>
        <pt x="80" y="700" on="1"/>
        <pt x="444" y="700" on="1"/>
      </contour>
    </TTGlyph>
    <TTGlyph name="G" xMin="65" yMin="-4" xMax="557" yMax="702">
      <contour>
        <pt x="528" y="602" on="1"/>
        <pt x="502" y="628" on="0"/>
        <pt x="434" y="641" on="1"/>
        <pt x="409" y="646" on="0"/>
        <pt x="329" y="646" on="0"/>
        <pt x="240" y="608" on="0"/>
        <pt x="206" y="568" on="1"/>
        <pt x="133" y="480" on="0"/>
        <pt x="133" y="160" on="0"/>
        <pt x="206" y="96" on="1"/>
        <pt x="256" y="51" on="0"/>
        <pt x="421" y="51" on="0"/>
        <pt x="497" y="72" on="1"/>
        <pt x="502" y="310" on="1"/>
        <pt x="557" y="310" on="1"/>
        <pt x="557" y="40" on="1"/>
        <pt x="513" y="12" on="0"/>
        <pt x="398" y="0" on="1"/>
        <pt x="366" y="-4" on="0"/>
        <pt x="295" y="-4" on="0"/>
        <pt x="199" y="19" on="0"/>
        <pt x="158" y="54" on="1"/>
        <pt x="65" y="133" on="0"/>
        <pt x="65" y="501" on="0"/>
        <pt x="241" y="702" on="0"/>
        <pt x="380" y="702" on="1"/>
        <pt x="412" y="700" on="1"/>
        <pt x="475" y="694" on="0"/>
        <pt x="542" y="660" on="0"/>
        <pt x="554" y="647" on="1"/>
      </contour>
    </TTGlyph>
    <TTGlyph name="H" xMin="75" yMin="0" xMax="541" yMax="700">
      <contour>
        <pt x="75" y="0" on="1"/>
        <pt x="75" y="700" on="1"/>
        <pt x="138" y="700" on="1"/>
        <pt x="138" y="377" on="1"/>
        <pt x="478" y="377" on="1"/>
        <pt x="478" y="700" on="1"/>
        <pt x="541" y="700" on="1"/>
        <pt x="541" y="0" on="1"/>
        <pt x="478" y="0" on="1"/>
        <pt x="478" y="317" on="1"/>
        <pt x="138" y="317" on="1"/>
        <pt x="138" y="0" on="1"/>
      </contour>
    </TTGlyph>
    <TTGlyph name="I" xMin="70" yMin="0" xMax="258" yMax="700">
      <contour>
        <pt x="258" y="0" on="1"/>
        <pt x="70" y="0" on="1"/>
        <pt x="70" y="48" on="1"/>
        <pt x="130" y="55" on="1"/>
        <pt x="130" y="644" on="1"/>
        <pt x="75" y="651" on="1"/>
        <pt x="75" y="700" on="1"/>
        <pt x="253" y="700" on="1"/>
        <pt x="253" y="651" on="1"/>
        <pt x="198" y="644" on="1"/>
        <pt x="198" y="55" on="1"/>
        <pt x="258" y="48" on="1"/>
      </contour>
    </TTGlyph>
    <TTGlyph name="Iacute" xMin="70" yMin="0" xMax="305" yMax="900">
      <contour>
        <pt x="305" y="893" on="1"/>
        <pt x="186" y="745" on="1"/>
        <pt x="141" y="753" on="1"/>
        <pt x="245" y="900" on="1"/>
      </contour>
      <contour>
        <pt x="258" y="48" on="1"/>
        <pt x="198" y="55" on="1"/>
        <pt x="198" y="644" on="1"/>
        <pt x="253" y="651" on="1"/>
        <pt x="253" y="700" on="1"/>
        <pt x="75" y="700" on="1"/>
        <pt x="75" y="651" on="1"/>
        <pt x="130" y="644" on="1"/>
        <pt x="130" y="55" on="1"/>
        <pt x="70" y="48" on="1"/>
        <pt x="70" y="0" on="1"/>
        <pt x="258" y="0" on="1"/>
      </contour>
    </TTGlyph>
    <TTGlyph name="Icircumflex" xMin="-1" yMin="0" xMax="333" yMax="911">
      <contour>
        <pt x="258" y="0" on="1"/>
        <pt x="70" y="0" on="1"/>
        <pt x="70" y="48" on="1"/>
        <pt x="130" y="55" on="1"/>
        <pt x="130" y="644" on="1"/>
        <pt x="75" y="651" on="1"/>
        <pt x="75" y="700" on="1"/>
        <pt x="253" y="700" on="1"/>
        <pt x="253" y="651" on="1"/>
        <pt x="198" y="644" on="1"/>
        <pt x="198" y="55" on="1"/>
        <pt x="258" y="48" on="1"/>
      </contour>
      <contour>
        <pt x="299" y="721" on="1"/>
        <pt x="165" y="854" on="1"/>
        <pt x="33" y="721" on="1"/>
        <pt x="-1" y="750" on="1"/>
        <pt x="166" y="911" on="1"/>
        <pt x="212" y="865" on="0"/>
        <pt x="265" y="815" on="0"/>
        <pt x="326" y="756" on="0"/>
        <pt x="333" y="750" on="1"/>
      </contour>
    </TTGlyph>
    <TTGlyph name="Idieresis" xMin="19" yMin="0" xMax="312" yMax="829">
      <contour>
        <pt x="39" y="749" on="0"/>
        <pt x="19" y="772" on="0"/>
        <pt x="19" y="808" on="0"/>
        <pt x="40" y="829" on="0"/>
        <pt x="75" y="829" on="0"/>
        <pt x="96" y="808" on="0"/>
        <pt x="96" y="769" on="0"/>
        <pt x="74" y="749" on="0"/>
      </contour>
      <contour>
        <pt x="254" y="749" on="0"/>
        <pt x="235" y="772" on="0"/>
        <pt x="235" y="808" on="0"/>
        <pt x="255" y="829" on="0"/>
        <pt x="272" y="829" on="1"/>
        <pt x="312" y="829" on="0"/>
        <pt x="312" y="789" on="1"/>
        <pt x="312" y="769" on="0"/>
        <pt x="289" y="749" on="0"/>
      </contour>
      <contour>
        <pt x="258" y="0" on="1"/>
        <pt x="70" y="0" on="1"/>
        <pt x="70" y="48" on="1"/>
        <pt x="130" y="55" on="1"/>
        <pt x="130" y="644" on="1"/>
        <pt x="75" y="651" on="1"/>
        <pt x="75" y="700" on="1"/>
        <pt x="253" y="700" on="1"/>
        <pt x="253" y="651" on="1"/>
        <pt x="198" y="644" on="1"/>
        <pt x="198" y="55" on="1"/>
        <pt x="258" y="48" on="1"/>
      </contour>
    </TTGlyph>
    <TTGlyph name="Igrave" xMin="25" yMin="0" xMax="258" yMax="900">
      <contour>
        <pt x="143" y="745" on="1"/>
        <pt x="25" y="893" on="1"/>
        <pt x="85" y="900" on="1"/>
        <pt x="189" y="753" on="1"/>
      </contour>
      <contour>
        <pt x="258" y="0" on="1"/>
        <pt x="70" y="0" on="1"/>
        <pt x="70" y="48" on="1"/>
        <pt x="130" y="55" on="1"/>
        <pt x="130" y="644" on="1"/>
        <pt x="75" y="651" on="1"/>
        <pt x="75" y="700" on="1"/>
        <pt x="253" y="700" on="1"/>
        <pt x="253" y="651" on="1"/>
        <pt x="198" y="644" on="1"/>
        <pt x="198" y="55" on="1"/>
        <pt x="258" y="48" on="1"/>
      </contour>
    </TTGlyph>
    <TTGlyph name="J" xMin="-32" yMin="-248" xMax="146" yMax="700">
      <contour>
        <pt x="-32" y="-209" on="1"/>
        <pt x="37" y="-144" on="0"/>
        <pt x="66" y="-63" on="1"/>
        <pt x="77" y="-32" on="0"/>
        <pt x="77" y="0" on="1"/>
        <pt x="77" y="700" on="1"/>
        <pt x="145" y="700" on="1"/>
        <pt x="145" y="0" on="1"/>
        <pt x="145" y="-3" on="0"/>
        <pt x="145" y="-6" on="1"/>
        <pt x="145" y="-116" on="0"/>
        <pt x="43" y="-210" on="1"/>
        <pt x="18" y="-233" on="0"/>
        <pt x="1" y="-248" on="1"/>
      </contour>
    </TTGlyph>
    <TTGlyph name="K" xMin="80" yMin="0" xMax="515" yMax="700">
      <contour>
        <pt x="80" y="0" on="1"/>
        <pt x="80" y="700" on="1"/>
        <pt x="148" y="700" on="1"/>
        <pt x="148" y="366" on="1"/>
        <pt x="389" y="700" on="1"/>
        <pt x="467" y="700" on="1"/>
        <pt x="222" y="371" on="1"/>
        <pt x="515" y="0" on="1"/>
        <pt x="437" y="0" on="1"/>
        <pt x="148" y="366" on="1"/>
        <pt x="148" y="0" on="1"/>
      </contour>
    </TTGlyph>
    <TTGlyph name="L" xMin="80" yMin="0" xMax="464" yMax="700">
      <contour>
        <pt x="459" y="0" on="1"/>
        <pt x="80" y="0" on="1"/>
        <pt x="80" y="700" on="1"/>
        <pt x="148" y="700" on="1"/>
        <pt x="148" y="60" on="1"/>
        <pt x="464" y="60" on="1"/>
      </contour>
    </TTGlyph>
    <TTGlyph name="M" xMin="72" yMin="0" xMax="722" yMax="700">
      <contour>
        <pt x="72" y="0" on="1"/>
        <pt x="72" y="700" on="1"/>
        <pt x="140" y="700" on="1"/>
        <pt x="397" y="188" on="1"/>
        <pt x="654" y="700" on="1"/>
        <pt x="722" y="700" on="1"/>
        <pt x="722" y="0" on="1"/>
        <pt x="659" y="0" on="1"/>
        <pt x="659" y="584" on="1"/>
        <pt x="431" y="131" on="1"/>
        <pt x="363" y="131" on="1"/>
        <pt x="135" y="584" on="1"/>
        <pt x="135" y="0" on="1"/>
      </contour>
    </TTGlyph>
    <TTGlyph name="N" xMin="72" yMin="0" xMax="602" yMax="700">
      <contour>
        <pt x="529" y="0" on="1"/>
        <pt x="130" y="610" on="1"/>
        <pt x="135" y="0" on="1"/>
        <pt x="72" y="0" on="1"/>
        <pt x="72" y="700" on="1"/>
        <pt x="145" y="700" on="1"/>
        <pt x="543" y="90" on="1"/>
        <pt x="539" y="700" on="1"/>
        <pt x="602" y="700" on="1"/>
        <pt x="602" y="0" on="1"/>
      </contour>
    </TTGlyph>
    <TTGlyph name="Ntilde" xMin="72" yMin="0" xMax="602" yMax="826">
      <contour>
        <pt x="529" y="0" on="1"/>
        <pt x="130" y="610" on="1"/>
        <pt x="135" y="0" on="1"/>
        <pt x="72" y="0" on="1"/>
        <pt x="72" y="700" on="1"/>
        <pt x="145" y="700" on="1"/>
        <pt x="543" y="90" on="1"/>
        <pt x="539" y="700" on="1"/>
        <pt x="602" y="700" on="1"/>
        <pt x="602" y="0" on="1"/>
      </contour>
      <contour>
        <pt x="273" y="784" on="1"/>
        <pt x="220" y="784" on="0"/>
        <pt x="213" y="748" on="1"/>
        <pt x="179" y="755" on="1"/>
        <pt x="193" y="820" on="0"/>
        <pt x="268" y="820" on="1"/>
        <pt x="305" y="820" on="0"/>
        <pt x="437" y="787" on="0"/>
        <pt x="477" y="787" on="0"/>
        <pt x="487" y="790" on="1"/>
        <pt x="503" y="795" on="0"/>
        <pt x="510" y="826" on="1"/>
        <pt x="545" y="819" on="1"/>
        <pt x="531" y="756" on="0"/>
        <pt x="486" y="750" on="1"/>
        <pt x="479" y="749" on="0"/>
        <pt x="447" y="749" on="0"/>
        <pt x="311" y="784" on="0"/>
      </contour>
    </TTGlyph>
    <TTGlyph name="O" xMin="65" yMin="-4" xMax="655" yMax="704">
      <contour>
        <pt x="360" y="704" on="1"/>
        <pt x="655" y="704" on="0"/>
        <pt x="655" y="348" on="1"/>
        <pt x="655" y="185" on="0"/>
        <pt x="487" y="-4" on="0"/>
        <pt x="360" y="-4" on="1"/>
        <pt x="225" y="-4" on="0"/>
        <pt x="151" y="70" on="1"/>
        <pt x="65" y="158" on="0"/>
        <pt x="65" y="512" on="0"/>
        <pt x="234" y="704" on="0"/>
      </contour>
      <contour>
        <pt x="200" y="118" on="1"/>
        <pt x="255" y="56" on="0"/>
        <pt x="360" y="56" on="1"/>
        <pt x="459" y="56" on="0"/>
        <pt x="587" y="213" on="0"/>
        <pt x="587" y="507" on="0"/>
        <pt x="520" y="581" on="1"/>
        <pt x="464" y="644" on="0"/>
        <pt x="360" y="644" on="1"/>
        <pt x="262" y="644" on="0"/>
        <pt x="133" y="486" on="0"/>
        <pt x="133" y="191" on="0"/>
      </contour>
    </TTGlyph>
    <TTGlyph name="OE" xMin="60" yMin="-4" xMax="669" yMax="704">
      <contour>
        <pt x="355" y="-4" on="1"/>
        <pt x="60" y="-4" on="0"/>
        <pt x="60" y="348" on="1"/>
        <pt x="60" y="512" on="0"/>
        <pt x="229" y="704" on="0"/>
        <pt x="355" y="704" on="1"/>
        <pt x="365" y="704" on="0"/>
        <pt x="409" y="700" on="1"/>
        <pt x="649" y="700" on="1"/>
        <pt x="644" y="640" on="1"/>
        <pt x="443" y="640" on="1"/>
        <pt x="443" y="377" on="1"/>
        <pt x="623" y="377" on="1"/>
        <pt x="618" y="317" on="1"/>
        <pt x="443" y="317" on="1"/>
        <pt x="443" y="60" on="1"/>
        <pt x="669" y="60" on="1"/>
        <pt x="664" y="0" on="1"/>
        <pt x="407" y="0" on="1"/>
        <pt x="371" y="-4" on="0"/>
      </contour>
      <contour>
        <pt x="225" y="84" on="0"/>
        <pt x="308" y="56" on="0"/>
        <pt x="336" y="56" on="1"/>
        <pt x="375" y="56" on="1"/>
        <pt x="375" y="643" on="1"/>
        <pt x="365" y="644" on="0"/>
        <pt x="355" y="644" on="1"/>
        <pt x="257" y="644" on="0"/>
        <pt x="128" y="486" on="0"/>
        <pt x="128" y="191" on="0"/>
        <pt x="194" y="118" on="1"/>
      </contour>
    </TTGlyph>
    <TTGlyph name="Oacute" xMin="65" yMin="-4" xMax="655" yMax="900">
      <contour>
        <pt x="655" y="348" on="1"/>
        <pt x="580" y="617" on="0"/>
        <pt x="360" y="704" on="1"/>
        <pt x="234" y="704" on="0"/>
        <pt x="65" y="512" on="0"/>
        <pt x="65" y="158" on="0"/>
        <pt x="151" y="70" on="1"/>
        <pt x="225" y="-4" on="0"/>
        <pt x="360" y="-4" on="1"/>
        <pt x="487" y="-4" on="0"/>
        <pt x="655" y="185" on="0"/>
      </contour>
      <contour>
        <pt x="133" y="486" on="0"/>
        <pt x="262" y="644" on="0"/>
        <pt x="360" y="644" on="1"/>
        <pt x="464" y="644" on="0"/>
        <pt x="520" y="581" on="1"/>
        <pt x="587" y="507" on="0"/>
        <pt x="587" y="213" on="0"/>
        <pt x="459" y="56" on="0"/>
        <pt x="360" y="56" on="1"/>
        <pt x="255" y="56" on="0"/>
        <pt x="200" y="118" on="1"/>
        <pt x="133" y="191" on="0"/>
      </contour>
      <contour>
        <pt x="500" y="893" on="1"/>
        <pt x="381" y="745" on="1"/>
        <pt x="336" y="753" on="1"/>
        <pt x="440" y="900" on="1"/>
      </contour>
    </TTGlyph>
    <TTGlyph name="Ocircumflex" xMin="65" yMin="-4" xMax="655" yMax="939">
      <contour>
        <pt x="360" y="704" on="1"/>
        <pt x="655" y="704" on="0"/>
        <pt x="655" y="348" on="1"/>
        <pt x="655" y="185" on="0"/>
        <pt x="487" y="-4" on="0"/>
        <pt x="360" y="-4" on="1"/>
        <pt x="225" y="-4" on="0"/>
        <pt x="151" y="70" on="1"/>
        <pt x="65" y="158" on="0"/>
        <pt x="65" y="512" on="0"/>
        <pt x="234" y="704" on="0"/>
      </contour>
      <contour>
        <pt x="200" y="118" on="1"/>
        <pt x="255" y="56" on="0"/>
        <pt x="360" y="56" on="1"/>
        <pt x="459" y="56" on="0"/>
        <pt x="587" y="213" on="0"/>
        <pt x="587" y="507" on="0"/>
        <pt x="520" y="581" on="1"/>
        <pt x="464" y="644" on="0"/>
        <pt x="360" y="644" on="1"/>
        <pt x="262" y="644" on="0"/>
        <pt x="133" y="486" on="0"/>
        <pt x="133" y="191" on="0"/>
      </contour>
      <contour>
        <pt x="497" y="749" on="1"/>
        <pt x="363" y="882" on="1"/>
        <pt x="231" y="749" on="1"/>
        <pt x="197" y="778" on="1"/>
        <pt x="364" y="939" on="1"/>
        <pt x="410" y="893" on="0"/>
        <pt x="463" y="843" on="0"/>
        <pt x="524" y="784" on="0"/>
        <pt x="531" y="778" on="1"/>
      </contour>
    </TTGlyph>
    <TTGlyph name="Odieresis" xMin="65" yMin="-4" xMax="655" yMax="830">
      <contour>
        <pt x="360" y="704" on="1"/>
        <pt x="655" y="704" on="0"/>
        <pt x="655" y="348" on="1"/>
        <pt x="655" y="185" on="0"/>
        <pt x="487" y="-4" on="0"/>
        <pt x="360" y="-4" on="1"/>
        <pt x="225" y="-4" on="0"/>
        <pt x="151" y="70" on="1"/>
        <pt x="65" y="158" on="0"/>
        <pt x="65" y="512" on="0"/>
        <pt x="234" y="704" on="0"/>
      </contour>
      <contour>
        <pt x="200" y="118" on="1"/>
        <pt x="255" y="56" on="0"/>
        <pt x="360" y="56" on="1"/>
        <pt x="459" y="56" on="0"/>
        <pt x="587" y="213" on="0"/>
        <pt x="587" y="507" on="0"/>
        <pt x="520" y="581" on="1"/>
        <pt x="464" y="644" on="0"/>
        <pt x="360" y="644" on="1"/>
        <pt x="262" y="644" on="0"/>
        <pt x="133" y="486" on="0"/>
        <pt x="133" y="191" on="0"/>
      </contour>
      <contour>
        <pt x="235" y="750" on="0"/>
        <pt x="215" y="773" on="0"/>
        <pt x="215" y="809" on="0"/>
        <pt x="236" y="830" on="0"/>
        <pt x="271" y="830" on="0"/>
        <pt x="292" y="809" on="0"/>
        <pt x="292" y="770" on="0"/>
        <pt x="270" y="750" on="0"/>
      </contour>
      <contour>
        <pt x="450" y="750" on="0"/>
        <pt x="431" y="773" on="0"/>
        <pt x="431" y="809" on="0"/>
        <pt x="451" y="830" on="0"/>
        <pt x="468" y="830" on="1"/>
        <pt x="508" y="830" on="0"/>
        <pt x="508" y="790" on="1"/>
        <pt x="508" y="770" on="0"/>
        <pt x="485" y="750" on="0"/>
      </contour>
    </TTGlyph>
    <TTGlyph name="Ograve" xMin="65" yMin="-4" xMax="655" yMax="900">
      <contour>
        <pt x="360" y="704" on="1"/>
        <pt x="655" y="704" on="0"/>
        <pt x="655" y="348" on="1"/>
        <pt x="655" y="185" on="0"/>
        <pt x="487" y="-4" on="0"/>
        <pt x="360" y="-4" on="1"/>
        <pt x="225" y="-4" on="0"/>
        <pt x="151" y="70" on="1"/>
        <pt x="65" y="158" on="0"/>
        <pt x="65" y="512" on="0"/>
        <pt x="234" y="704" on="0"/>
      </contour>
      <contour>
        <pt x="200" y="118" on="1"/>
        <pt x="255" y="56" on="0"/>
        <pt x="360" y="56" on="1"/>
        <pt x="459" y="56" on="0"/>
        <pt x="587" y="213" on="0"/>
        <pt x="587" y="507" on="0"/>
        <pt x="520" y="581" on="1"/>
        <pt x="464" y="644" on="0"/>
        <pt x="360" y="644" on="1"/>
        <pt x="262" y="644" on="0"/>
        <pt x="133" y="486" on="0"/>
        <pt x="133" y="191" on="0"/>
      </contour>
      <contour>
        <pt x="332" y="745" on="1"/>
        <pt x="214" y="893" on="1"/>
        <pt x="274" y="900" on="1"/>
        <pt x="378" y="753" on="1"/>
      </contour>
    </TTGlyph>
    <TTGlyph name="Oslash" xMin="70" yMin="-4" xMax="660" yMax="704">
      <contour>
        <pt x="136" y="92" on="1"/>
        <pt x="70" y="183" on="0"/>
        <pt x="70" y="512" on="0"/>
        <pt x="239" y="704" on="0"/>
        <pt x="365" y="704" on="1"/>
        <pt x="496" y="704" on="0"/>
        <pt x="568" y="634" on="1"/>
        <pt x="621" y="700" on="1"/>
        <pt x="650" y="677" on="1"/>
        <pt x="593" y="606" on="1"/>
        <pt x="660" y="517" on="0"/>
        <pt x="660" y="185" on="0"/>
        <pt x="492" y="-4" on="0"/>
        <pt x="365" y="-4" on="1"/>
        <pt x="234" y="-4" on="0"/>
        <pt x="161" y="65" on="1"/>
        <pt x="110" y="0" on="1"/>
        <pt x="81" y="23" on="1"/>
      </contour>
      <contour>
        <pt x="181" y="148" on="1"/>
        <pt x="526" y="580" on="1"/>
        <pt x="525" y="581" on="1"/>
        <pt x="469" y="644" on="0"/>
        <pt x="365" y="644" on="1"/>
        <pt x="267" y="644" on="0"/>
        <pt x="138" y="486" on="0"/>
        <pt x="138" y="223" on="0"/>
      </contour>
      <contour>
        <pt x="204" y="117" on="1"/>
        <pt x="261" y="56" on="0"/>
        <pt x="365" y="56" on="1"/>
        <pt x="464" y="56" on="0"/>
        <pt x="592" y="213" on="0"/>
        <pt x="592" y="350" on="1"/>
        <pt x="592" y="434" on="0"/>
        <pt x="563" y="524" on="0"/>
        <pt x="548" y="549" on="1"/>
        <pt x="204" y="118" on="1"/>
      </contour>
    </TTGlyph>
    <TTGlyph name="Otilde" xMin="65" yMin="-4" xMax="655" yMax="838">
      <contour>
        <pt x="360" y="704" on="1"/>
        <pt x="655" y="704" on="0"/>
        <pt x="655" y="348" on="1"/>
        <pt x="655" y="185" on="0"/>
        <pt x="487" y="-4" on="0"/>
        <pt x="360" y="-4" on="1"/>
        <pt x="225" y="-4" on="0"/>
        <pt x="151" y="70" on="1"/>
        <pt x="65" y="158" on="0"/>
        <pt x="65" y="512" on="0"/>
        <pt x="234" y="704" on="0"/>
      </contour>
      <contour>
        <pt x="200" y="118" on="1"/>
        <pt x="255" y="56" on="0"/>
        <pt x="360" y="56" on="1"/>
        <pt x="459" y="56" on="0"/>
        <pt x="587" y="213" on="0"/>
        <pt x="587" y="507" on="0"/>
        <pt x="520" y="581" on="1"/>
        <pt x="464" y="644" on="0"/>
        <pt x="360" y="644" on="1"/>
        <pt x="262" y="644" on="0"/>
        <pt x="133" y="486" on="0"/>
        <pt x="133" y="191" on="0"/>
      </contour>
      <contour>
        <pt x="274" y="796" on="1"/>
        <pt x="221" y="796" on="0"/>
        <pt x="214" y="760" on="1"/>
        <pt x="180" y="767" on="1"/>
        <pt x="194" y="832" on="0"/>
        <pt x="269" y="832" on="1"/>
        <pt x="306" y="832" on="0"/>
        <pt x="438" y="799" on="0"/>
        <pt x="478" y="799" on="0"/>
        <pt x="488" y="802" on="1"/>
        <pt x="504" y="807" on="0"/>
        <pt x="511" y="838" on="1"/>
        <pt x="546" y="831" on="1"/>
        <pt x="532" y="768" on="0"/>
        <pt x="488" y="762" on="1"/>
        <pt x="480" y="761" on="0"/>
        <pt x="448" y="761" on="0"/>
        <pt x="312" y="796" on="0"/>
      </contour>
    </TTGlyph>
    <TTGlyph name="P" xMin="80" yMin="0" xMax="467" yMax="700">
      <contour>
        <pt x="80" y="0" on="1"/>
        <pt x="80" y="700" on="1"/>
        <pt x="225" y="700" on="1"/>
        <pt x="348" y="700" on="0"/>
        <pt x="403" y="661" on="1"/>
        <pt x="467" y="616" on="0"/>
        <pt x="467" y="507" on="1"/>
        <pt x="467" y="325" on="0"/>
        <pt x="327" y="285" on="1"/>
        <pt x="282" y="272" on="0"/>
        <pt x="225" y="272" on="1"/>
        <pt x="148" y="272" on="1"/>
        <pt x="148" y="0" on="1"/>
      </contour>
      <contour>
        <pt x="148" y="645" on="1"/>
        <pt x="148" y="327" on="1"/>
        <pt x="220" y="327" on="1"/>
        <pt x="310" y="327" on="0"/>
        <pt x="399" y="406" on="0"/>
        <pt x="399" y="585" on="0"/>
        <pt x="310" y="645" on="0"/>
        <pt x="220" y="645" on="1"/>
      </contour>
    </TTGlyph>
    <TTGlyph name="Q" xMin="65" yMin="-200" xMax="655" yMax="704">
      <contour>
        <pt x="360" y="704" on="1"/>
        <pt x="655" y="704" on="0"/>
        <pt x="655" y="348" on="1"/>
        <pt x="655" y="203" on="0"/>
        <pt x="518" y="19" on="0"/>
        <pt x="411" y="0" on="1"/>
        <pt x="439" y="-99" on="0"/>
        <pt x="570" y="-194" on="1"/>
        <pt x="511" y="-200" on="1"/>
        <pt x="430" y="-144" on="0"/>
        <pt x="378" y="-66" on="1"/>
        <pt x="358" y="-36" on="0"/>
        <pt x="349" y="-4" on="1"/>
        <pt x="147" y="-1" on="0"/>
        <pt x="87" y="182" on="1"/>
        <pt x="65" y="249" on="0"/>
        <pt x="65" y="340" on="1"/>
        <pt x="65" y="512" on="0"/>
        <pt x="234" y="704" on="0"/>
      </contour>
      <contour>
        <pt x="200" y="118" on="1"/>
        <pt x="255" y="56" on="0"/>
        <pt x="360" y="56" on="1"/>
        <pt x="459" y="56" on="0"/>
        <pt x="587" y="213" on="0"/>
        <pt x="587" y="507" on="0"/>
        <pt x="520" y="581" on="1"/>
        <pt x="464" y="644" on="0"/>
        <pt x="360" y="644" on="1"/>
        <pt x="262" y="644" on="0"/>
        <pt x="133" y="486" on="0"/>
        <pt x="133" y="191" on="0"/>
      </contour>
    </TTGlyph>
    <TTGlyph name="R" xMin="80" yMin="0" xMax="519" yMax="700">
      <contour>
        <pt x="467" y="512" on="1"/>
        <pt x="467" y="368" on="0"/>
        <pt x="368" y="319" on="1"/>
        <pt x="519" y="0" on="1"/>
        <pt x="446" y="0" on="1"/>
        <pt x="304" y="298" on="1"/>
        <pt x="268" y="292" on="0"/>
        <pt x="225" y="292" on="1"/>
        <pt x="148" y="292" on="1"/>
        <pt x="148" y="0" on="1"/>
        <pt x="80" y="0" on="1"/>
        <pt x="80" y="700" on="1"/>
        <pt x="225" y="700" on="1"/>
        <pt x="347" y="700" on="0"/>
        <pt x="403" y="662" on="1"/>
        <pt x="467" y="619" on="0"/>
      </contour>
      <contour>
        <pt x="148" y="645" on="1"/>
        <pt x="148" y="347" on="1"/>
        <pt x="220" y="347" on="1"/>
        <pt x="309" y="347" on="0"/>
        <pt x="399" y="419" on="0"/>
        <pt x="399" y="508" on="1"/>
        <pt x="399" y="622" on="0"/>
        <pt x="295" y="640" on="1"/>
        <pt x="262" y="645" on="0"/>
        <pt x="220" y="645" on="1"/>
      </contour>
    </TTGlyph>
    <TTGlyph name="S" xMin="40" yMin="-1" xMax="517" yMax="702">
      <contour>
        <pt x="466" y="682" on="1"/>
        <pt x="454" y="625" on="1"/>
        <pt x="377" y="642" on="0"/>
        <pt x="323" y="642" on="1"/>
        <pt x="129" y="642" on="0"/>
        <pt x="129" y="524" on="1"/>
        <pt x="129" y="479" on="0"/>
        <pt x="186" y="431" on="0"/>
        <pt x="273" y="400" on="0"/>
        <pt x="373" y="375" on="0"/>
        <pt x="416" y="354" on="1"/>
        <pt x="517" y="304" on="0"/>
        <pt x="517" y="98" on="0"/>
        <pt x="440" y="45" on="1"/>
        <pt x="374" y="-1" on="0"/>
        <pt x="266" y="-1" on="1"/>
        <pt x="132" y="-1" on="0"/>
        <pt x="40" y="60" on="1"/>
        <pt x="66" y="111" on="1"/>
        <pt x="93" y="92" on="0"/>
        <pt x="193" y="59" on="0"/>
        <pt x="240" y="59" on="1"/>
        <pt x="332" y="59" on="0"/>
        <pt x="385" y="89" on="1"/>
        <pt x="449" y="126" on="0"/>
        <pt x="449" y="195" on="1"/>
        <pt x="449" y="246" on="0"/>
        <pt x="392" y="303" on="0"/>
        <pt x="305" y="338" on="0"/>
        <pt x="205" y="363" on="0"/>
        <pt x="162" y="382" on="1"/>
        <pt x="61" y="426" on="0"/>
        <pt x="61" y="600" on="0"/>
        <pt x="181" y="702" on="0"/>
        <pt x="291" y="702" on="1"/>
        <pt x="376" y="702" on="0"/>
      </contour>
    </TTGlyph>
    <TTGlyph name="T" xMin="45" yMin="0" xMax="503" yMax="700">
      <contour>
        <pt x="243" y="0" on="1"/>
        <pt x="243" y="640" on="1"/>
        <pt x="45" y="640" on="1"/>
        <pt x="50" y="700" on="1"/>
        <pt x="503" y="700" on="1"/>
        <pt x="498" y="640" on="1"/>
        <pt x="306" y="640" on="1"/>
        <pt x="306" y="0" on="1"/>
      </contour>
    </TTGlyph>
    <TTGlyph name="Thorn" xMin="80" yMin="0" xMax="467" yMax="700">
      <contour>
        <pt x="80" y="0" on="1"/>
        <pt x="80" y="700" on="1"/>
        <pt x="148" y="700" on="1"/>
        <pt x="148" y="570" on="1"/>
        <pt x="225" y="570" on="1"/>
        <pt x="348" y="570" on="0"/>
        <pt x="403" y="531" on="1"/>
        <pt x="467" y="486" on="0"/>
        <pt x="467" y="377" on="1"/>
        <pt x="467" y="195" on="0"/>
        <pt x="327" y="155" on="1"/>
        <pt x="282" y="142" on="0"/>
        <pt x="225" y="142" on="1"/>
        <pt x="148" y="142" on="1"/>
        <pt x="148" y="0" on="1"/>
      </contour>
      <contour>
        <pt x="148" y="515" on="1"/>
        <pt x="148" y="197" on="1"/>
        <pt x="220" y="197" on="1"/>
        <pt x="310" y="197" on="0"/>
        <pt x="399" y="276" on="0"/>
        <pt x="399" y="455" on="0"/>
        <pt x="310" y="515" on="0"/>
        <pt x="220" y="515" on="1"/>
      </contour>
    </TTGlyph>
    <TTGlyph name="U" xMin="80" yMin="-4" xMax="585" yMax="700">
      <contour>
        <pt x="585" y="700" on="1"/>
        <pt x="585" y="300" on="1"/>
        <pt x="585" y="144" on="0"/>
        <pt x="512" y="65" on="1"/>
        <pt x="447" y="-4" on="0"/>
        <pt x="220" y="-4" on="0"/>
        <pt x="160" y="50" on="1"/>
        <pt x="80" y="123" on="0"/>
        <pt x="80" y="300" on="1"/>
        <pt x="80" y="700" on="1"/>
        <pt x="148" y="700" on="1"/>
        <pt x="148" y="301" on="1"/>
        <pt x="148" y="156" on="0"/>
        <pt x="208" y="96" on="1"/>
        <pt x="253" y="51" on="0"/>
        <pt x="338" y="51" on="1"/>
        <pt x="465" y="51" on="0"/>
        <pt x="507" y="184" on="1"/>
        <pt x="522" y="231" on="0"/>
        <pt x="522" y="301" on="1"/>
        <pt x="522" y="700" on="1"/>
      </contour>
    </TTGlyph>
    <TTGlyph name="Uacute" xMin="45" yMin="-4" xMax="550" yMax="901">
      <contour>
        <pt x="487" y="700" on="1"/>
        <pt x="487" y="301" on="1"/>
        <pt x="487" y="171" on="0"/>
        <pt x="384" y="51" on="0"/>
        <pt x="218" y="51" on="0"/>
        <pt x="173" y="96" on="1"/>
        <pt x="113" y="156" on="0"/>
        <pt x="113" y="301" on="1"/>
        <pt x="113" y="700" on="1"/>
        <pt x="45" y="700" on="1"/>
        <pt x="45" y="300" on="1"/>
        <pt x="45" y="123" on="0"/>
        <pt x="125" y="50" on="1"/>
        <pt x="185" y="-4" on="0"/>
        <pt x="303" y="-4" on="1"/>
        <pt x="474" y="-4" on="0"/>
        <pt x="530" y="159" on="1"/>
        <pt x="550" y="217" on="0"/>
        <pt x="550" y="300" on="1"/>
        <pt x="550" y="700" on="1"/>
      </contour>
      <contour>
        <pt x="434" y="894" on="1"/>
        <pt x="315" y="746" on="1"/>
        <pt x="270" y="754" on="1"/>
        <pt x="374" y="901" on="1"/>
      </contour>
    </TTGlyph>
    <TTGlyph name="Ucircumflex" xMin="45" yMin="-4" xMax="550" yMax="940">
      <contour>
        <pt x="550" y="700" on="1"/>
        <pt x="550" y="300" on="1"/>
        <pt x="550" y="144" on="0"/>
        <pt x="476" y="65" on="1"/>
        <pt x="412" y="-4" on="0"/>
        <pt x="185" y="-4" on="0"/>
        <pt x="125" y="50" on="1"/>
        <pt x="45" y="123" on="0"/>
        <pt x="45" y="300" on="1"/>
        <pt x="45" y="700" on="1"/>
        <pt x="113" y="700" on="1"/>
        <pt x="113" y="301" on="1"/>
        <pt x="113" y="156" on="0"/>
        <pt x="173" y="96" on="1"/>
        <pt x="218" y="51" on="0"/>
        <pt x="303" y="51" on="1"/>
        <pt x="430" y="51" on="0"/>
        <pt x="472" y="184" on="1"/>
        <pt x="487" y="231" on="0"/>
        <pt x="487" y="301" on="1"/>
        <pt x="487" y="700" on="1"/>
      </contour>
      <contour>
        <pt x="442" y="750" on="1"/>
        <pt x="308" y="883" on="1"/>
        <pt x="176" y="750" on="1"/>
        <pt x="142" y="779" on="1"/>
        <pt x="309" y="940" on="1"/>
        <pt x="355" y="894" on="0"/>
        <pt x="408" y="844" on="0"/>
        <pt x="469" y="785" on="0"/>
        <pt x="476" y="779" on="1"/>
      </contour>
    </TTGlyph>
    <TTGlyph name="Udieresis" xMin="45" yMin="-4" xMax="550" yMax="830">
      <contour>
        <pt x="550" y="700" on="1"/>
        <pt x="550" y="300" on="1"/>
        <pt x="550" y="144" on="0"/>
        <pt x="476" y="65" on="1"/>
        <pt x="412" y="-4" on="0"/>
        <pt x="185" y="-4" on="0"/>
        <pt x="125" y="50" on="1"/>
        <pt x="45" y="123" on="0"/>
        <pt x="45" y="300" on="1"/>
        <pt x="45" y="700" on="1"/>
        <pt x="113" y="700" on="1"/>
        <pt x="113" y="301" on="1"/>
        <pt x="113" y="156" on="0"/>
        <pt x="173" y="96" on="1"/>
        <pt x="218" y="51" on="0"/>
        <pt x="303" y="51" on="1"/>
        <pt x="430" y="51" on="0"/>
        <pt x="472" y="184" on="1"/>
        <pt x="487" y="231" on="0"/>
        <pt x="487" y="301" on="1"/>
        <pt x="487" y="700" on="1"/>
      </contour>
      <contour>
        <pt x="178" y="750" on="0"/>
        <pt x="158" y="773" on="0"/>
        <pt x="158" y="809" on="0"/>
        <pt x="179" y="830" on="0"/>
        <pt x="214" y="830" on="0"/>
        <pt x="235" y="809" on="0"/>
        <pt x="235" y="770" on="0"/>
        <pt x="213" y="750" on="0"/>
      </contour>
      <contour>
        <pt x="393" y="750" on="0"/>
        <pt x="374" y="773" on="0"/>
        <pt x="374" y="809" on="0"/>
        <pt x="394" y="830" on="0"/>
        <pt x="411" y="830" on="1"/>
        <pt x="451" y="830" on="0"/>
        <pt x="451" y="790" on="1"/>
        <pt x="451" y="770" on="0"/>
        <pt x="428" y="750" on="0"/>
      </contour>
    </TTGlyph>
    <TTGlyph name="Ugrave" xMin="45" yMin="-4" xMax="550" yMax="901">
      <contour>
        <pt x="550" y="700" on="1"/>
        <pt x="550" y="300" on="1"/>
        <pt x="550" y="144" on="0"/>
        <pt x="476" y="65" on="1"/>
        <pt x="412" y="-4" on="0"/>
        <pt x="185" y="-4" on="0"/>
        <pt x="125" y="50" on="1"/>
        <pt x="45" y="123" on="0"/>
        <pt x="45" y="300" on="1"/>
        <pt x="45" y="700" on="1"/>
        <pt x="113" y="700" on="1"/>
        <pt x="113" y="301" on="1"/>
        <pt x="113" y="156" on="0"/>
        <pt x="173" y="96" on="1"/>
        <pt x="218" y="51" on="0"/>
        <pt x="303" y="51" on="1"/>
        <pt x="430" y="51" on="0"/>
        <pt x="472" y="184" on="1"/>
        <pt x="487" y="231" on="0"/>
        <pt x="487" y="301" on="1"/>
        <pt x="487" y="700" on="1"/>
      </contour>
      <contour>
        <pt x="288" y="746" on="1"/>
        <pt x="170" y="894" on="1"/>
        <pt x="230" y="901" on="1"/>
        <pt x="334" y="754" on="1"/>
      </contour>
    </TTGlyph>
    <TTGlyph name="V" xMin="45" yMin="0" xMax="616" yMax="700">
      <contour>
        <pt x="340" y="76" on="1"/>
        <pt x="551" y="700" on="1"/>
        <pt x="616" y="700" on="1"/>
        <pt x="368" y="0" on="1"/>
        <pt x="302" y="0" on="1"/>
        <pt x="45" y="700" on="1"/>
        <pt x="113" y="700" on="1"/>
      </contour>
    </TTGlyph>
    <TTGlyph name="W" xMin="45" yMin="0" xMax="868" yMax="700">
      <contour>
        <pt x="637" y="98" on="1"/>
        <pt x="803" y="700" on="1"/>
        <pt x="868" y="700" on="1"/>
        <pt x="663" y="0" on="1"/>
        <pt x="602" y="0" on="1"/>
        <pt x="451" y="596" on="1"/>
        <pt x="286" y="0" on="1"/>
        <pt x="224" y="0" on="1"/>
        <pt x="45" y="700" on="1"/>
        <pt x="108" y="700" on="1"/>
        <pt x="260" y="101" on="1"/>
        <pt x="425" y="700" on="1"/>
        <pt x="481" y="700" on="1"/>
      </contour>
    </TTGlyph>
    <TTGlyph name="X" xMin="43" yMin="0" xMax="570" yMax="700">
      <contour>
        <pt x="297" y="322" on="1"/>
        <pt x="113" y="0" on="1"/>
        <pt x="43" y="0" on="1"/>
        <pt x="266" y="373" on="1"/>
        <pt x="60" y="700" on="1"/>
        <pt x="138" y="700" on="1"/>
        <pt x="310" y="414" on="1"/>
        <pt x="474" y="700" on="1"/>
        <pt x="544" y="700" on="1"/>
        <pt x="341" y="363" on="1"/>
        <pt x="570" y="0" on="1"/>
        <pt x="492" y="0" on="1"/>
      </contour>
    </TTGlyph>
    <TTGlyph name="Y" xMin="45" yMin="0" xMax="611" yMax="700">
      <contour>
        <pt x="334" y="291" on="1"/>
        <pt x="541" y="700" on="1"/>
        <pt x="611" y="700" on="1"/>
        <pt x="366" y="235" on="1"/>
        <pt x="366" y="0" on="1"/>
        <pt x="303" y="0" on="1"/>
        <pt x="303" y="236" on="1"/>
        <pt x="45" y="700" on="1"/>
        <pt x="118" y="700" on="1"/>
      </contour>
    </TTGlyph>
    <TTGlyph name="Yacute" xMin="45" yMin="0" xMax="611" yMax="900">
      <contour>
        <pt x="118" y="700" on="1"/>
        <pt x="45" y="700" on="1"/>
        <pt x="303" y="236" on="1"/>
        <pt x="303" y="0" on="1"/>
        <pt x="366" y="0" on="1"/>
        <pt x="366" y="235" on="1"/>
        <pt x="611" y="700" on="1"/>
        <pt x="541" y="700" on="1"/>
        <pt x="334" y="291" on="1"/>
      </contour>
      <contour>
        <pt x="474" y="893" on="1"/>
        <pt x="355" y="745" on="1"/>
        <pt x="310" y="753" on="1"/>
        <pt x="414" y="900" on="1"/>
      </contour>
    </TTGlyph>
    <TTGlyph name="Ydieresis" xMin="45" yMin="0" xMax="611" yMax="830">
      <contour>
        <pt x="334" y="291" on="1"/>
        <pt x="541" y="700" on="1"/>
        <pt x="611" y="700" on="1"/>
        <pt x="366" y="235" on="1"/>
        <pt x="366" y="0" on="1"/>
        <pt x="303" y="0" on="1"/>
        <pt x="303" y="236" on="1"/>
        <pt x="45" y="700" on="1"/>
        <pt x="118" y="700" on="1"/>
      </contour>
      <contour>
        <pt x="211" y="750" on="0"/>
        <pt x="191" y="773" on="0"/>
        <pt x="191" y="809" on="0"/>
        <pt x="212" y="830" on="0"/>
        <pt x="247" y="830" on="0"/>
        <pt x="268" y="809" on="0"/>
        <pt x="268" y="770" on="0"/>
        <pt x="246" y="750" on="0"/>
      </contour>
      <contour>
        <pt x="426" y="750" on="0"/>
        <pt x="407" y="773" on="0"/>
        <pt x="407" y="809" on="0"/>
        <pt x="427" y="830" on="0"/>
        <pt x="444" y="830" on="1"/>
        <pt x="484" y="830" on="0"/>
        <pt x="484" y="790" on="1"/>
        <pt x="484" y="770" on="0"/>
        <pt x="461" y="750" on="0"/>
      </contour>
    </TTGlyph>
    <TTGlyph name="Z" xMin="40" yMin="0" xMax="552" yMax="700">
      <contour>
        <pt x="61" y="700" on="1"/>
        <pt x="501" y="700" on="1"/>
        <pt x="511" y="645" on="1"/>
        <pt x="117" y="55" on="1"/>
        <pt x="544" y="55" on="1"/>
        <pt x="552" y="0" on="1"/>
        <pt x="50" y="0" on="1"/>
        <pt x="40" y="55" on="1"/>
        <pt x="433" y="645" on="1"/>
        <pt x="62" y="645" on="1"/>
      </contour>
    </TTGlyph>
    <TTGlyph name="a" xMin="40" yMin="-5" xMax="422" yMax="503">
      <contour>
        <pt x="51" y="446" on="1"/>
        <pt x="160" y="500" on="0"/>
        <pt x="242" y="503" on="1"/>
        <pt x="307" y="503" on="0"/>
        <pt x="378" y="470" on="0"/>
        <pt x="422" y="411" on="0"/>
        <pt x="422" y="358" on="1"/>
        <pt x="422" y="0" on="1"/>
        <pt x="357" y="0" on="1"/>
        <pt x="357" y="38" on="1"/>
        <pt x="220" y="-4" on="0"/>
        <pt x="181" y="-4" on="1"/>
        <pt x="179" y="-4" on="0"/>
        <pt x="178" y="-4" on="1"/>
        <pt x="88" y="-4" on="0"/>
        <pt x="55" y="51" on="1"/>
        <pt x="43" y="71" on="0"/>
        <pt x="40" y="109" on="0"/>
        <pt x="40" y="122" on="1"/>
        <pt x="40" y="158" on="0"/>
        <pt x="96" y="215" on="0"/>
        <pt x="135" y="225" on="1"/>
        <pt x="201" y="242" on="0"/>
        <pt x="357" y="255" on="1"/>
        <pt x="357" y="336" on="1"/>
        <pt x="357" y="445" on="0"/>
        <pt x="243" y="445" on="1"/>
        <pt x="163" y="445" on="0"/>
        <pt x="69" y="398" on="1"/>
      </contour>
      <contour>
        <pt x="101" y="114" on="1"/>
        <pt x="101" y="42" on="0"/>
        <pt x="200" y="42" on="1"/>
        <pt x="279" y="42" on="0"/>
        <pt x="357" y="76" on="1"/>
        <pt x="357" y="219" on="1"/>
        <pt x="201" y="197" on="0"/>
        <pt x="164" y="185" on="1"/>
        <pt x="101" y="165" on="0"/>
      </contour>
    </TTGlyph>
    <TTGlyph name="aacute" xMin="40" yMin="-4" xMax="422" yMax="750">
      <contour>
        <pt x="357" y="38" on="1"/>
        <pt x="357" y="0" on="1"/>
        <pt x="422" y="0" on="1"/>
        <pt x="422" y="358" on="1"/>
        <pt x="422" y="449" on="0"/>
        <pt x="348" y="484" on="1"/>
        <pt x="308" y="503" on="0"/>
        <pt x="261" y="503" on="1"/>
        <pt x="190" y="503" on="0"/>
        <pt x="78" y="459" on="0"/>
        <pt x="51" y="446" on="1"/>
        <pt x="69" y="398" on="1"/>
        <pt x="163" y="445" on="0"/>
        <pt x="243" y="445" on="1"/>
        <pt x="357" y="445" on="0"/>
        <pt x="357" y="336" on="1"/>
        <pt x="357" y="255" on="1"/>
        <pt x="203" y="242" on="0"/>
        <pt x="122" y="222" on="0"/>
        <pt x="103" y="212" on="1"/>
        <pt x="63" y="192" on="0"/>
        <pt x="46" y="152" on="1"/>
        <pt x="40" y="136" on="0"/>
        <pt x="40" y="109" on="0"/>
        <pt x="43" y="71" on="0"/>
        <pt x="55" y="51" on="1"/>
        <pt x="88" y="-4" on="0"/>
        <pt x="195" y="-4" on="1"/>
        <pt x="267" y="-4" on="0"/>
      </contour>
      <contour>
        <pt x="357" y="76" on="1"/>
        <pt x="279" y="42" on="0"/>
        <pt x="112" y="42" on="0"/>
        <pt x="102" y="101" on="1"/>
        <pt x="101" y="108" on="0"/>
        <pt x="101" y="134" on="0"/>
        <pt x="131" y="179" on="0"/>
        <pt x="246" y="203" on="0"/>
        <pt x="357" y="219" on="1"/>
      </contour>
      <contour>
        <pt x="386" y="743" on="1"/>
        <pt x="267" y="595" on="1"/>
        <pt x="222" y="603" on="1"/>
        <pt x="326" y="750" on="1"/>
      </contour>
    </TTGlyph>
    <TTGlyph name="acircumflex" xMin="40" yMin="-5" xMax="422" yMax="761">
      <contour>
        <pt x="51" y="446" on="1"/>
        <pt x="160" y="500" on="0"/>
        <pt x="242" y="503" on="1"/>
        <pt x="307" y="503" on="0"/>
        <pt x="378" y="470" on="0"/>
        <pt x="422" y="411" on="0"/>
        <pt x="422" y="358" on="1"/>
        <pt x="422" y="0" on="1"/>
        <pt x="357" y="0" on="1"/>
        <pt x="357" y="38" on="1"/>
        <pt x="220" y="-4" on="0"/>
        <pt x="181" y="-4" on="1"/>
        <pt x="179" y="-4" on="0"/>
        <pt x="178" y="-4" on="1"/>
        <pt x="88" y="-4" on="0"/>
        <pt x="55" y="51" on="1"/>
        <pt x="43" y="71" on="0"/>
        <pt x="40" y="109" on="0"/>
        <pt x="40" y="122" on="1"/>
        <pt x="40" y="158" on="0"/>
        <pt x="96" y="215" on="0"/>
        <pt x="135" y="225" on="1"/>
        <pt x="201" y="242" on="0"/>
        <pt x="357" y="255" on="1"/>
        <pt x="357" y="336" on="1"/>
        <pt x="357" y="445" on="0"/>
        <pt x="243" y="445" on="1"/>
        <pt x="163" y="445" on="0"/>
        <pt x="69" y="398" on="1"/>
      </contour>
      <contour>
        <pt x="101" y="114" on="1"/>
        <pt x="101" y="42" on="0"/>
        <pt x="200" y="42" on="1"/>
        <pt x="279" y="42" on="0"/>
        <pt x="357" y="76" on="1"/>
        <pt x="357" y="219" on="1"/>
        <pt x="201" y="197" on="0"/>
        <pt x="164" y="185" on="1"/>
        <pt x="101" y="165" on="0"/>
      </contour>
      <contour>
        <pt x="382" y="571" on="1"/>
        <pt x="248" y="704" on="1"/>
        <pt x="116" y="571" on="1"/>
        <pt x="82" y="600" on="1"/>
        <pt x="249" y="761" on="1"/>
        <pt x="295" y="715" on="0"/>
        <pt x="348" y="665" on="0"/>
        <pt x="409" y="606" on="0"/>
        <pt x="416" y="600" on="1"/>
      </contour>
    </TTGlyph>
    <TTGlyph name="acute" xMin="76" yMin="595" xMax="240" yMax="750">
      <contour>
        <pt x="240" y="743" on="1"/>
        <pt x="121" y="595" on="1"/>
        <pt x="76" y="603" on="1"/>
        <pt x="180" y="750" on="1"/>
      </contour>
    </TTGlyph>
    <TTGlyph name="adieresis" xMin="40" yMin="-5" xMax="422" yMax="650">
      <contour>
        <pt x="51" y="446" on="1"/>
        <pt x="160" y="500" on="0"/>
        <pt x="242" y="503" on="1"/>
        <pt x="307" y="503" on="0"/>
        <pt x="378" y="470" on="0"/>
        <pt x="422" y="411" on="0"/>
        <pt x="422" y="358" on="1"/>
        <pt x="422" y="0" on="1"/>
        <pt x="357" y="0" on="1"/>
        <pt x="357" y="38" on="1"/>
        <pt x="220" y="-4" on="0"/>
        <pt x="181" y="-4" on="1"/>
        <pt x="179" y="-4" on="0"/>
        <pt x="178" y="-4" on="1"/>
        <pt x="88" y="-4" on="0"/>
        <pt x="55" y="51" on="1"/>
        <pt x="43" y="71" on="0"/>
        <pt x="40" y="109" on="0"/>
        <pt x="40" y="122" on="1"/>
        <pt x="40" y="158" on="0"/>
        <pt x="96" y="215" on="0"/>
        <pt x="135" y="225" on="1"/>
        <pt x="201" y="242" on="0"/>
        <pt x="357" y="255" on="1"/>
        <pt x="357" y="336" on="1"/>
        <pt x="357" y="445" on="0"/>
        <pt x="243" y="445" on="1"/>
        <pt x="163" y="445" on="0"/>
        <pt x="69" y="398" on="1"/>
      </contour>
      <contour>
        <pt x="101" y="114" on="1"/>
        <pt x="101" y="42" on="0"/>
        <pt x="200" y="42" on="1"/>
        <pt x="279" y="42" on="0"/>
        <pt x="357" y="76" on="1"/>
        <pt x="357" y="219" on="1"/>
        <pt x="201" y="197" on="0"/>
        <pt x="164" y="185" on="1"/>
        <pt x="101" y="165" on="0"/>
      </contour>
      <contour>
        <pt x="118" y="570" on="0"/>
        <pt x="98" y="593" on="0"/>
        <pt x="98" y="629" on="0"/>
        <pt x="119" y="650" on="0"/>
        <pt x="154" y="650" on="0"/>
        <pt x="175" y="629" on="0"/>
        <pt x="175" y="590" on="0"/>
        <pt x="153" y="570" on="0"/>
      </contour>
      <contour>
        <pt x="333" y="570" on="0"/>
        <pt x="314" y="593" on="0"/>
        <pt x="314" y="629" on="0"/>
        <pt x="334" y="650" on="0"/>
        <pt x="351" y="650" on="1"/>
        <pt x="391" y="650" on="0"/>
        <pt x="391" y="610" on="1"/>
        <pt x="391" y="590" on="0"/>
        <pt x="368" y="570" on="0"/>
      </contour>
    </TTGlyph>
    <TTGlyph name="ae" xMin="40" yMin="-4" xMax="686" yMax="505">
      <contour>
        <pt x="325" y="230" on="1"/>
        <pt x="325" y="54" on="0"/>
        <pt x="493" y="54" on="1"/>
        <pt x="564" y="54" on="0"/>
        <pt x="622" y="73" on="1"/>
        <pt x="638" y="78" on="0"/>
        <pt x="644" y="81" on="1"/>
        <pt x="659" y="28" on="1"/>
        <pt x="624" y="7" on="0"/>
        <pt x="532" y="-2" on="1"/>
        <pt x="506" y="-4" on="0"/>
        <pt x="483" y="-4" on="1"/>
        <pt x="398" y="-4" on="0"/>
        <pt x="344" y="32" on="1"/>
        <pt x="259" y="-4" on="0"/>
        <pt x="182" y="-4" on="1"/>
        <pt x="88" y="-4" on="0"/>
        <pt x="55" y="51" on="1"/>
        <pt x="43" y="71" on="0"/>
        <pt x="40" y="109" on="0"/>
        <pt x="40" y="122" on="1"/>
        <pt x="40" y="158" on="0"/>
        <pt x="96" y="215" on="0"/>
        <pt x="180" y="237" on="0"/>
        <pt x="260" y="244" on="1"/>
        <pt x="264" y="354" on="0"/>
        <pt x="321" y="423" on="1"/>
        <pt x="317" y="425" on="0"/>
        <pt x="308" y="430" on="1"/>
        <pt x="286" y="445" on="0"/>
        <pt x="243" y="445" on="1"/>
        <pt x="163" y="445" on="0"/>
        <pt x="69" y="398" on="1"/>
        <pt x="51" y="446" on="1"/>
        <pt x="160" y="500" on="0"/>
        <pt x="242" y="503" on="1"/>
        <pt x="328" y="503" on="0"/>
        <pt x="373" y="469" on="1"/>
        <pt x="435" y="504" on="0"/>
        <pt x="546" y="504" on="0"/>
        <pt x="584" y="488" on="1"/>
        <pt x="685" y="445" on="0"/>
        <pt x="685" y="305" on="1"/>
        <pt x="685" y="285" on="0"/>
        <pt x="683" y="263" on="1"/>
        <pt x="326" y="263" on="1"/>
        <pt x="325" y="247" on="0"/>
      </contour>
      <contour>
        <pt x="502" y="442" on="1"/>
        <pt x="422" y="442" on="0"/>
        <pt x="367" y="374" on="1"/>
        <pt x="343" y="345" on="0"/>
        <pt x="332" y="300" on="1"/>
        <pt x="625" y="300" on="1"/>
        <pt x="626" y="306" on="0"/>
        <pt x="626" y="345" on="0"/>
        <pt x="613" y="374" on="1"/>
        <pt x="591" y="426" on="0"/>
        <pt x="540" y="437" on="1"/>
        <pt x="522" y="442" on="0"/>
      </contour>
      <contour>
        <pt x="312" y="60" on="1"/>
        <pt x="295" y="80" on="0"/>
        <pt x="263" y="146" on="0"/>
        <pt x="260" y="205" on="1"/>
        <pt x="192" y="194" on="0"/>
        <pt x="127" y="173" on="0"/>
        <pt x="101" y="134" on="0"/>
        <pt x="101" y="108" on="0"/>
        <pt x="103" y="95" on="1"/>
        <pt x="112" y="42" on="0"/>
        <pt x="205" y="42" on="1"/>
        <pt x="251" y="42" on="0"/>
      </contour>
    </TTGlyph>
    <TTGlyph name="agrave" xMin="40" yMin="-5" xMax="422" yMax="750">
      <contour>
        <pt x="51" y="446" on="1"/>
        <pt x="160" y="500" on="0"/>
        <pt x="242" y="503" on="1"/>
        <pt x="307" y="503" on="0"/>
        <pt x="378" y="470" on="0"/>
        <pt x="422" y="411" on="0"/>
        <pt x="422" y="358" on="1"/>
        <pt x="422" y="0" on="1"/>
        <pt x="357" y="0" on="1"/>
        <pt x="357" y="38" on="1"/>
        <pt x="220" y="-4" on="0"/>
        <pt x="181" y="-4" on="1"/>
        <pt x="179" y="-4" on="0"/>
        <pt x="178" y="-4" on="1"/>
        <pt x="88" y="-4" on="0"/>
        <pt x="55" y="51" on="1"/>
        <pt x="43" y="71" on="0"/>
        <pt x="40" y="109" on="0"/>
        <pt x="40" y="122" on="1"/>
        <pt x="40" y="158" on="0"/>
        <pt x="96" y="215" on="0"/>
        <pt x="135" y="225" on="1"/>
        <pt x="201" y="242" on="0"/>
        <pt x="357" y="255" on="1"/>
        <pt x="357" y="336" on="1"/>
        <pt x="357" y="445" on="0"/>
        <pt x="243" y="445" on="1"/>
        <pt x="163" y="445" on="0"/>
        <pt x="69" y="398" on="1"/>
      </contour>
      <contour>
        <pt x="101" y="114" on="1"/>
        <pt x="101" y="42" on="0"/>
        <pt x="200" y="42" on="1"/>
        <pt x="279" y="42" on="0"/>
        <pt x="357" y="76" on="1"/>
        <pt x="357" y="219" on="1"/>
        <pt x="201" y="197" on="0"/>
        <pt x="164" y="185" on="1"/>
        <pt x="101" y="165" on="0"/>
      </contour>
      <contour>
        <pt x="230" y="595" on="1"/>
        <pt x="112" y="743" on="1"/>
        <pt x="172" y="750" on="1"/>
        <pt x="276" y="603" on="1"/>
      </contour>
    </TTGlyph>
    <TTGlyph name="ampersand" xMin="71" yMin="-27" xMax="777" yMax="749">
      <contour>
        <pt x="255" y="461" on="1"/>
        <pt x="199" y="545" on="0"/>
        <pt x="199" y="654" on="0"/>
        <pt x="238" y="696" on="1"/>
        <pt x="288" y="749" on="0"/>
        <pt x="376" y="749" on="1"/>
        <pt x="444" y="749" on="0"/>
        <pt x="502" y="716" on="1"/>
        <pt x="525" y="703" on="0"/>
        <pt x="554" y="678" on="0"/>
        <pt x="560" y="674" on="1"/>
        <pt x="524" y="634" on="1"/>
        <pt x="484" y="669" on="0"/>
        <pt x="426" y="687" on="1"/>
        <pt x="403" y="694" on="0"/>
        <pt x="344" y="694" on="0"/>
        <pt x="321" y="682" on="1"/>
        <pt x="264" y="654" on="0"/>
        <pt x="264" y="592" on="1"/>
        <pt x="264" y="477" on="0"/>
        <pt x="604" y="167" on="1"/>
        <pt x="659" y="236" on="0"/>
        <pt x="686" y="335" on="1"/>
        <pt x="743" y="322" on="1"/>
        <pt x="730" y="259" on="0"/>
        <pt x="690" y="188" on="1"/>
        <pt x="673" y="158" on="0"/>
        <pt x="648" y="128" on="1"/>
        <pt x="733" y="53" on="0"/>
        <pt x="777" y="19" on="1"/>
        <pt x="739" y="-27" on="1"/>
        <pt x="692" y="9" on="0"/>
        <pt x="606" y="86" on="1"/>
        <pt x="499" y="-4" on="0"/>
        <pt x="338" y="-4" on="1"/>
        <pt x="211" y="-4" on="0"/>
        <pt x="71" y="109" on="0"/>
        <pt x="71" y="229" on="1"/>
        <pt x="71" y="376" on="0"/>
        <pt x="180" y="435" on="1"/>
        <pt x="214" y="453" on="0"/>
      </contour>
      <contour>
        <pt x="136" y="231" on="1"/>
        <pt x="136" y="51" on="0"/>
        <pt x="353" y="51" on="1"/>
        <pt x="474" y="51" on="0"/>
        <pt x="562" y="125" on="1"/>
        <pt x="392" y="280" on="0"/>
        <pt x="290" y="411" on="1"/>
        <pt x="217" y="403" on="0"/>
        <pt x="136" y="312" on="0"/>
      </contour>
    </TTGlyph>
    <TTGlyph name="aring" xMin="40" yMin="-5" xMax="422" yMax="744">
      <contour>
        <pt x="51" y="446" on="1"/>
        <pt x="160" y="500" on="0"/>
        <pt x="242" y="503" on="1"/>
        <pt x="307" y="503" on="0"/>
        <pt x="378" y="470" on="0"/>
        <pt x="422" y="411" on="0"/>
        <pt x="422" y="358" on="1"/>
        <pt x="422" y="0" on="1"/>
        <pt x="357" y="0" on="1"/>
        <pt x="357" y="38" on="1"/>
        <pt x="220" y="-4" on="0"/>
        <pt x="181" y="-4" on="1"/>
        <pt x="179" y="-4" on="0"/>
        <pt x="178" y="-4" on="1"/>
        <pt x="88" y="-4" on="0"/>
        <pt x="55" y="51" on="1"/>
        <pt x="43" y="71" on="0"/>
        <pt x="40" y="109" on="0"/>
        <pt x="40" y="122" on="1"/>
        <pt x="40" y="158" on="0"/>
        <pt x="96" y="215" on="0"/>
        <pt x="135" y="225" on="1"/>
        <pt x="201" y="242" on="0"/>
        <pt x="357" y="255" on="1"/>
        <pt x="357" y="336" on="1"/>
        <pt x="357" y="445" on="0"/>
        <pt x="243" y="445" on="1"/>
        <pt x="163" y="445" on="0"/>
        <pt x="69" y="398" on="1"/>
      </contour>
      <contour>
        <pt x="101" y="114" on="1"/>
        <pt x="101" y="42" on="0"/>
        <pt x="200" y="42" on="1"/>
        <pt x="279" y="42" on="0"/>
        <pt x="357" y="76" on="1"/>
        <pt x="357" y="219" on="1"/>
        <pt x="201" y="197" on="0"/>
        <pt x="164" y="185" on="1"/>
        <pt x="101" y="165" on="0"/>
      </contour>
      <contour>
        <pt x="225" y="585" on="0"/>
        <pt x="175" y="620" on="0"/>
        <pt x="175" y="698" on="0"/>
        <pt x="225" y="744" on="0"/>
        <pt x="295" y="744" on="0"/>
        <pt x="344" y="708" on="0"/>
        <pt x="344" y="632" on="0"/>
        <pt x="295" y="585" on="0"/>
      </contour>
      <contour>
        <pt x="239" y="716" on="0"/>
        <pt x="210" y="685" on="0"/>
        <pt x="210" y="638" on="0"/>
        <pt x="239" y="613" on="0"/>
        <pt x="280" y="613" on="0"/>
        <pt x="309" y="643" on="0"/>
        <pt x="309" y="690" on="0"/>
        <pt x="280" y="716" on="0"/>
      </contour>
    </TTGlyph>
    <TTGlyph name="asciicircum" xMin="136" yMin="300" xMax="406" yMax="463">
      <contour>
        <pt x="374" y="300" on="1"/>
        <pt x="358" y="322" on="0"/>
        <pt x="280" y="415" on="0"/>
        <pt x="270" y="429" on="1"/>
        <pt x="231" y="380" on="0"/>
        <pt x="188" y="328" on="0"/>
        <pt x="168" y="300" on="1"/>
        <pt x="136" y="305" on="1"/>
        <pt x="159" y="333" on="0"/>
        <pt x="260" y="449" on="0"/>
        <pt x="270" y="463" on="1"/>
        <pt x="278" y="452" on="0"/>
        <pt x="385" y="332" on="0"/>
        <pt x="406" y="305" on="1"/>
      </contour>
    </TTGlyph>
    <TTGlyph name="asciitilde" xMin="122" yMin="308" xMax="488" yMax="386">
      <contour>
        <pt x="216" y="344" on="1"/>
        <pt x="163" y="344" on="0"/>
        <pt x="156" y="308" on="1"/>
        <pt x="122" y="315" on="1"/>
        <pt x="136" y="380" on="0"/>
        <pt x="211" y="380" on="1"/>
        <pt x="248" y="380" on="0"/>
        <pt x="380" y="347" on="0"/>
        <pt x="420" y="347" on="0"/>
        <pt x="430" y="350" on="1"/>
        <pt x="446" y="355" on="0"/>
        <pt x="453" y="386" on="1"/>
        <pt x="488" y="379" on="1"/>
        <pt x="474" y="316" on="0"/>
        <pt x="430" y="310" on="1"/>
        <pt x="422" y="309" on="0"/>
        <pt x="390" y="309" on="0"/>
        <pt x="254" y="344" on="0"/>
      </contour>
    </TTGlyph>
    <TTGlyph name="asterisk" xMin="148" yMin="454" xMax="443" yMax="736">
      <contour>
        <pt x="274" y="736" on="1"/>
        <pt x="322" y="735" on="1"/>
        <pt x="322" y="697" on="0"/>
        <pt x="314" y="613" on="1"/>
        <pt x="427" y="656" on="1"/>
        <pt x="443" y="609" on="1"/>
        <pt x="407" y="597" on="0"/>
        <pt x="325" y="578" on="1"/>
        <pt x="400" y="483" on="1"/>
        <pt x="361" y="454" on="1"/>
        <pt x="339" y="483" on="0"/>
        <pt x="304" y="541" on="0"/>
        <pt x="293" y="559" on="1"/>
        <pt x="225" y="457" on="1"/>
        <pt x="186" y="485" on="1"/>
        <pt x="207" y="513" on="0"/>
        <pt x="250" y="564" on="0"/>
        <pt x="264" y="581" on="1"/>
        <pt x="148" y="613" on="1"/>
        <pt x="162" y="660" on="1"/>
        <pt x="211" y="643" on="0"/>
        <pt x="278" y="613" on="1"/>
        <pt x="278" y="692" on="0"/>
      </contour>
    </TTGlyph>
    <TTGlyph name="at" xMin="85" yMin="-215" xMax="973" yMax="715">
      <contour>
        <pt x="655" y="336" on="1"/>
        <pt x="655" y="445" on="0"/>
        <pt x="541" y="445" on="1"/>
        <pt x="460" y="445" on="0"/>
        <pt x="366" y="398" on="1"/>
        <pt x="348" y="446" on="1"/>
        <pt x="355" y="449" on="0"/>
        <pt x="374" y="458" on="1"/>
        <pt x="468" y="501" on="0"/>
        <pt x="540" y="503" on="1"/>
        <pt x="605" y="503" on="0"/>
        <pt x="676" y="470" on="0"/>
        <pt x="720" y="411" on="0"/>
        <pt x="720" y="358" on="1"/>
        <pt x="720" y="47" on="1"/>
        <pt x="721" y="29" on="0"/>
        <pt x="746" y="16" on="0"/>
        <pt x="765" y="16" on="0"/>
        <pt x="792" y="21" on="0"/>
        <pt x="840" y="53" on="0"/>
        <pt x="860" y="82" on="1"/>
        <pt x="908" y="151" on="0"/>
        <pt x="908" y="258" on="1"/>
        <pt x="908" y="460" on="0"/>
        <pt x="796" y="565" on="1"/>
        <pt x="697" y="657" on="0"/>
        <pt x="535" y="657" on="1"/>
        <pt x="452" y="657" on="0"/>
        <pt x="311" y="591" on="0"/>
        <pt x="208" y="477" on="0"/>
        <pt x="150" y="322" on="0"/>
        <pt x="150" y="128" on="0"/>
        <pt x="209" y="-21" on="0"/>
        <pt x="260" y="-68" on="1"/>
        <pt x="360" y="-157" on="0"/>
        <pt x="530" y="-157" on="1"/>
        <pt x="608" y="-157" on="0"/>
        <pt x="675" y="-125" on="1"/>
        <pt x="704" y="-175" on="1"/>
        <pt x="633" y="-215" on="0"/>
        <pt x="510" y="-215" on="1"/>
        <pt x="433" y="-215" on="0"/>
        <pt x="274" y="-164" on="0"/>
        <pt x="214" y="-110" on="1"/>
        <pt x="85" y="8" on="0"/>
        <pt x="85" y="238" on="1"/>
        <pt x="85" y="343" on="0"/>
        <pt x="155" y="518" on="0"/>
        <pt x="276" y="644" on="0"/>
        <pt x="441" y="715" on="0"/>
        <pt x="534" y="715" on="1"/>
        <pt x="727" y="715" on="0"/>
        <pt x="844" y="606" on="1"/>
        <pt x="973" y="486" on="0"/>
        <pt x="973" y="265" on="1"/>
        <pt x="973" y="116" on="0"/>
        <pt x="894" y="31" on="1"/>
        <pt x="829" y="-39" on="0"/>
        <pt x="745" y="-39" on="1"/>
        <pt x="709" y="-39" on="0"/>
        <pt x="658" y="2" on="0"/>
        <pt x="655" y="38" on="1"/>
        <pt x="559" y="-4" on="0"/>
        <pt x="480" y="-4" on="1"/>
        <pt x="348" y="-4" on="0"/>
        <pt x="338" y="101" on="1"/>
        <pt x="338" y="107" on="0"/>
        <pt x="338" y="134" on="0"/>
        <pt x="352" y="173" on="0"/>
        <pt x="395" y="216" on="0"/>
        <pt x="494" y="241" on="0"/>
        <pt x="655" y="252" on="1"/>
      </contour>
      <contour>
        <pt x="498" y="42" on="1"/>
        <pt x="571" y="42" on="0"/>
        <pt x="655" y="76" on="1"/>
        <pt x="655" y="219" on="1"/>
        <pt x="498" y="196" on="0"/>
        <pt x="461" y="185" on="1"/>
        <pt x="398" y="164" on="0"/>
        <pt x="398" y="112" on="1"/>
        <pt x="398" y="72" on="0"/>
        <pt x="434" y="54" on="1"/>
        <pt x="457" y="42" on="0"/>
      </contour>
    </TTGlyph>
    <TTGlyph name="atilde" xMin="40" yMin="-5" xMax="422" yMax="661">
      <contour>
        <pt x="51" y="446" on="1"/>
        <pt x="160" y="500" on="0"/>
        <pt x="242" y="503" on="1"/>
        <pt x="307" y="503" on="0"/>
        <pt x="378" y="470" on="0"/>
        <pt x="422" y="411" on="0"/>
        <pt x="422" y="358" on="1"/>
        <pt x="422" y="0" on="1"/>
        <pt x="357" y="0" on="1"/>
        <pt x="357" y="38" on="1"/>
        <pt x="220" y="-4" on="0"/>
        <pt x="181" y="-4" on="1"/>
        <pt x="179" y="-4" on="0"/>
        <pt x="178" y="-4" on="1"/>
        <pt x="88" y="-4" on="0"/>
        <pt x="55" y="51" on="1"/>
        <pt x="43" y="71" on="0"/>
        <pt x="40" y="109" on="0"/>
        <pt x="40" y="122" on="1"/>
        <pt x="40" y="158" on="0"/>
        <pt x="96" y="215" on="0"/>
        <pt x="135" y="225" on="1"/>
        <pt x="201" y="242" on="0"/>
        <pt x="357" y="255" on="1"/>
        <pt x="357" y="336" on="1"/>
        <pt x="357" y="445" on="0"/>
        <pt x="243" y="445" on="1"/>
        <pt x="163" y="445" on="0"/>
        <pt x="69" y="398" on="1"/>
      </contour>
      <contour>
        <pt x="101" y="114" on="1"/>
        <pt x="101" y="42" on="0"/>
        <pt x="200" y="42" on="1"/>
        <pt x="279" y="42" on="0"/>
        <pt x="357" y="76" on="1"/>
        <pt x="357" y="219" on="1"/>
        <pt x="201" y="197" on="0"/>
        <pt x="164" y="185" on="1"/>
        <pt x="101" y="165" on="0"/>
      </contour>
      <contour>
        <pt x="150" y="619" on="1"/>
        <pt x="97" y="619" on="0"/>
        <pt x="90" y="583" on="1"/>
        <pt x="56" y="590" on="1"/>
        <pt x="70" y="654" on="0"/>
        <pt x="145" y="654" on="1"/>
        <pt x="182" y="654" on="0"/>
        <pt x="314" y="622" on="0"/>
        <pt x="354" y="622" on="0"/>
        <pt x="364" y="625" on="1"/>
        <pt x="380" y="630" on="0"/>
        <pt x="387" y="661" on="1"/>
        <pt x="422" y="654" on="1"/>
        <pt x="408" y="591" on="0"/>
        <pt x="364" y="585" on="1"/>
        <pt x="356" y="584" on="0"/>
        <pt x="324" y="584" on="0"/>
        <pt x="188" y="619" on="0"/>
      </contour>
    </TTGlyph>
    <TTGlyph name="b" xMin="60" yMin="-1" xMax="458" yMax="750">
      <contour>
        <pt x="125" y="460" on="1"/>
        <pt x="184" y="509" on="0"/>
        <pt x="259" y="509" on="1"/>
        <pt x="387" y="509" on="0"/>
        <pt x="438" y="396" on="1"/>
        <pt x="458" y="350" on="0"/>
        <pt x="458" y="277" on="1"/>
        <pt x="458" y="142" on="0"/>
        <pt x="316" y="0" on="0"/>
        <pt x="203" y="0" on="1"/>
        <pt x="137" y="0" on="0"/>
        <pt x="68" y="18" on="0"/>
        <pt x="60" y="23" on="1"/>
        <pt x="60" y="745" on="1"/>
        <pt x="125" y="750" on="1"/>
      </contour>
      <contour>
        <pt x="125" y="425" on="1"/>
        <pt x="125" y="56" on="1"/>
        <pt x="154" y="49" on="0"/>
        <pt x="188" y="49" on="1"/>
        <pt x="288" y="49" on="0"/>
        <pt x="393" y="165" on="0"/>
        <pt x="393" y="375" on="0"/>
        <pt x="340" y="420" on="1"/>
        <pt x="303" y="451" on="0"/>
        <pt x="185" y="451" on="0"/>
      </contour>
    </TTGlyph>
    <TTGlyph name="backslash" xMin="107" yMin="-200" xMax="495" yMax="749">
      <contour>
        <pt x="425" y="-200" on="1"/>
        <pt x="107" y="749" on="1"/>
        <pt x="177" y="749" on="1"/>
        <pt x="495" y="-200" on="1"/>
      </contour>
    </TTGlyph>
    <TTGlyph name="bar" xMin="112" yMin="-200" xMax="172" yMax="749">
      <contour>
        <pt x="172" y="749" on="1"/>
        <pt x="172" y="-200" on="1"/>
        <pt x="112" y="-200" on="1"/>
        <pt x="112" y="749" on="1"/>
      </contour>
    </TTGlyph>
    <TTGlyph name="braceleft" xMin="61" yMin="-250" xMax="353" yMax="749">
      <contour>
        <pt x="177" y="96" on="1"/>
        <pt x="177" y="215" on="0"/>
        <pt x="68" y="221" on="1"/>
        <pt x="61" y="221" on="1"/>
        <pt x="61" y="278" on="1"/>
        <pt x="177" y="278" on="0"/>
        <pt x="177" y="378" on="1"/>
        <pt x="177" y="613" on="1"/>
        <pt x="177" y="748" on="0"/>
        <pt x="340" y="748" on="1"/>
        <pt x="346" y="748" on="0"/>
        <pt x="353" y="748" on="1"/>
        <pt x="353" y="691" on="1"/>
        <pt x="349" y="691" on="0"/>
        <pt x="339" y="691" on="1"/>
        <pt x="303" y="691" on="0"/>
        <pt x="276" y="673" on="1"/>
        <pt x="237" y="647" on="0"/>
        <pt x="237" y="591" on="1"/>
        <pt x="237" y="381" on="1"/>
        <pt x="237" y="288" on="0"/>
        <pt x="180" y="249" on="1"/>
        <pt x="237" y="210" on="0"/>
        <pt x="237" y="118" on="1"/>
        <pt x="237" y="-92" on="1"/>
        <pt x="237" y="-149" on="0"/>
        <pt x="276" y="-175" on="1"/>
        <pt x="301" y="-192" on="0"/>
        <pt x="344" y="-192" on="1"/>
        <pt x="349" y="-192" on="0"/>
        <pt x="353" y="-192" on="1"/>
        <pt x="353" y="-249" on="1"/>
        <pt x="344" y="-250" on="0"/>
        <pt x="330" y="-250" on="1"/>
        <pt x="276" y="-250" on="0"/>
        <pt x="238" y="-230" on="1"/>
        <pt x="177" y="-198" on="0"/>
        <pt x="177" y="-114" on="1"/>
      </contour>
    </TTGlyph>
    <TTGlyph name="braceright" xMin="61" yMin="-250" xMax="353" yMax="749">
      <contour>
        <pt x="237" y="378" on="1"/>
        <pt x="237" y="278" on="0"/>
        <pt x="353" y="278" on="1"/>
        <pt x="353" y="221" on="1"/>
        <pt x="346" y="221" on="1"/>
        <pt x="297" y="218" on="0"/>
        <pt x="277" y="200" on="1"/>
        <pt x="237" y="164" on="0"/>
        <pt x="237" y="96" on="1"/>
        <pt x="237" y="-114" on="1"/>
        <pt x="237" y="-198" on="0"/>
        <pt x="176" y="-230" on="1"/>
        <pt x="138" y="-250" on="0"/>
        <pt x="81" y="-250" on="1"/>
        <pt x="70" y="-250" on="0"/>
        <pt x="61" y="-249" on="1"/>
        <pt x="61" y="-192" on="1"/>
        <pt x="65" y="-192" on="0"/>
        <pt x="75" y="-192" on="1"/>
        <pt x="113" y="-192" on="0"/>
        <pt x="138" y="-175" on="1"/>
        <pt x="177" y="-149" on="0"/>
        <pt x="177" y="-92" on="1"/>
        <pt x="177" y="118" on="1"/>
        <pt x="177" y="210" on="0"/>
        <pt x="234" y="249" on="1"/>
        <pt x="177" y="288" on="0"/>
        <pt x="177" y="381" on="1"/>
        <pt x="177" y="591" on="1"/>
        <pt x="177" y="647" on="0"/>
        <pt x="138" y="673" on="1"/>
        <pt x="111" y="691" on="0"/>
        <pt x="69" y="691" on="1"/>
        <pt x="65" y="691" on="0"/>
        <pt x="61" y="691" on="1"/>
        <pt x="61" y="748" on="1"/>
        <pt x="68" y="748" on="0"/>
        <pt x="74" y="748" on="1"/>
        <pt x="237" y="748" on="0"/>
        <pt x="237" y="613" on="1"/>
      </contour>
    </TTGlyph>
    <TTGlyph name="bracketleft" xMin="107" yMin="-201" xMax="300" yMax="750">
      <contour>
        <pt x="138" y="-200" on="1"/>
        <pt x="107" y="-200" on="1"/>
        <pt x="107" y="750" on="1"/>
        <pt x="172" y="750" on="1"/>
        <pt x="172" y="749" on="1"/>
        <pt x="300" y="749" on="1"/>
        <pt x="300" y="691" on="1"/>
        <pt x="172" y="691" on="1"/>
        <pt x="172" y="-143" on="1"/>
        <pt x="300" y="-143" on="1"/>
        <pt x="300" y="-201" on="1"/>
        <pt x="138" y="-201" on="1"/>
      </contour>
    </TTGlyph>
    <TTGlyph name="bracketright" xMin="107" yMin="-201" xMax="300" yMax="750">
      <contour>
        <pt x="269" y="-201" on="1"/>
        <pt x="107" y="-201" on="1"/>
        <pt x="107" y="-143" on="1"/>
        <pt x="235" y="-143" on="1"/>
        <pt x="235" y="691" on="1"/>
        <pt x="107" y="691" on="1"/>
        <pt x="107" y="749" on="1"/>
        <pt x="235" y="749" on="1"/>
        <pt x="235" y="750" on="1"/>
        <pt x="300" y="750" on="1"/>
        <pt x="300" y="-200" on="1"/>
        <pt x="269" y="-200" on="1"/>
      </contour>
    </TTGlyph>
    <TTGlyph name="breve" xMin="100" yMin="599" xMax="400" yMax="700">
      <contour>
        <pt x="110" y="700" on="1"/>
        <pt x="113" y="673" on="0"/>
        <pt x="128" y="654" on="1"/>
        <pt x="164" y="608" on="0"/>
        <pt x="242" y="608" on="1"/>
        <pt x="342" y="608" on="0"/>
        <pt x="375" y="655" on="1"/>
        <pt x="389" y="675" on="0"/>
        <pt x="390" y="700" on="1"/>
        <pt x="400" y="700" on="1"/>
        <pt x="398" y="647" on="0"/>
        <pt x="340" y="616" on="1"/>
        <pt x="308" y="600" on="0"/>
        <pt x="242" y="600" on="1"/>
        <pt x="157" y="600" on="0"/>
        <pt x="119" y="649" on="1"/>
        <pt x="102" y="671" on="0"/>
        <pt x="100" y="700" on="1"/>
      </contour>
    </TTGlyph>
    <TTGlyph name="brokenbar" xMin="112" yMin="-200" xMax="172" yMax="749">
      <contour>
        <pt x="172" y="200" on="1"/>
        <pt x="172" y="-200" on="1"/>
        <pt x="112" y="-200" on="1"/>
        <pt x="112" y="200" on="1"/>
      </contour>
      <contour>
        <pt x="112" y="400" on="1"/>
        <pt x="112" y="749" on="1"/>
        <pt x="172" y="749" on="1"/>
        <pt x="172" y="400" on="1"/>
      </contour>
    </TTGlyph>
    <TTGlyph name="bullet" xMin="103" yMin="293" xMax="358" yMax="557">
      <contour>
        <pt x="113" y="366" on="1"/>
        <pt x="103" y="391" on="0"/>
        <pt x="103" y="422" on="1"/>
        <pt x="103" y="481" on="0"/>
        <pt x="176" y="557" on="0"/>
        <pt x="230" y="557" on="1"/>
        <pt x="285" y="557" on="0"/>
        <pt x="358" y="488" on="0"/>
        <pt x="358" y="368" on="0"/>
        <pt x="283" y="293" on="0"/>
        <pt x="230" y="293" on="1"/>
        <pt x="143" y="293" on="0"/>
      </contour>
    </TTGlyph>
    <TTGlyph name="c" xMin="50" yMin="-4" xMax="449" yMax="506">
      <contour>
        <pt x="391" y="433" on="1"/>
        <pt x="350" y="446" on="0"/>
        <pt x="307" y="446" on="1"/>
        <pt x="220" y="446" on="0"/>
        <pt x="115" y="334" on="0"/>
        <pt x="115" y="232" on="1"/>
        <pt x="115" y="54" on="0"/>
        <pt x="280" y="54" on="1"/>
        <pt x="346" y="54" on="0"/>
        <pt x="416" y="76" on="1"/>
        <pt x="430" y="80" on="0"/>
        <pt x="433" y="82" on="1"/>
        <pt x="449" y="28" on="1"/>
        <pt x="414" y="7" on="0"/>
        <pt x="322" y="-2" on="1"/>
        <pt x="296" y="-4" on="0"/>
        <pt x="267" y="-4" on="1"/>
        <pt x="182" y="-4" on="0"/>
        <pt x="127" y="38" on="1"/>
        <pt x="50" y="96" on="0"/>
        <pt x="50" y="362" on="0"/>
        <pt x="193" y="505" on="0"/>
        <pt x="306" y="505" on="1"/>
        <pt x="342" y="505" on="0"/>
        <pt x="423" y="486" on="0"/>
        <pt x="445" y="466" on="1"/>
        <pt x="445" y="335" on="1"/>
        <pt x="396" y="328" on="1"/>
      </contour>
    </TTGlyph>
    <TTGlyph name="ccedilla" xMin="50" yMin="-139" xMax="449" yMax="506">
      <contour>
        <pt x="202" y="-118" on="1"/>
        <pt x="245" y="-104" on="0"/>
        <pt x="274" y="-68" on="0"/>
        <pt x="277" y="-43" on="0"/>
        <pt x="277" y="-23" on="0"/>
        <pt x="271" y="-4" on="1"/>
        <pt x="126" y="-4" on="0"/>
        <pt x="72" y="109" on="1"/>
        <pt x="50" y="155" on="0"/>
        <pt x="50" y="228" on="1"/>
        <pt x="50" y="362" on="0"/>
        <pt x="193" y="505" on="0"/>
        <pt x="306" y="505" on="1"/>
        <pt x="342" y="505" on="0"/>
        <pt x="423" y="486" on="0"/>
        <pt x="445" y="466" on="1"/>
        <pt x="445" y="335" on="1"/>
        <pt x="396" y="328" on="1"/>
        <pt x="391" y="433" on="1"/>
        <pt x="350" y="446" on="0"/>
        <pt x="307" y="446" on="1"/>
        <pt x="220" y="446" on="0"/>
        <pt x="115" y="334" on="0"/>
        <pt x="115" y="232" on="1"/>
        <pt x="115" y="54" on="0"/>
        <pt x="280" y="54" on="1"/>
        <pt x="346" y="54" on="0"/>
        <pt x="416" y="76" on="1"/>
        <pt x="430" y="80" on="0"/>
        <pt x="433" y="82" on="1"/>
        <pt x="449" y="28" on="1"/>
        <pt x="429" y="16" on="0"/>
        <pt x="348" y="1" on="0"/>
        <pt x="315" y="-2" on="0"/>
        <pt x="308" y="-3" on="1"/>
        <pt x="313" y="-18" on="0"/>
        <pt x="313" y="-28" on="1"/>
        <pt x="313" y="-61" on="0"/>
        <pt x="294" y="-87" on="1"/>
        <pt x="265" y="-126" on="0"/>
        <pt x="212" y="-139" on="1"/>
      </contour>
    </TTGlyph>
    <TTGlyph name="cedilla" xMin="58" yMin="-139" xMax="170" yMax="6">
      <contour>
        <pt x="129" y="0" on="1"/>
        <pt x="161" y="6" on="1"/>
        <pt x="169" y="-14" on="0"/>
        <pt x="169" y="-26" on="1"/>
        <pt x="169" y="-61" on="0"/>
        <pt x="150" y="-87" on="1"/>
        <pt x="121" y="-126" on="0"/>
        <pt x="68" y="-139" on="1"/>
        <pt x="58" y="-118" on="1"/>
        <pt x="101" y="-104" on="0"/>
        <pt x="133" y="-64" on="0"/>
        <pt x="133" y="-23" on="0"/>
        <pt x="126" y="0" on="1"/>
      </contour>
    </TTGlyph>
    <TTGlyph name="cent" xMin="50" yMin="-100" xMax="449" yMax="600">
      <contour>
        <pt x="391" y="433" on="1"/>
        <pt x="387" y="434" on="0"/>
        <pt x="345" y="446" on="0"/>
        <pt x="305" y="446" on="1"/>
        <pt x="294" y="446" on="1"/>
        <pt x="294" y="54" on="1"/>
        <pt x="357" y="57" on="0"/>
        <pt x="416" y="76" on="1"/>
        <pt x="430" y="80" on="0"/>
        <pt x="433" y="82" on="1"/>
        <pt x="449" y="28" on="1"/>
        <pt x="429" y="16" on="0"/>
        <pt x="327" y="-3" on="0"/>
        <pt x="294" y="-3" on="1"/>
        <pt x="294" y="-100" on="1"/>
        <pt x="264" y="-100" on="1"/>
        <pt x="264" y="-4" on="1"/>
        <pt x="179" y="-1" on="0"/>
        <pt x="127" y="38" on="1"/>
        <pt x="50" y="96" on="0"/>
        <pt x="50" y="362" on="0"/>
        <pt x="122" y="434" on="1"/>
        <pt x="180" y="492" on="0"/>
        <pt x="264" y="502" on="1"/>
        <pt x="264" y="600" on="1"/>
        <pt x="294" y="600" on="1"/>
        <pt x="294" y="505" on="1"/>
        <pt x="298" y="505" on="0"/>
        <pt x="340" y="505" on="0"/>
        <pt x="423" y="486" on="0"/>
        <pt x="445" y="466" on="1"/>
        <pt x="445" y="345" on="1"/>
        <pt x="396" y="338" on="1"/>
      </contour>
      <contour>
        <pt x="171" y="86" on="1"/>
        <pt x="195" y="67" on="0"/>
        <pt x="244" y="56" on="0"/>
        <pt x="264" y="54" on="1"/>
        <pt x="264" y="442" on="1"/>
        <pt x="246" y="438" on="0"/>
        <pt x="194" y="418" on="0"/>
        <pt x="168" y="391" on="1"/>
        <pt x="115" y="334" on="0"/>
        <pt x="115" y="129" on="0"/>
      </contour>
    </TTGlyph>
    <TTGlyph name="circumflex" xMin="116" yMin="571" xMax="450" yMax="761">
      <contour>
        <pt x="416" y="571" on="1"/>
        <pt x="282" y="704" on="1"/>
        <pt x="150" y="571" on="1"/>
        <pt x="116" y="600" on="1"/>
        <pt x="283" y="761" on="1"/>
        <pt x="329" y="715" on="0"/>
        <pt x="382" y="665" on="0"/>
        <pt x="443" y="606" on="0"/>
        <pt x="450" y="600" on="1"/>
      </contour>
    </TTGlyph>
    <TTGlyph name="colon" xMin="79" yMin="-8" xMax="149" yMax="473">
      <contour>
        <pt x="94" y="-8" on="0"/>
        <pt x="79" y="12" on="0"/>
        <pt x="79" y="48" on="0"/>
        <pt x="98" y="70" on="0"/>
        <pt x="116" y="70" on="1"/>
        <pt x="149" y="70" on="0"/>
        <pt x="149" y="29" on="1"/>
        <pt x="149" y="12" on="0"/>
        <pt x="128" y="-8" on="0"/>
      </contour>
      <contour>
        <pt x="94" y="395" on="0"/>
        <pt x="79" y="415" on="0"/>
        <pt x="79" y="451" on="0"/>
        <pt x="98" y="473" on="0"/>
        <pt x="116" y="473" on="1"/>
        <pt x="149" y="473" on="0"/>
        <pt x="149" y="432" on="1"/>
        <pt x="149" y="415" on="0"/>
        <pt x="128" y="395" on="0"/>
      </contour>
    </TTGlyph>
    <TTGlyph name="comma" xMin="13" yMin="-103" xMax="87" yMax="65">
      <contour>
        <pt x="33" y="65" on="1"/>
        <pt x="33" y="65" on="0"/>
        <pt x="87" y="64" on="1"/>
        <pt x="87" y="10" on="0"/>
        <pt x="63" y="-86" on="1"/>
        <pt x="59" y="-103" on="1"/>
        <pt x="13" y="-101" on="1"/>
        <pt x="13" y="-100" on="0"/>
        <pt x="33" y="19" on="0"/>
        <pt x="33" y="61" on="0"/>
      </contour>
    </TTGlyph>
    <TTGlyph name="copyright" xMin="85" yMin="-5" xMax="703" yMax="625">
      <contour>
        <pt x="85" y="450" on="0"/>
        <pt x="263" y="625" on="0"/>
        <pt x="394" y="625" on="1"/>
        <pt x="530" y="625" on="0"/>
        <pt x="703" y="462" on="0"/>
        <pt x="703" y="170" on="0"/>
        <pt x="525" y="-5" on="0"/>
        <pt x="394" y="-5" on="1"/>
        <pt x="259" y="-5" on="0"/>
        <pt x="85" y="157" on="0"/>
      </contour>
      <contour>
        <pt x="115" y="178" on="0"/>
        <pt x="274" y="23" on="0"/>
        <pt x="394" y="23" on="1"/>
        <pt x="511" y="23" on="0"/>
        <pt x="673" y="185" on="0"/>
        <pt x="673" y="443" on="0"/>
        <pt x="512" y="597" on="0"/>
        <pt x="394" y="597" on="1"/>
        <pt x="277" y="597" on="0"/>
        <pt x="115" y="435" on="0"/>
      </contour>
      <contour>
        <pt x="495" y="146" on="1"/>
        <pt x="457" y="122" on="0"/>
        <pt x="374" y="122" on="1"/>
        <pt x="316" y="122" on="0"/>
        <pt x="280" y="153" on="1"/>
        <pt x="229" y="197" on="0"/>
        <pt x="229" y="397" on="0"/>
        <pt x="324" y="507" on="0"/>
        <pt x="401" y="507" on="1"/>
        <pt x="426" y="507" on="0"/>
        <pt x="479" y="491" on="0"/>
        <pt x="492" y="477" on="1"/>
        <pt x="492" y="398" on="1"/>
        <pt x="465" y="396" on="1"/>
        <pt x="462" y="466" on="1"/>
        <pt x="436" y="477" on="0"/>
        <pt x="404" y="477" on="1"/>
        <pt x="342" y="477" on="0"/>
        <pt x="267" y="385" on="0"/>
        <pt x="267" y="211" on="0"/>
        <pt x="306" y="176" on="1"/>
        <pt x="334" y="152" on="0"/>
        <pt x="419" y="152" on="0"/>
        <pt x="480" y="168" on="0"/>
        <pt x="488" y="173" on="1"/>
      </contour>
    </TTGlyph>
    <TTGlyph name="currency" xMin="89" yMin="236" xMax="515" yMax="663">
      <contour>
        <pt x="134" y="324" on="1"/>
        <pt x="100" y="373" on="0"/>
        <pt x="100" y="516" on="0"/>
        <pt x="138" y="572" on="1"/>
        <pt x="90" y="620" on="1"/>
        <pt x="131" y="661" on="1"/>
        <pt x="179" y="613" on="1"/>
        <pt x="236" y="650" on="0"/>
        <pt x="376" y="650" on="0"/>
        <pt x="425" y="615" on="1"/>
        <pt x="473" y="663" on="1"/>
        <pt x="515" y="621" on="1"/>
        <pt x="466" y="572" on="1"/>
        <pt x="500" y="524" on="0"/>
        <pt x="500" y="383" on="0"/>
        <pt x="462" y="330" on="1"/>
        <pt x="515" y="277" on="1"/>
        <pt x="474" y="236" on="1"/>
        <pt x="421" y="288" on="1"/>
        <pt x="367" y="250" on="0"/>
        <pt x="224" y="250" on="0"/>
        <pt x="177" y="283" on="1"/>
        <pt x="131" y="237" on="1"/>
        <pt x="89" y="279" on="1"/>
      </contour>
      <contour>
        <pt x="160" y="384" on="0"/>
        <pt x="240" y="308" on="0"/>
        <pt x="300" y="308" on="1"/>
        <pt x="359" y="308" on="0"/>
        <pt x="440" y="392" on="0"/>
        <pt x="440" y="516" on="0"/>
        <pt x="360" y="592" on="0"/>
        <pt x="300" y="592" on="1"/>
        <pt x="241" y="592" on="0"/>
        <pt x="160" y="508" on="0"/>
      </contour>
    </TTGlyph>
    <TTGlyph name="d" xMin="70" yMin="-4" xMax="495" yMax="750">
      <contour>
        <pt x="318" y="505" on="1"/>
        <pt x="377" y="505" on="0"/>
        <pt x="430" y="470" on="1"/>
        <pt x="430" y="745" on="1"/>
        <pt x="495" y="750" on="1"/>
        <pt x="495" y="23" on="1"/>
        <pt x="490" y="23" on="1"/>
        <pt x="459" y="10" on="0"/>
        <pt x="314" y="-4" on="0"/>
        <pt x="286" y="-4" on="1"/>
        <pt x="202" y="-4" on="0"/>
        <pt x="147" y="38" on="1"/>
        <pt x="70" y="96" on="0"/>
        <pt x="70" y="362" on="0"/>
        <pt x="213" y="505" on="0"/>
      </contour>
      <contour>
        <pt x="430" y="427" on="1"/>
        <pt x="380" y="446" on="0"/>
        <pt x="332" y="446" on="1"/>
        <pt x="240" y="446" on="0"/>
        <pt x="135" y="334" on="0"/>
        <pt x="135" y="128" on="0"/>
        <pt x="192" y="86" on="1"/>
        <pt x="233" y="54" on="0"/>
        <pt x="358" y="54" on="0"/>
        <pt x="430" y="64" on="1"/>
      </contour>
    </TTGlyph>
    <TTGlyph name="degree" xMin="90" yMin="513" xMax="287" yMax="710">
      <contour>
        <pt x="148" y="513" on="0"/>
        <pt x="90" y="560" on="0"/>
        <pt x="90" y="656" on="0"/>
        <pt x="148" y="710" on="0"/>
        <pt x="230" y="710" on="0"/>
        <pt x="287" y="663" on="0"/>
        <pt x="287" y="567" on="0"/>
        <pt x="230" y="513" on="0"/>
      </contour>
      <contour>
        <pt x="159" y="682" on="0"/>
        <pt x="120" y="640" on="0"/>
        <pt x="120" y="577" on="0"/>
        <pt x="159" y="541" on="0"/>
        <pt x="188" y="541" on="1"/>
        <pt x="217" y="541" on="0"/>
        <pt x="257" y="582" on="0"/>
        <pt x="257" y="646" on="0"/>
        <pt x="217" y="682" on="0"/>
        <pt x="188" y="682" on="1"/>
      </contour>
    </TTGlyph>
    <TTGlyph name="dieresis" xMin="109" yMin="570" xMax="402" yMax="650">
      <contour>
        <pt x="129" y="570" on="0"/>
        <pt x="109" y="593" on="0"/>
        <pt x="109" y="629" on="0"/>
        <pt x="130" y="650" on="0"/>
        <pt x="165" y="650" on="0"/>
        <pt x="186" y="629" on="0"/>
        <pt x="186" y="590" on="0"/>
        <pt x="164" y="570" on="0"/>
      </contour>
      <contour>
        <pt x="344" y="570" on="0"/>
        <pt x="325" y="593" on="0"/>
        <pt x="325" y="629" on="0"/>
        <pt x="345" y="650" on="0"/>
        <pt x="362" y="650" on="1"/>
        <pt x="402" y="650" on="0"/>
        <pt x="402" y="610" on="1"/>
        <pt x="402" y="590" on="0"/>
        <pt x="379" y="570" on="0"/>
      </contour>
    </TTGlyph>
    <TTGlyph name="divide" xMin="146" yMin="48" xMax="600" yMax="468">
      <contour>
        <pt x="377" y="48" on="1"/>
        <pt x="333" y="48" on="0"/>
        <pt x="333" y="95" on="1"/>
        <pt x="333" y="117" on="0"/>
        <pt x="357" y="144" on="0"/>
        <pt x="403" y="144" on="0"/>
        <pt x="420" y="117" on="0"/>
        <pt x="420" y="95" on="1"/>
        <pt x="420" y="73" on="0"/>
        <pt x="394" y="48" on="0"/>
      </contour>
      <contour>
        <pt x="377" y="372" on="1"/>
        <pt x="333" y="372" on="0"/>
        <pt x="333" y="418" on="1"/>
        <pt x="333" y="440" on="0"/>
        <pt x="357" y="468" on="0"/>
        <pt x="403" y="468" on="0"/>
        <pt x="420" y="440" on="0"/>
        <pt x="420" y="418" on="1"/>
        <pt x="420" y="396" on="0"/>
        <pt x="394" y="372" on="0"/>
      </contour>
      <contour>
        <pt x="600" y="290" on="1"/>
        <pt x="600" y="232" on="1"/>
        <pt x="146" y="232" on="1"/>
        <pt x="146" y="290" on="1"/>
      </contour>
    </TTGlyph>
    <TTGlyph name="dollar" xMin="65" yMin="-100" xMax="489" yMax="700">
      <contour>
        <pt x="440" y="531" on="1"/>
        <pt x="344" y="547" on="0"/>
        <pt x="306" y="547" on="1"/>
        <pt x="301" y="547" on="1"/>
        <pt x="301" y="334" on="1"/>
        <pt x="389" y="311" on="0"/>
        <pt x="456" y="265" on="0"/>
        <pt x="489" y="208" on="0"/>
        <pt x="489" y="166" on="1"/>
        <pt x="489" y="88" on="0"/>
        <pt x="384" y="4" on="0"/>
        <pt x="301" y="-3" on="1"/>
        <pt x="301" y="-100" on="1"/>
        <pt x="266" y="-100" on="1"/>
        <pt x="266" y="-4" on="1"/>
        <pt x="122" y="4" on="0"/>
        <pt x="65" y="52" on="1"/>
        <pt x="86" y="97" on="1"/>
        <pt x="126" y="63" on="0"/>
        <pt x="216" y="52" on="1"/>
        <pt x="242" y="49" on="0"/>
        <pt x="264" y="49" on="1"/>
        <pt x="266" y="49" on="1"/>
        <pt x="266" y="288" on="1"/>
        <pt x="177" y="312" on="0"/>
        <pt x="116" y="351" on="0"/>
        <pt x="84" y="401" on="0"/>
        <pt x="84" y="440" on="1"/>
        <pt x="84" y="509" on="0"/>
        <pt x="182" y="593" on="0"/>
        <pt x="266" y="599" on="1"/>
        <pt x="266" y="700" on="1"/>
        <pt x="301" y="700" on="1"/>
        <pt x="301" y="600" on="1"/>
        <pt x="357" y="598" on="0"/>
        <pt x="452" y="582" on="1"/>
      </contour>
      <contour>
        <pt x="419" y="116" on="1"/>
        <pt x="429" y="135" on="0"/>
        <pt x="429" y="162" on="1"/>
        <pt x="429" y="209" on="0"/>
        <pt x="390" y="238" on="1"/>
        <pt x="365" y="258" on="0"/>
        <pt x="301" y="278" on="1"/>
        <pt x="301" y="51" on="1"/>
        <pt x="391" y="61" on="0"/>
      </contour>
      <contour>
        <pt x="149" y="446" on="1"/>
        <pt x="149" y="388" on="0"/>
        <pt x="220" y="360" on="1"/>
        <pt x="242" y="351" on="0"/>
        <pt x="266" y="344" on="1"/>
        <pt x="266" y="544" on="1"/>
        <pt x="209" y="537" on="0"/>
        <pt x="149" y="487" on="0"/>
      </contour>
    </TTGlyph>
    <TTGlyph name="dotaccent" xMin="129" yMin="600" xMax="156" yMax="629">
      <contour>
        <pt x="142" y="629" on="1"/>
        <pt x="156" y="629" on="0"/>
        <pt x="156" y="600" on="0"/>
        <pt x="129" y="600" on="0"/>
        <pt x="129" y="614" on="1"/>
        <pt x="129" y="620" on="0"/>
        <pt x="137" y="629" on="0"/>
      </contour>
    </TTGlyph>
    <TTGlyph name="dotlessi" xMin="137" yMin="0" xMax="147" yMax="500">
      <contour>
        <pt x="147" y="500" on="1"/>
        <pt x="147" y="0" on="1"/>
        <pt x="137" y="0" on="1"/>
        <pt x="137" y="500" on="1"/>
      </contour>
    </TTGlyph>
    <TTGlyph name="e" xMin="55" yMin="-4" xMax="481" yMax="505">
      <contour>
        <pt x="120" y="230" on="1"/>
        <pt x="120" y="54" on="0"/>
        <pt x="288" y="54" on="1"/>
        <pt x="359" y="54" on="0"/>
        <pt x="418" y="73" on="1"/>
        <pt x="433" y="78" on="0"/>
        <pt x="439" y="81" on="1"/>
        <pt x="454" y="28" on="1"/>
        <pt x="419" y="7" on="0"/>
        <pt x="327" y="-2" on="1"/>
        <pt x="301" y="-4" on="0"/>
        <pt x="272" y="-4" on="1"/>
        <pt x="188" y="-4" on="0"/>
        <pt x="132" y="38" on="1"/>
        <pt x="55" y="95" on="0"/>
        <pt x="55" y="361" on="0"/>
        <pt x="194" y="504" on="0"/>
        <pt x="392" y="504" on="0"/>
        <pt x="442" y="440" on="1"/>
        <pt x="480" y="389" on="0"/>
        <pt x="480" y="305" on="1"/>
        <pt x="480" y="285" on="0"/>
        <pt x="478" y="263" on="1"/>
        <pt x="121" y="263" on="1"/>
        <pt x="120" y="255" on="0"/>
        <pt x="120" y="246" on="1"/>
      </contour>
      <contour>
        <pt x="297" y="442" on="1"/>
        <pt x="235" y="442" on="0"/>
        <pt x="147" y="367" on="0"/>
        <pt x="130" y="308" on="1"/>
        <pt x="421" y="308" on="1"/>
        <pt x="416" y="419" on="0"/>
        <pt x="335" y="437" on="1"/>
        <pt x="317" y="442" on="0"/>
      </contour>
    </TTGlyph>
    <TTGlyph name="eacute" xMin="55" yMin="-4" xMax="481" yMax="750">
      <contour>
        <pt x="478" y="263" on="1"/>
        <pt x="480" y="285" on="0"/>
        <pt x="480" y="310" on="1"/>
        <pt x="480" y="389" on="0"/>
        <pt x="442" y="440" on="1"/>
        <pt x="392" y="504" on="0"/>
        <pt x="194" y="504" on="0"/>
        <pt x="55" y="361" on="0"/>
        <pt x="55" y="95" on="0"/>
        <pt x="132" y="38" on="1"/>
        <pt x="188" y="-4" on="0"/>
        <pt x="349" y="-4" on="0"/>
        <pt x="422" y="16" on="1"/>
        <pt x="442" y="21" on="0"/>
        <pt x="454" y="28" on="1"/>
        <pt x="439" y="81" on="1"/>
        <pt x="409" y="66" on="0"/>
        <pt x="312" y="54" on="0"/>
        <pt x="286" y="54" on="1"/>
        <pt x="120" y="54" on="0"/>
        <pt x="120" y="230" on="1"/>
        <pt x="120" y="246" on="1"/>
        <pt x="120" y="255" on="0"/>
        <pt x="121" y="263" on="1"/>
      </contour>
      <contour>
        <pt x="130" y="308" on="1"/>
        <pt x="147" y="367" on="0"/>
        <pt x="235" y="442" on="0"/>
        <pt x="297" y="442" on="1"/>
        <pt x="317" y="442" on="0"/>
        <pt x="335" y="437" on="1"/>
        <pt x="416" y="419" on="0"/>
        <pt x="421" y="308" on="1"/>
      </contour>
      <contour>
        <pt x="447" y="743" on="1"/>
        <pt x="328" y="595" on="1"/>
        <pt x="283" y="603" on="1"/>
        <pt x="387" y="750" on="1"/>
      </contour>
    </TTGlyph>
    <TTGlyph name="ecircumflex" xMin="55" yMin="-4" xMax="481" yMax="761">
      <contour>
        <pt x="120" y="230" on="1"/>
        <pt x="120" y="54" on="0"/>
        <pt x="288" y="54" on="1"/>
        <pt x="359" y="54" on="0"/>
        <pt x="418" y="73" on="1"/>
        <pt x="433" y="78" on="0"/>
        <pt x="439" y="81" on="1"/>
        <pt x="454" y="28" on="1"/>
        <pt x="419" y="7" on="0"/>
        <pt x="327" y="-2" on="1"/>
        <pt x="301" y="-4" on="0"/>
        <pt x="272" y="-4" on="1"/>
        <pt x="188" y="-4" on="0"/>
        <pt x="132" y="38" on="1"/>
        <pt x="55" y="95" on="0"/>
        <pt x="55" y="361" on="0"/>
        <pt x="194" y="504" on="0"/>
        <pt x="392" y="504" on="0"/>
        <pt x="442" y="440" on="1"/>
        <pt x="480" y="389" on="0"/>
        <pt x="480" y="305" on="1"/>
        <pt x="480" y="285" on="0"/>
        <pt x="478" y="263" on="1"/>
        <pt x="121" y="263" on="1"/>
        <pt x="120" y="255" on="0"/>
        <pt x="120" y="246" on="1"/>
      </contour>
      <contour>
        <pt x="297" y="442" on="1"/>
        <pt x="235" y="442" on="0"/>
        <pt x="147" y="367" on="0"/>
        <pt x="130" y="308" on="1"/>
        <pt x="421" y="308" on="1"/>
        <pt x="416" y="419" on="0"/>
        <pt x="335" y="437" on="1"/>
        <pt x="317" y="442" on="0"/>
      </contour>
      <contour>
        <pt x="425" y="571" on="1"/>
        <pt x="291" y="704" on="1"/>
        <pt x="159" y="571" on="1"/>
        <pt x="125" y="600" on="1"/>
        <pt x="292" y="761" on="1"/>
        <pt x="338" y="715" on="0"/>
        <pt x="391" y="665" on="0"/>
        <pt x="452" y="606" on="0"/>
        <pt x="459" y="600" on="1"/>
      </contour>
    </TTGlyph>
    <TTGlyph name="edieresis" xMin="55" yMin="-4" xMax="481" yMax="650">
      <contour>
        <pt x="120" y="230" on="1"/>
        <pt x="120" y="54" on="0"/>
        <pt x="288" y="54" on="1"/>
        <pt x="359" y="54" on="0"/>
        <pt x="418" y="73" on="1"/>
        <pt x="433" y="78" on="0"/>
        <pt x="439" y="81" on="1"/>
        <pt x="454" y="28" on="1"/>
        <pt x="419" y="7" on="0"/>
        <pt x="327" y="-2" on="1"/>
        <pt x="301" y="-4" on="0"/>
        <pt x="272" y="-4" on="1"/>
        <pt x="188" y="-4" on="0"/>
        <pt x="132" y="38" on="1"/>
        <pt x="55" y="95" on="0"/>
        <pt x="55" y="361" on="0"/>
        <pt x="194" y="504" on="0"/>
        <pt x="392" y="504" on="0"/>
        <pt x="442" y="440" on="1"/>
        <pt x="480" y="389" on="0"/>
        <pt x="480" y="305" on="1"/>
        <pt x="480" y="285" on="0"/>
        <pt x="478" y="263" on="1"/>
        <pt x="121" y="263" on="1"/>
        <pt x="120" y="255" on="0"/>
        <pt x="120" y="246" on="1"/>
      </contour>
      <contour>
        <pt x="297" y="442" on="1"/>
        <pt x="235" y="442" on="0"/>
        <pt x="147" y="367" on="0"/>
        <pt x="130" y="308" on="1"/>
        <pt x="421" y="308" on="1"/>
        <pt x="416" y="419" on="0"/>
        <pt x="335" y="437" on="1"/>
        <pt x="317" y="442" on="0"/>
      </contour>
      <contour>
        <pt x="382" y="570" on="0"/>
        <pt x="363" y="593" on="0"/>
        <pt x="363" y="629" on="0"/>
        <pt x="383" y="650" on="0"/>
        <pt x="400" y="650" on="1"/>
        <pt x="440" y="650" on="0"/>
        <pt x="440" y="610" on="1"/>
        <pt x="440" y="590" on="0"/>
        <pt x="417" y="570" on="0"/>
      </contour>
      <contour>
        <pt x="167" y="570" on="0"/>
        <pt x="147" y="593" on="0"/>
        <pt x="147" y="629" on="0"/>
        <pt x="168" y="650" on="0"/>
        <pt x="203" y="650" on="0"/>
        <pt x="224" y="629" on="0"/>
        <pt x="224" y="590" on="0"/>
        <pt x="202" y="570" on="0"/>
      </contour>
    </TTGlyph>
    <TTGlyph name="egrave" xMin="55" yMin="-4" xMax="481" yMax="750">
      <contour>
        <pt x="120" y="230" on="1"/>
        <pt x="120" y="54" on="0"/>
        <pt x="288" y="54" on="1"/>
        <pt x="359" y="54" on="0"/>
        <pt x="418" y="73" on="1"/>
        <pt x="433" y="78" on="0"/>
        <pt x="439" y="81" on="1"/>
        <pt x="454" y="28" on="1"/>
        <pt x="419" y="7" on="0"/>
        <pt x="327" y="-2" on="1"/>
        <pt x="301" y="-4" on="0"/>
        <pt x="272" y="-4" on="1"/>
        <pt x="188" y="-4" on="0"/>
        <pt x="132" y="38" on="1"/>
        <pt x="55" y="95" on="0"/>
        <pt x="55" y="361" on="0"/>
        <pt x="194" y="504" on="0"/>
        <pt x="392" y="504" on="0"/>
        <pt x="442" y="440" on="1"/>
        <pt x="480" y="389" on="0"/>
        <pt x="480" y="305" on="1"/>
        <pt x="480" y="285" on="0"/>
        <pt x="478" y="263" on="1"/>
        <pt x="121" y="263" on="1"/>
        <pt x="120" y="255" on="0"/>
        <pt x="120" y="246" on="1"/>
      </contour>
      <contour>
        <pt x="297" y="442" on="1"/>
        <pt x="235" y="442" on="0"/>
        <pt x="147" y="367" on="0"/>
        <pt x="130" y="308" on="1"/>
        <pt x="421" y="308" on="1"/>
        <pt x="416" y="419" on="0"/>
        <pt x="335" y="437" on="1"/>
        <pt x="317" y="442" on="0"/>
      </contour>
      <contour>
        <pt x="266" y="595" on="1"/>
        <pt x="148" y="743" on="1"/>
        <pt x="208" y="750" on="1"/>
        <pt x="312" y="603" on="1"/>
      </contour>
    </TTGlyph>
    <TTGlyph name="eight" xMin="86" yMin="-4" xMax="532" yMax="666">
      <contour>
        <pt x="199" y="382" on="1"/>
        <pt x="124" y="423" on="0"/>
        <pt x="124" y="512" on="1"/>
        <pt x="124" y="666" on="0"/>
        <pt x="308" y="666" on="1"/>
        <pt x="409" y="666" on="0"/>
        <pt x="494" y="584" on="0"/>
        <pt x="494" y="518" on="1"/>
        <pt x="494" y="428" on="0"/>
        <pt x="417" y="367" on="1"/>
        <pt x="532" y="319" on="0"/>
        <pt x="532" y="173" on="1"/>
        <pt x="532" y="115" on="0"/>
        <pt x="496" y="68" on="1"/>
        <pt x="439" y="-4" on="0"/>
        <pt x="308" y="-4" on="1"/>
        <pt x="177" y="-4" on="0"/>
        <pt x="122" y="68" on="1"/>
        <pt x="86" y="115" on="0"/>
        <pt x="86" y="165" on="1"/>
        <pt x="86" y="247" on="0"/>
        <pt x="143" y="340" on="0"/>
      </contour>
      <contour>
        <pt x="239" y="365" on="1"/>
        <pt x="151" y="295" on="0"/>
        <pt x="151" y="173" on="1"/>
        <pt x="151" y="96" on="0"/>
        <pt x="222" y="65" on="1"/>
        <pt x="258" y="49" on="0"/>
        <pt x="311" y="49" on="1"/>
        <pt x="403" y="49" on="0"/>
        <pt x="443" y="101" on="1"/>
        <pt x="467" y="132" on="0"/>
        <pt x="467" y="231" on="0"/>
        <pt x="424" y="297" on="0"/>
        <pt x="357" y="333" on="0"/>
        <pt x="276" y="352" on="0"/>
      </contour>
      <contour>
        <pt x="315" y="613" on="1"/>
        <pt x="189" y="613" on="0"/>
        <pt x="189" y="516" on="1"/>
        <pt x="189" y="427" on="0"/>
        <pt x="306" y="400" on="1"/>
        <pt x="339" y="393" on="0"/>
        <pt x="373" y="383" on="1"/>
        <pt x="409" y="419" on="0"/>
        <pt x="417" y="471" on="1"/>
        <pt x="426" y="496" on="0"/>
        <pt x="426" y="535" on="0"/>
        <pt x="425" y="545" on="1"/>
        <pt x="416" y="573" on="0"/>
        <pt x="399" y="586" on="1"/>
        <pt x="363" y="613" on="0"/>
      </contour>
    </TTGlyph>
    <TTGlyph name="ellipsis" xMin="29" yMin="-8" xMax="350" yMax="70">
      <contour>
        <pt x="44" y="-8" on="0"/>
        <pt x="29" y="12" on="0"/>
        <pt x="29" y="48" on="0"/>
        <pt x="48" y="70" on="0"/>
        <pt x="66" y="70" on="1"/>
        <pt x="99" y="70" on="0"/>
        <pt x="99" y="29" on="1"/>
        <pt x="99" y="12" on="0"/>
        <pt x="78" y="-8" on="0"/>
      </contour>
      <contour>
        <pt x="188" y="-8" on="1"/>
        <pt x="155" y="-8" on="0"/>
        <pt x="155" y="70" on="0"/>
        <pt x="193" y="70" on="1"/>
        <pt x="226" y="70" on="0"/>
        <pt x="226" y="30" on="1"/>
        <pt x="226" y="12" on="0"/>
        <pt x="205" y="-8" on="0"/>
      </contour>
      <contour>
        <pt x="312" y="-8" on="1"/>
        <pt x="279" y="-8" on="0"/>
        <pt x="279" y="70" on="0"/>
        <pt x="317" y="70" on="1"/>
        <pt x="350" y="70" on="0"/>
        <pt x="350" y="30" on="1"/>
        <pt x="350" y="12" on="0"/>
        <pt x="329" y="-8" on="0"/>
      </contour>
    </TTGlyph>
    <TTGlyph name="emdash" xMin="80" yMin="232" xMax="634" yMax="290">
      <contour>
        <pt x="634" y="290" on="1"/>
        <pt x="634" y="232" on="1"/>
        <pt x="80" y="232" on="1"/>
        <pt x="80" y="290" on="1"/>
      </contour>
    </TTGlyph>
    <TTGlyph name="endash" xMin="80" yMin="232" xMax="534" yMax="290">
      <contour>
        <pt x="534" y="290" on="1"/>
        <pt x="534" y="232" on="1"/>
        <pt x="80" y="232" on="1"/>
        <pt x="80" y="290" on="1"/>
      </contour>
    </TTGlyph>
    <TTGlyph name="equal" xMin="146" yMin="103" xMax="600" yMax="383">
      <contour>
        <pt x="600" y="383" on="1"/>
        <pt x="600" y="325" on="1"/>
        <pt x="146" y="325" on="1"/>
        <pt x="146" y="383" on="1"/>
      </contour>
      <contour>
        <pt x="600" y="161" on="1"/>
        <pt x="600" y="103" on="1"/>
        <pt x="146" y="103" on="1"/>
        <pt x="146" y="161" on="1"/>
      </contour>
    </TTGlyph>
    <TTGlyph name="eth" xMin="75" yMin="-4" xMax="550" yMax="781">
      <contour>
        <pt x="131" y="750" on="1"/>
        <pt x="193" y="725" on="0"/>
        <pt x="247" y="697" on="1"/>
        <pt x="311" y="781" on="1"/>
        <pt x="336" y="761" on="1"/>
        <pt x="275" y="682" on="1"/>
        <pt x="290" y="673" on="0"/>
        <pt x="353" y="634" on="0"/>
        <pt x="397" y="596" on="1"/>
        <pt x="550" y="466" on="0"/>
        <pt x="550" y="270" on="1"/>
        <pt x="550" y="135" on="0"/>
        <pt x="415" y="-4" on="0"/>
        <pt x="305" y="-4" on="1"/>
        <pt x="147" y="-4" on="0"/>
        <pt x="94" y="128" on="1"/>
        <pt x="75" y="173" on="0"/>
        <pt x="75" y="238" on="1"/>
        <pt x="75" y="364" on="0"/>
        <pt x="212" y="504" on="0"/>
        <pt x="314" y="504" on="1"/>
        <pt x="369" y="504" on="0"/>
        <pt x="406" y="483" on="1"/>
        <pt x="414" y="478" on="0"/>
        <pt x="422" y="473" on="1"/>
        <pt x="367" y="572" on="0"/>
        <pt x="247" y="646" on="1"/>
        <pt x="173" y="549" on="1"/>
        <pt x="148" y="569" on="1"/>
        <pt x="219" y="661" on="1"/>
        <pt x="172" y="686" on="0"/>
        <pt x="115" y="704" on="1"/>
      </contour>
      <contour>
        <pt x="467" y="359" on="1"/>
        <pt x="407" y="446" on="0"/>
        <pt x="316" y="446" on="1"/>
        <pt x="240" y="446" on="0"/>
        <pt x="140" y="339" on="0"/>
        <pt x="140" y="153" on="0"/>
        <pt x="235" y="54" on="0"/>
        <pt x="386" y="54" on="0"/>
        <pt x="481" y="157" on="0"/>
        <pt x="485" y="256" on="1"/>
        <pt x="485" y="305" on="0"/>
        <pt x="470" y="362" on="1"/>
      </contour>
    </TTGlyph>
    <TTGlyph name="exclam" xMin="110" yMin="-22" xMax="176" yMax="700">
      <contour>
        <pt x="172" y="129" on="1"/>
        <pt x="112" y="129" on="1"/>
        <pt x="112" y="695" on="1"/>
        <pt x="172" y="700" on="1"/>
      </contour>
      <contour>
        <pt x="162" y="48" on="1"/>
        <pt x="138" y="48" on="0"/>
        <pt x="110" y="16" on="0"/>
        <pt x="110" y="-22" on="0"/>
        <pt x="126" y="-22" on="1"/>
        <pt x="145" y="-22" on="0"/>
        <pt x="175" y="8" on="0"/>
        <pt x="175" y="48" on="0"/>
      </contour>
    </TTGlyph>
    <TTGlyph name="exclamdown" xMin="108" yMin="-200" xMax="174" yMax="522">
      <contour>
        <pt x="170" y="371" on="1"/>
        <pt x="110" y="371" on="1"/>
        <pt x="110" y="-195" on="1"/>
        <pt x="170" y="-200" on="1"/>
      </contour>
      <contour>
        <pt x="160" y="452" on="1"/>
        <pt x="136" y="452" on="0"/>
        <pt x="108" y="484" on="0"/>
        <pt x="108" y="522" on="0"/>
        <pt x="124" y="522" on="1"/>
        <pt x="143" y="522" on="0"/>
        <pt x="173" y="492" on="0"/>
        <pt x="173" y="452" on="0"/>
      </contour>
    </TTGlyph>
    <TTGlyph name="f" xMin="40" yMin="0" xMax="315" yMax="754">
      <contour>
        <pt x="96" y="618" on="1"/>
        <pt x="96" y="754" on="0"/>
        <pt x="246" y="754" on="1"/>
        <pt x="285" y="754" on="0"/>
        <pt x="315" y="746" on="1"/>
        <pt x="305" y="690" on="1"/>
        <pt x="271" y="695" on="0"/>
        <pt x="224" y="695" on="0"/>
        <pt x="205" y="687" on="1"/>
        <pt x="161" y="667" on="0"/>
        <pt x="161" y="595" on="1"/>
        <pt x="161" y="500" on="1"/>
        <pt x="285" y="500" on="1"/>
        <pt x="285" y="442" on="1"/>
        <pt x="161" y="442" on="1"/>
        <pt x="161" y="0" on="1"/>
        <pt x="96" y="0" on="1"/>
        <pt x="96" y="442" on="1"/>
        <pt x="40" y="442" on="1"/>
        <pt x="49" y="500" on="1"/>
        <pt x="96" y="500" on="1"/>
      </contour>
    </TTGlyph>
    <TTGlyph name="five" xMin="27" yMin="-3" xMax="421" yMax="662">
      <contour>
        <pt x="146" y="52" on="1"/>
        <pt x="353" y="52" on="0"/>
        <pt x="353" y="198" on="1"/>
        <pt x="353" y="314" on="0"/>
        <pt x="199" y="322" on="1"/>
        <pt x="158" y="324" on="0"/>
        <pt x="120" y="324" on="1"/>
        <pt x="109" y="324" on="1"/>
        <pt x="129" y="662" on="1"/>
        <pt x="415" y="662" on="1"/>
        <pt x="415" y="607" on="1"/>
        <pt x="192" y="607" on="1"/>
        <pt x="178" y="369" on="1"/>
        <pt x="288" y="369" on="0"/>
        <pt x="343" y="342" on="1"/>
        <pt x="421" y="302" on="0"/>
        <pt x="421" y="201" on="1"/>
        <pt x="421" y="47" on="0"/>
        <pt x="262" y="9" on="1"/>
        <pt x="213" y="-3" on="0"/>
        <pt x="85" y="-3" on="0"/>
        <pt x="27" y="13" on="1"/>
        <pt x="43" y="65" on="1"/>
        <pt x="80" y="52" on="0"/>
      </contour>
    </TTGlyph>
    <TTGlyph name="four" xMin="85" yMin="0" xMax="517" yMax="662">
      <contour>
        <pt x="402" y="0" on="1"/>
        <pt x="402" y="140" on="1"/>
        <pt x="102" y="140" on="1"/>
        <pt x="85" y="195" on="1"/>
        <pt x="402" y="662" on="1"/>
        <pt x="470" y="662" on="1"/>
        <pt x="470" y="195" on="1"/>
        <pt x="516" y="195" on="1"/>
        <pt x="517" y="140" on="1"/>
        <pt x="470" y="140" on="1"/>
        <pt x="470" y="0" on="1"/>
      </contour>
      <contour>
        <pt x="402" y="195" on="1"/>
        <pt x="402" y="562" on="1"/>
        <pt x="152" y="195" on="1"/>
      </contour>
    </TTGlyph>
    <TTGlyph name="fraction" xMin="112" yMin="-200" xMax="490" yMax="749">
      <contour>
        <pt x="490" y="749" on="1"/>
        <pt x="172" y="-200" on="1"/>
        <pt x="112" y="-200" on="1"/>
        <pt x="430" y="749" on="1"/>
      </contour>
    </TTGlyph>
    <TTGlyph name="g" xMin="40" yMin="-250" xMax="521" yMax="504">
      <contour>
        <pt x="142" y="193" on="1"/>
        <pt x="68" y="230" on="0"/>
        <pt x="68" y="332" on="1"/>
        <pt x="68" y="416" on="0"/>
        <pt x="184" y="504" on="0"/>
        <pt x="274" y="504" on="1"/>
        <pt x="298" y="504" on="0"/>
        <pt x="333" y="499" on="1"/>
        <pt x="521" y="504" on="1"/>
        <pt x="519" y="466" on="1"/>
        <pt x="410" y="466" on="1"/>
        <pt x="465" y="425" on="0"/>
        <pt x="465" y="260" on="0"/>
        <pt x="355" y="171" on="0"/>
        <pt x="268" y="171" on="1"/>
        <pt x="212" y="171" on="0"/>
        <pt x="175" y="181" on="1"/>
        <pt x="156" y="163" on="0"/>
        <pt x="156" y="139" on="1"/>
        <pt x="156" y="105" on="0"/>
        <pt x="231" y="75" on="0"/>
        <pt x="282" y="68" on="1"/>
        <pt x="395" y="53" on="0"/>
        <pt x="445" y="26" on="1"/>
        <pt x="517" y="-14" on="0"/>
        <pt x="517" y="-180" on="0"/>
        <pt x="438" y="-220" on="1"/>
        <pt x="378" y="-250" on="0"/>
        <pt x="208" y="-250" on="0"/>
        <pt x="162" y="-237" on="1"/>
        <pt x="41" y="-202" on="0"/>
        <pt x="41" y="-12" on="0"/>
        <pt x="148" y="54" on="1"/>
        <pt x="106" y="85" on="0"/>
        <pt x="106" y="167" on="0"/>
      </contour>
      <contour>
        <pt x="452" y="-96" on="1"/>
        <pt x="452" y="-31" on="0"/>
        <pt x="366" y="-6" on="1"/>
        <pt x="342" y="1" on="0"/>
        <pt x="218" y="21" on="0"/>
        <pt x="183" y="35" on="1"/>
        <pt x="106" y="-29" on="0"/>
        <pt x="106" y="-89" on="1"/>
        <pt x="106" y="-115" on="0"/>
        <pt x="122" y="-149" on="0"/>
        <pt x="142" y="-162" on="1"/>
        <pt x="186" y="-192" on="0"/>
        <pt x="276" y="-192" on="1"/>
        <pt x="394" y="-192" on="0"/>
        <pt x="436" y="-142" on="1"/>
        <pt x="452" y="-123" on="0"/>
      </contour>
      <contour>
        <pt x="397" y="345" on="1"/>
        <pt x="397" y="451" on="0"/>
        <pt x="271" y="451" on="1"/>
        <pt x="211" y="451" on="0"/>
        <pt x="133" y="396" on="0"/>
        <pt x="133" y="283" on="0"/>
        <pt x="189" y="224" on="0"/>
        <pt x="322" y="224" on="0"/>
        <pt x="397" y="288" on="0"/>
      </contour>
    </TTGlyph>
    <TTGlyph name="germandbls" xMin="48" yMin="-4" xMax="583" yMax="751">
      <contour>
        <pt x="54" y="500" on="1"/>
        <pt x="96" y="500" on="1"/>
        <pt x="96" y="614" on="1"/>
        <pt x="96" y="673" on="0"/>
        <pt x="126" y="705" on="1"/>
        <pt x="168" y="750" on="0"/>
        <pt x="314" y="750" on="0"/>
        <pt x="363" y="710" on="1"/>
        <pt x="423" y="662" on="0"/>
        <pt x="423" y="580" on="1"/>
        <pt x="423" y="527" on="0"/>
        <pt x="347" y="455" on="0"/>
        <pt x="312" y="407" on="0"/>
        <pt x="312" y="344" on="0"/>
        <pt x="352" y="308" on="0"/>
        <pt x="412" y="285" on="0"/>
        <pt x="483" y="266" on="0"/>
        <pt x="543" y="236" on="0"/>
        <pt x="583" y="185" on="0"/>
        <pt x="583" y="140" on="1"/>
        <pt x="583" y="73" on="0"/>
        <pt x="486" y="-4" on="0"/>
        <pt x="393" y="-4" on="1"/>
        <pt x="348" y="-4" on="0"/>
        <pt x="259" y="15" on="0"/>
        <pt x="236" y="32" on="1"/>
        <pt x="259" y="85" on="1"/>
        <pt x="282" y="66" on="0"/>
        <pt x="353" y="56" on="1"/>
        <pt x="375" y="53" on="0"/>
        <pt x="398" y="53" on="1"/>
        <pt x="449" y="53" on="0"/>
        <pt x="518" y="97" on="0"/>
        <pt x="518" y="170" on="0"/>
        <pt x="478" y="205" on="0"/>
        <pt x="418" y="227" on="0"/>
        <pt x="347" y="245" on="0"/>
        <pt x="287" y="276" on="0"/>
        <pt x="247" y="326" on="0"/>
        <pt x="247" y="397" on="0"/>
        <pt x="265" y="435" on="0"/>
        <pt x="293" y="469" on="0"/>
        <pt x="325" y="505" on="0"/>
        <pt x="340" y="529" on="1"/>
        <pt x="361" y="554" on="0"/>
        <pt x="361" y="602" on="0"/>
        <pt x="350" y="622" on="1"/>
        <pt x="331" y="662" on="0"/>
        <pt x="288" y="683" on="1"/>
        <pt x="266" y="694" on="0"/>
        <pt x="221" y="694" on="0"/>
        <pt x="202" y="684" on="1"/>
        <pt x="161" y="660" on="0"/>
        <pt x="161" y="597" on="1"/>
        <pt x="161" y="0" on="1"/>
        <pt x="96" y="0" on="1"/>
        <pt x="96" y="447" on="1"/>
        <pt x="48" y="447" on="1"/>
      </contour>
    </TTGlyph>
    <TTGlyph name="grave" xMin="71" yMin="595" xMax="235" yMax="750">
      <contour>
        <pt x="189" y="595" on="1"/>
        <pt x="71" y="743" on="1"/>
        <pt x="131" y="750" on="1"/>
        <pt x="235" y="603" on="1"/>
      </contour>
    </TTGlyph>
    <TTGlyph name="greater" xMin="100" yMin="100" xMax="455" yMax="500">
      <contour>
        <pt x="100" y="153" on="1"/>
        <pt x="169" y="190" on="0"/>
        <pt x="304" y="263" on="0"/>
        <pt x="373" y="299" on="1"/>
        <pt x="100" y="448" on="1"/>
        <pt x="103" y="500" on="1"/>
        <pt x="455" y="300" on="1"/>
        <pt x="103" y="100" on="1"/>
      </contour>
    </TTGlyph>
    <TTGlyph name="guillemotleft" xMin="75" yMin="88" xMax="600" yMax="430">
      <contour>
        <pt x="344" y="88" on="1"/>
        <pt x="75" y="259" on="1"/>
        <pt x="344" y="430" on="1"/>
        <pt x="344" y="382" on="1"/>
        <pt x="140" y="259" on="1"/>
        <pt x="344" y="136" on="1"/>
      </contour>
      <contour>
        <pt x="600" y="88" on="1"/>
        <pt x="331" y="259" on="1"/>
        <pt x="600" y="430" on="1"/>
        <pt x="600" y="382" on="1"/>
        <pt x="396" y="259" on="1"/>
        <pt x="600" y="136" on="1"/>
      </contour>
    </TTGlyph>
    <TTGlyph name="guillemotright" xMin="75" yMin="88" xMax="600" yMax="430">
      <contour>
        <pt x="331" y="136" on="1"/>
        <pt x="535" y="259" on="1"/>
        <pt x="331" y="382" on="1"/>
        <pt x="331" y="430" on="1"/>
        <pt x="600" y="259" on="1"/>
        <pt x="331" y="88" on="1"/>
      </contour>
      <contour>
        <pt x="75" y="136" on="1"/>
        <pt x="279" y="259" on="1"/>
        <pt x="75" y="382" on="1"/>
        <pt x="75" y="430" on="1"/>
        <pt x="344" y="259" on="1"/>
        <pt x="75" y="88" on="1"/>
      </contour>
    </TTGlyph>
    <TTGlyph name="guilsinglleft" xMin="75" yMin="88" xMax="344" yMax="430">
      <contour>
        <pt x="344" y="88" on="1"/>
        <pt x="75" y="259" on="1"/>
        <pt x="344" y="430" on="1"/>
        <pt x="344" y="382" on="1"/>
        <pt x="140" y="259" on="1"/>
        <pt x="344" y="136" on="1"/>
      </contour>
    </TTGlyph>
    <TTGlyph name="guilsinglright" xMin="75" yMin="88" xMax="344" yMax="430">
      <contour>
        <pt x="75" y="136" on="1"/>
        <pt x="279" y="259" on="1"/>
        <pt x="75" y="382" on="1"/>
        <pt x="75" y="430" on="1"/>
        <pt x="344" y="259" on="1"/>
        <pt x="75" y="88" on="1"/>
      </contour>
    </TTGlyph>
    <TTGlyph name="h" xMin="70" yMin="0" xMax="457" yMax="750">
      <contour>
        <pt x="135" y="443" on="1"/>
        <pt x="214" y="500" on="0"/>
        <pt x="287" y="503" on="1"/>
        <pt x="349" y="503" on="0"/>
        <pt x="415" y="473" on="0"/>
        <pt x="457" y="418" on="0"/>
        <pt x="457" y="368" on="1"/>
        <pt x="457" y="0" on="1"/>
        <pt x="392" y="0" on="1"/>
        <pt x="392" y="351" on="1"/>
        <pt x="392" y="388" on="0"/>
        <pt x="376" y="408" on="1"/>
        <pt x="344" y="445" on="0"/>
        <pt x="278" y="445" on="1"/>
        <pt x="213" y="442" on="0"/>
        <pt x="135" y="403" on="1"/>
        <pt x="135" y="0" on="1"/>
        <pt x="70" y="0" on="1"/>
        <pt x="70" y="745" on="1"/>
        <pt x="135" y="750" on="1"/>
      </contour>
    </TTGlyph>
    <TTGlyph name="hyphen" xMin="146" yMin="232" xMax="448" yMax="290">
      <contour>
        <pt x="448" y="290" on="1"/>
        <pt x="448" y="232" on="1"/>
        <pt x="146" y="232" on="1"/>
        <pt x="146" y="290" on="1"/>
      </contour>
    </TTGlyph>
    <TTGlyph name="i" xMin="70" yMin="0" xMax="158" yMax="725">
      <contour>
        <pt x="146" y="505" on="1"/>
        <pt x="146" y="0" on="1"/>
        <pt x="81" y="0" on="1"/>
        <pt x="81" y="500" on="1"/>
      </contour>
      <contour>
        <pt x="91" y="634" on="0"/>
        <pt x="70" y="660" on="0"/>
        <pt x="70" y="700" on="0"/>
        <pt x="93" y="725" on="0"/>
        <pt x="133" y="725" on="0"/>
        <pt x="158" y="700" on="0"/>
        <pt x="158" y="656" on="0"/>
        <pt x="131" y="634" on="0"/>
      </contour>
    </TTGlyph>
    <TTGlyph name="iacute" xMin="81" yMin="0" xMax="256" yMax="750">
      <contour>
        <pt x="81" y="500" on="1"/>
        <pt x="81" y="0" on="1"/>
        <pt x="146" y="0" on="1"/>
        <pt x="146" y="505" on="1"/>
      </contour>
      <contour>
        <pt x="256" y="743" on="1"/>
        <pt x="137" y="595" on="1"/>
        <pt x="92" y="603" on="1"/>
        <pt x="196" y="750" on="1"/>
      </contour>
    </TTGlyph>
    <TTGlyph name="icircumflex" xMin="-51" yMin="0" xMax="283" yMax="761">
      <contour>
        <pt x="146" y="505" on="1"/>
        <pt x="146" y="0" on="1"/>
        <pt x="81" y="0" on="1"/>
        <pt x="81" y="500" on="1"/>
      </contour>
      <contour>
        <pt x="249" y="571" on="1"/>
        <pt x="115" y="704" on="1"/>
        <pt x="-17" y="571" on="1"/>
        <pt x="-51" y="600" on="1"/>
        <pt x="116" y="761" on="1"/>
        <pt x="162" y="715" on="0"/>
        <pt x="215" y="665" on="0"/>
        <pt x="276" y="606" on="0"/>
        <pt x="283" y="600" on="1"/>
      </contour>
    </TTGlyph>
    <TTGlyph name="idieresis" xMin="-35" yMin="0" xMax="258" yMax="650">
      <contour>
        <pt x="146" y="505" on="1"/>
        <pt x="146" y="0" on="1"/>
        <pt x="81" y="0" on="1"/>
        <pt x="81" y="500" on="1"/>
      </contour>
      <contour>
        <pt x="-15" y="570" on="0"/>
        <pt x="-35" y="593" on="0"/>
        <pt x="-35" y="629" on="0"/>
        <pt x="-14" y="650" on="0"/>
        <pt x="21" y="650" on="0"/>
        <pt x="42" y="629" on="0"/>
        <pt x="42" y="590" on="0"/>
        <pt x="20" y="570" on="0"/>
      </contour>
      <contour>
        <pt x="200" y="570" on="0"/>
        <pt x="181" y="593" on="0"/>
        <pt x="181" y="629" on="0"/>
        <pt x="201" y="650" on="0"/>
        <pt x="218" y="650" on="1"/>
        <pt x="258" y="650" on="0"/>
        <pt x="258" y="610" on="1"/>
        <pt x="258" y="590" on="0"/>
        <pt x="235" y="570" on="0"/>
      </contour>
    </TTGlyph>
    <TTGlyph name="igrave" xMin="-30" yMin="0" xMax="146" yMax="750">
      <contour>
        <pt x="146" y="505" on="1"/>
        <pt x="146" y="0" on="1"/>
        <pt x="81" y="0" on="1"/>
        <pt x="81" y="500" on="1"/>
      </contour>
      <contour>
        <pt x="88" y="595" on="1"/>
        <pt x="-30" y="743" on="1"/>
        <pt x="30" y="750" on="1"/>
        <pt x="134" y="603" on="1"/>
      </contour>
    </TTGlyph>
    <TTGlyph name="j" xMin="-16" yMin="-248" xMax="169" yMax="725">
      <contour>
        <pt x="-16" y="-209" on="1"/>
        <pt x="53" y="-145" on="0"/>
        <pt x="82" y="-62" on="1"/>
        <pt x="93" y="-31" on="0"/>
        <pt x="93" y="0" on="1"/>
        <pt x="93" y="500" on="1"/>
        <pt x="158" y="505" on="1"/>
        <pt x="158" y="0" on="1"/>
        <pt x="158" y="-3" on="0"/>
        <pt x="158" y="-6" on="1"/>
        <pt x="158" y="-86" on="0"/>
        <pt x="104" y="-158" on="1"/>
        <pt x="81" y="-188" on="0"/>
        <pt x="31" y="-233" on="0"/>
        <pt x="14" y="-248" on="1"/>
      </contour>
      <contour>
        <pt x="103" y="634" on="0"/>
        <pt x="81" y="660" on="0"/>
        <pt x="81" y="700" on="0"/>
        <pt x="105" y="725" on="0"/>
        <pt x="145" y="725" on="0"/>
        <pt x="169" y="700" on="0"/>
        <pt x="169" y="656" on="0"/>
        <pt x="143" y="634" on="0"/>
      </contour>
    </TTGlyph>
    <TTGlyph name="k" xMin="70" yMin="-5" xMax="434" yMax="750">
      <contour>
        <pt x="135" y="0" on="1"/>
        <pt x="70" y="0" on="1"/>
        <pt x="70" y="745" on="1"/>
        <pt x="135" y="750" on="1"/>
      </contour>
      <contour>
        <pt x="336" y="500" on="1"/>
        <pt x="414" y="500" on="1"/>
        <pt x="200" y="266" on="1"/>
        <pt x="434" y="0" on="1"/>
        <pt x="361" y="-5" on="1"/>
        <pt x="135" y="266" on="1"/>
      </contour>
    </TTGlyph>
    <TTGlyph name="l" xMin="70" yMin="0" xMax="135" yMax="750">
      <contour>
        <pt x="70" y="0" on="1"/>
        <pt x="70" y="745" on="1"/>
        <pt x="135" y="750" on="1"/>
        <pt x="135" y="0" on="1"/>
      </contour>
    </TTGlyph>
    <TTGlyph name="less" xMin="100" yMin="100" xMax="455" yMax="500">
      <contour>
        <pt x="181" y="299" on="1"/>
        <pt x="245" y="266" on="0"/>
        <pt x="455" y="153" on="1"/>
        <pt x="452" y="100" on="1"/>
        <pt x="100" y="300" on="1"/>
        <pt x="452" y="500" on="1"/>
        <pt x="455" y="448" on="1"/>
      </contour>
    </TTGlyph>
    <TTGlyph name="logicalnot" xMin="250" yMin="193" xMax="500" yMax="290">
      <contour>
        <pt x="295" y="265" on="1"/>
        <pt x="295" y="290" on="1"/>
        <pt x="500" y="290" on="1"/>
        <pt x="500" y="193" on="1"/>
        <pt x="250" y="193" on="1"/>
        <pt x="250" y="265" on="1"/>
      </contour>
    </TTGlyph>
    <TTGlyph name="m" xMin="60" yMin="0" xMax="718" yMax="505">
      <contour>
        <pt x="246" y="445" on="1"/>
        <pt x="190" y="442" on="0"/>
        <pt x="125" y="408" on="1"/>
        <pt x="125" y="0" on="1"/>
        <pt x="60" y="0" on="1"/>
        <pt x="60" y="500" on="1"/>
        <pt x="125" y="505" on="1"/>
        <pt x="125" y="449" on="1"/>
        <pt x="192" y="500" on="0"/>
        <pt x="255" y="503" on="1"/>
        <pt x="361" y="503" on="0"/>
        <pt x="401" y="450" on="1"/>
        <pt x="477" y="500" on="0"/>
        <pt x="548" y="503" on="1"/>
        <pt x="609" y="503" on="0"/>
        <pt x="675" y="473" on="0"/>
        <pt x="718" y="418" on="0"/>
        <pt x="718" y="368" on="1"/>
        <pt x="718" y="0" on="1"/>
        <pt x="653" y="0" on="1"/>
        <pt x="653" y="351" on="1"/>
        <pt x="653" y="388" on="0"/>
        <pt x="636" y="408" on="1"/>
        <pt x="605" y="445" on="0"/>
        <pt x="548" y="445" on="1"/>
        <pt x="488" y="445" on="0"/>
        <pt x="420" y="409" on="1"/>
        <pt x="425" y="389" on="0"/>
        <pt x="425" y="368" on="1"/>
        <pt x="425" y="0" on="1"/>
        <pt x="360" y="0" on="1"/>
        <pt x="360" y="351" on="1"/>
        <pt x="360" y="388" on="0"/>
        <pt x="344" y="408" on="1"/>
        <pt x="312" y="445" on="0"/>
      </contour>
    </TTGlyph>
    <TTGlyph name="macron" xMin="100" yMin="600" xMax="400" yMax="608">
      <contour>
        <pt x="400" y="608" on="1"/>
        <pt x="400" y="600" on="1"/>
        <pt x="100" y="600" on="1"/>
        <pt x="100" y="608" on="1"/>
      </contour>
    </TTGlyph>
    <TTGlyph name="mu" xMin="70" yMin="-250" xMax="447" yMax="505">
      <contour>
        <pt x="188" y="64" on="1"/>
        <pt x="210" y="56" on="0"/>
        <pt x="306" y="56" on="0"/>
        <pt x="382" y="95" on="1"/>
        <pt x="382" y="500" on="1"/>
        <pt x="447" y="505" on="1"/>
        <pt x="447" y="0" on="1"/>
        <pt x="382" y="0" on="1"/>
        <pt x="382" y="54" on="1"/>
        <pt x="308" y="-3" on="0"/>
        <pt x="231" y="-3" on="1"/>
        <pt x="180" y="-3" on="0"/>
        <pt x="141" y="13" on="1"/>
        <pt x="138" y="15" on="0"/>
        <pt x="135" y="16" on="1"/>
        <pt x="135" y="-250" on="1"/>
        <pt x="70" y="-250" on="1"/>
        <pt x="70" y="500" on="1"/>
        <pt x="135" y="505" on="1"/>
        <pt x="135" y="149" on="1"/>
        <pt x="135" y="87" on="0"/>
      </contour>
    </TTGlyph>
    <TTGlyph name="multiply" xMin="115" yMin="-21" xMax="517" yMax="381">
      <contour>
        <pt x="316" y="139" on="1"/>
        <pt x="156" y="-21" on="1"/>
        <pt x="115" y="20" on="1"/>
        <pt x="275" y="180" on="1"/>
        <pt x="115" y="340" on="1"/>
        <pt x="156" y="381" on="1"/>
        <pt x="316" y="221" on="1"/>
        <pt x="476" y="381" on="1"/>
        <pt x="517" y="340" on="1"/>
        <pt x="357" y="180" on="1"/>
        <pt x="517" y="20" on="1"/>
        <pt x="476" y="-21" on="1"/>
      </contour>
    </TTGlyph>
    <TTGlyph name="n" xMin="60" yMin="0" xMax="437" yMax="505">
      <contour>
        <pt x="125" y="445" on="1"/>
        <pt x="200" y="500" on="0"/>
        <pt x="267" y="503" on="1"/>
        <pt x="328" y="503" on="0"/>
        <pt x="394" y="473" on="0"/>
        <pt x="437" y="418" on="0"/>
        <pt x="437" y="368" on="1"/>
        <pt x="437" y="0" on="1"/>
        <pt x="372" y="0" on="1"/>
        <pt x="372" y="351" on="1"/>
        <pt x="372" y="388" on="0"/>
        <pt x="356" y="408" on="1"/>
        <pt x="324" y="445" on="0"/>
        <pt x="258" y="445" on="1"/>
        <pt x="195" y="442" on="0"/>
        <pt x="125" y="404" on="1"/>
        <pt x="125" y="0" on="1"/>
        <pt x="60" y="0" on="1"/>
        <pt x="60" y="500" on="1"/>
        <pt x="125" y="505" on="1"/>
      </contour>
    </TTGlyph>
    <TTGlyph name="nine" xMin="70" yMin="-4" xMax="481" yMax="662">
      <contour>
        <pt x="86" y="44" on="1"/>
        <pt x="92" y="48" on="0"/>
        <pt x="151" y="80" on="0"/>
        <pt x="190" y="108" on="1"/>
        <pt x="294" y="183" on="0"/>
        <pt x="350" y="269" on="1"/>
        <pt x="268" y="269" on="0"/>
        <pt x="233" y="275" on="1"/>
        <pt x="70" y="302" on="0"/>
        <pt x="70" y="460" on="1"/>
        <pt x="70" y="550" on="0"/>
        <pt x="190" y="662" on="0"/>
        <pt x="287" y="662" on="1"/>
        <pt x="421" y="662" on="0"/>
        <pt x="465" y="560" on="1"/>
        <pt x="481" y="524" on="0"/>
        <pt x="481" y="400" on="0"/>
        <pt x="431" y="276" on="0"/>
        <pt x="394" y="225" on="1"/>
        <pt x="331" y="141" on="0"/>
        <pt x="224" y="64" on="1"/>
        <pt x="155" y="14" on="0"/>
        <pt x="114" y="-4" on="1"/>
      </contour>
      <contour>
        <pt x="381" y="324" on="1"/>
        <pt x="413" y="392" on="0"/>
        <pt x="413" y="469" on="1"/>
        <pt x="413" y="543" on="0"/>
        <pt x="369" y="578" on="1"/>
        <pt x="334" y="607" on="0"/>
        <pt x="292" y="607" on="1"/>
        <pt x="218" y="607" on="0"/>
        <pt x="138" y="523" on="0"/>
        <pt x="138" y="401" on="0"/>
        <pt x="197" y="337" on="0"/>
        <pt x="242" y="331" on="1"/>
        <pt x="274" y="324" on="0"/>
      </contour>
    </TTGlyph>
    <TTGlyph name="ntilde" xMin="50" yMin="0" xMax="438" yMax="675">
      <contour>
        <pt x="115" y="445" on="1"/>
        <pt x="190" y="500" on="0"/>
        <pt x="257" y="503" on="1"/>
        <pt x="318" y="503" on="0"/>
        <pt x="384" y="473" on="0"/>
        <pt x="427" y="418" on="0"/>
        <pt x="427" y="368" on="1"/>
        <pt x="427" y="0" on="1"/>
        <pt x="362" y="0" on="1"/>
        <pt x="362" y="351" on="1"/>
        <pt x="362" y="388" on="0"/>
        <pt x="346" y="408" on="1"/>
        <pt x="314" y="445" on="0"/>
        <pt x="248" y="445" on="1"/>
        <pt x="185" y="442" on="0"/>
        <pt x="115" y="404" on="1"/>
        <pt x="115" y="0" on="1"/>
        <pt x="50" y="0" on="1"/>
        <pt x="50" y="500" on="1"/>
        <pt x="115" y="505" on="1"/>
      </contour>
      <contour>
        <pt x="166" y="633" on="1"/>
        <pt x="113" y="633" on="0"/>
        <pt x="106" y="597" on="1"/>
        <pt x="72" y="604" on="1"/>
        <pt x="86" y="668" on="0"/>
        <pt x="161" y="668" on="1"/>
        <pt x="198" y="668" on="0"/>
        <pt x="330" y="636" on="0"/>
        <pt x="370" y="636" on="0"/>
        <pt x="380" y="639" on="1"/>
        <pt x="396" y="644" on="0"/>
        <pt x="403" y="675" on="1"/>
        <pt x="438" y="668" on="1"/>
        <pt x="424" y="605" on="0"/>
        <pt x="380" y="599" on="1"/>
        <pt x="372" y="598" on="0"/>
        <pt x="340" y="598" on="0"/>
        <pt x="204" y="633" on="0"/>
      </contour>
    </TTGlyph>
    <TTGlyph name="numbersign" xMin="23" yMin="44" xMax="560" yMax="679">
      <contour>
        <pt x="69" y="516" on="1"/>
        <pt x="191" y="516" on="1"/>
        <pt x="220" y="679" on="1"/>
        <pt x="280" y="679" on="1"/>
        <pt x="251" y="516" on="1"/>
        <pt x="393" y="516" on="1"/>
        <pt x="422" y="679" on="1"/>
        <pt x="482" y="679" on="1"/>
        <pt x="453" y="516" on="1"/>
        <pt x="560" y="516" on="1"/>
        <pt x="554" y="458" on="1"/>
        <pt x="443" y="458" on="1"/>
        <pt x="413" y="287" on="1"/>
        <pt x="520" y="287" on="1"/>
        <pt x="514" y="229" on="1"/>
        <pt x="403" y="229" on="1"/>
        <pt x="371" y="44" on="1"/>
        <pt x="311" y="44" on="1"/>
        <pt x="343" y="229" on="1"/>
        <pt x="201" y="229" on="1"/>
        <pt x="169" y="44" on="1"/>
        <pt x="109" y="44" on="1"/>
        <pt x="141" y="229" on="1"/>
        <pt x="23" y="229" on="1"/>
        <pt x="29" y="287" on="1"/>
        <pt x="151" y="287" on="1"/>
        <pt x="181" y="458" on="1"/>
        <pt x="63" y="458" on="1"/>
      </contour>
      <contour>
        <pt x="211" y="287" on="1"/>
        <pt x="353" y="287" on="1"/>
        <pt x="383" y="458" on="1"/>
        <pt x="241" y="458" on="1"/>
      </contour>
    </TTGlyph>
    <TTGlyph name="o" xMin="50" yMin="-4" xMax="525" yMax="504">
      <contour>
        <pt x="68" y="128" on="1"/>
        <pt x="50" y="176" on="0"/>
        <pt x="50" y="240" on="1"/>
        <pt x="50" y="363" on="0"/>
        <pt x="188" y="504" on="0"/>
        <pt x="292" y="504" on="1"/>
        <pt x="455" y="504" on="0"/>
        <pt x="506" y="372" on="1"/>
        <pt x="525" y="324" on="0"/>
        <pt x="525" y="260" on="1"/>
        <pt x="525" y="137" on="0"/>
        <pt x="387" y="-4" on="0"/>
        <pt x="283" y="-4" on="1"/>
        <pt x="120" y="-4" on="0"/>
      </contour>
      <contour>
        <pt x="115" y="155" on="0"/>
        <pt x="210" y="54" on="0"/>
        <pt x="360" y="54" on="0"/>
        <pt x="460" y="161" on="0"/>
        <pt x="460" y="345" on="0"/>
        <pt x="366" y="446" on="0"/>
        <pt x="215" y="446" on="0"/>
        <pt x="115" y="339" on="0"/>
      </contour>
    </TTGlyph>
    <TTGlyph name="oacute" xMin="51" yMin="-4" xMax="526" yMax="750">
      <contour>
        <pt x="120" y="52" on="1"/>
        <pt x="180" y="-4" on="0"/>
        <pt x="388" y="-4" on="0"/>
        <pt x="526" y="137" on="0"/>
        <pt x="526" y="385" on="0"/>
        <pt x="457" y="448" on="1"/>
        <pt x="397" y="504" on="0"/>
        <pt x="189" y="504" on="0"/>
        <pt x="51" y="363" on="0"/>
        <pt x="51" y="115" on="0"/>
      </contour>
      <contour>
        <pt x="116" y="339" on="0"/>
        <pt x="216" y="446" on="0"/>
        <pt x="366" y="446" on="0"/>
        <pt x="461" y="345" on="0"/>
        <pt x="461" y="161" on="0"/>
        <pt x="361" y="54" on="0"/>
        <pt x="210" y="54" on="0"/>
        <pt x="116" y="155" on="0"/>
      </contour>
      <contour>
        <pt x="464" y="743" on="1"/>
        <pt x="345" y="595" on="1"/>
        <pt x="300" y="603" on="1"/>
        <pt x="404" y="750" on="1"/>
      </contour>
    </TTGlyph>
    <TTGlyph name="ocircumflex" xMin="51" yMin="-4" xMax="526" yMax="761">
      <contour>
        <pt x="70" y="128" on="1"/>
        <pt x="51" y="176" on="0"/>
        <pt x="51" y="240" on="1"/>
        <pt x="51" y="363" on="0"/>
        <pt x="189" y="504" on="0"/>
        <pt x="293" y="504" on="1"/>
        <pt x="456" y="504" on="0"/>
        <pt x="508" y="372" on="1"/>
        <pt x="526" y="324" on="0"/>
        <pt x="526" y="260" on="1"/>
        <pt x="526" y="137" on="0"/>
        <pt x="388" y="-4" on="0"/>
        <pt x="284" y="-4" on="1"/>
        <pt x="121" y="-4" on="0"/>
      </contour>
      <contour>
        <pt x="116" y="155" on="0"/>
        <pt x="210" y="54" on="0"/>
        <pt x="361" y="54" on="0"/>
        <pt x="461" y="161" on="0"/>
        <pt x="461" y="345" on="0"/>
        <pt x="366" y="446" on="0"/>
        <pt x="216" y="446" on="0"/>
        <pt x="116" y="339" on="0"/>
      </contour>
      <contour>
        <pt x="430" y="571" on="1"/>
        <pt x="296" y="704" on="1"/>
        <pt x="164" y="571" on="1"/>
        <pt x="130" y="600" on="1"/>
        <pt x="297" y="761" on="1"/>
        <pt x="343" y="715" on="0"/>
        <pt x="396" y="665" on="0"/>
        <pt x="457" y="606" on="0"/>
        <pt x="464" y="600" on="1"/>
      </contour>
    </TTGlyph>
    <TTGlyph name="odieresis" xMin="51" yMin="-4" xMax="526" yMax="660">
      <contour>
        <pt x="70" y="128" on="1"/>
        <pt x="51" y="176" on="0"/>
        <pt x="51" y="240" on="1"/>
        <pt x="51" y="363" on="0"/>
        <pt x="189" y="504" on="0"/>
        <pt x="293" y="504" on="1"/>
        <pt x="456" y="504" on="0"/>
        <pt x="508" y="372" on="1"/>
        <pt x="526" y="324" on="0"/>
        <pt x="526" y="260" on="1"/>
        <pt x="526" y="137" on="0"/>
        <pt x="388" y="-4" on="0"/>
        <pt x="284" y="-4" on="1"/>
        <pt x="121" y="-4" on="0"/>
      </contour>
      <contour>
        <pt x="116" y="155" on="0"/>
        <pt x="210" y="54" on="0"/>
        <pt x="361" y="54" on="0"/>
        <pt x="461" y="161" on="0"/>
        <pt x="461" y="345" on="0"/>
        <pt x="366" y="446" on="0"/>
        <pt x="216" y="446" on="0"/>
        <pt x="116" y="339" on="0"/>
      </contour>
      <contour>
        <pt x="164" y="580" on="0"/>
        <pt x="144" y="603" on="0"/>
        <pt x="144" y="639" on="0"/>
        <pt x="165" y="660" on="0"/>
        <pt x="200" y="660" on="0"/>
        <pt x="221" y="639" on="0"/>
        <pt x="221" y="600" on="0"/>
        <pt x="199" y="580" on="0"/>
      </contour>
      <contour>
        <pt x="379" y="580" on="0"/>
        <pt x="360" y="603" on="0"/>
        <pt x="360" y="639" on="0"/>
        <pt x="380" y="660" on="0"/>
        <pt x="397" y="660" on="1"/>
        <pt x="437" y="660" on="0"/>
        <pt x="437" y="620" on="1"/>
        <pt x="437" y="600" on="0"/>
        <pt x="414" y="580" on="0"/>
      </contour>
    </TTGlyph>
    <TTGlyph name="oe" xMin="50" yMin="-4" xMax="763" yMax="505">
      <contour>
        <pt x="402" y="230" on="1"/>
        <pt x="402" y="54" on="0"/>
        <pt x="570" y="54" on="1"/>
        <pt x="641" y="54" on="0"/>
        <pt x="700" y="73" on="1"/>
        <pt x="715" y="78" on="0"/>
        <pt x="721" y="81" on="1"/>
        <pt x="736" y="28" on="1"/>
        <pt x="701" y="7" on="0"/>
        <pt x="609" y="-2" on="1"/>
        <pt x="583" y="-4" on="0"/>
        <pt x="560" y="-4" on="1"/>
        <pt x="472" y="-4" on="0"/>
        <pt x="418" y="34" on="1"/>
        <pt x="359" y="-4" on="0"/>
        <pt x="283" y="-4" on="1"/>
        <pt x="120" y="-4" on="0"/>
        <pt x="68" y="128" on="1"/>
        <pt x="50" y="176" on="0"/>
        <pt x="50" y="240" on="1"/>
        <pt x="50" y="363" on="0"/>
        <pt x="188" y="504" on="0"/>
        <pt x="380" y="504" on="0"/>
        <pt x="439" y="461" on="1"/>
        <pt x="539" y="504" on="0"/>
        <pt x="569" y="504" on="1"/>
        <pt x="571" y="504" on="0"/>
        <pt x="573" y="504" on="1"/>
        <pt x="674" y="504" on="0"/>
        <pt x="724" y="440" on="1"/>
        <pt x="762" y="389" on="0"/>
        <pt x="762" y="305" on="1"/>
        <pt x="762" y="285" on="0"/>
        <pt x="760" y="263" on="1"/>
        <pt x="403" y="263" on="1"/>
        <pt x="402" y="255" on="0"/>
        <pt x="402" y="246" on="1"/>
      </contour>
      <contour>
        <pt x="375" y="78" on="1"/>
        <pt x="337" y="137" on="0"/>
        <pt x="337" y="341" on="0"/>
        <pt x="391" y="414" on="1"/>
        <pt x="349" y="446" on="0"/>
        <pt x="302" y="446" on="1"/>
        <pt x="215" y="446" on="0"/>
        <pt x="115" y="339" on="0"/>
        <pt x="115" y="155" on="0"/>
        <pt x="210" y="54" on="0"/>
        <pt x="283" y="54" on="1"/>
        <pt x="334" y="54" on="0"/>
      </contour>
      <contour>
        <pt x="579" y="442" on="1"/>
        <pt x="517" y="442" on="0"/>
        <pt x="429" y="367" on="0"/>
        <pt x="412" y="308" on="1"/>
        <pt x="703" y="308" on="1"/>
        <pt x="698" y="419" on="0"/>
        <pt x="617" y="437" on="1"/>
        <pt x="599" y="442" on="0"/>
      </contour>
    </TTGlyph>
    <TTGlyph name="ograve" xMin="51" yMin="-4" xMax="526" yMax="750">
      <contour>
        <pt x="70" y="128" on="1"/>
        <pt x="51" y="176" on="0"/>
        <pt x="51" y="240" on="1"/>
        <pt x="51" y="363" on="0"/>
        <pt x="189" y="504" on="0"/>
        <pt x="293" y="504" on="1"/>
        <pt x="456" y="504" on="0"/>
        <pt x="508" y="372" on="1"/>
        <pt x="526" y="324" on="0"/>
        <pt x="526" y="260" on="1"/>
        <pt x="526" y="137" on="0"/>
        <pt x="388" y="-4" on="0"/>
        <pt x="284" y="-4" on="1"/>
        <pt x="121" y="-4" on="0"/>
      </contour>
      <contour>
        <pt x="116" y="155" on="0"/>
        <pt x="210" y="54" on="0"/>
        <pt x="361" y="54" on="0"/>
        <pt x="461" y="161" on="0"/>
        <pt x="461" y="345" on="0"/>
        <pt x="366" y="446" on="0"/>
        <pt x="216" y="446" on="0"/>
        <pt x="116" y="339" on="0"/>
      </contour>
      <contour>
        <pt x="280" y="595" on="1"/>
        <pt x="162" y="743" on="1"/>
        <pt x="222" y="750" on="1"/>
        <pt x="326" y="603" on="1"/>
      </contour>
    </TTGlyph>
    <TTGlyph name="one" xMin="77" yMin="0" xMax="300" yMax="662">
      <contour>
        <pt x="78" y="589" on="0"/>
        <pt x="77" y="613" on="0"/>
        <pt x="77" y="626" on="1"/>
        <pt x="237" y="662" on="1"/>
        <pt x="300" y="662" on="1"/>
        <pt x="300" y="0" on="1"/>
        <pt x="237" y="0" on="1"/>
        <pt x="237" y="613" on="1"/>
        <pt x="78" y="577" on="1"/>
      </contour>
    </TTGlyph>
    <TTGlyph name="onehalf" xMin="81" yMin="0" xMax="805" yMax="750">
      <contour>
        <pt x="82" y="691" on="1"/>
        <pt x="82" y="691" on="0"/>
        <pt x="81" y="725" on="1"/>
        <pt x="190" y="749" on="1"/>
        <pt x="233" y="749" on="1"/>
        <pt x="233" y="300" on="1"/>
        <pt x="190" y="300" on="1"/>
        <pt x="190" y="716" on="1"/>
      </contour>
      <contour>
        <pt x="703" y="402" on="1"/>
        <pt x="686" y="411" on="0"/>
        <pt x="614" y="411" on="0"/>
        <pt x="554" y="381" on="1"/>
        <pt x="537" y="413" on="1"/>
        <pt x="611" y="448" on="0"/>
        <pt x="665" y="448" on="1"/>
        <pt x="748" y="448" on="0"/>
        <pt x="778" y="386" on="1"/>
        <pt x="790" y="363" on="0"/>
        <pt x="790" y="286" on="0"/>
        <pt x="751" y="209" on="0"/>
        <pt x="690" y="138" on="0"/>
        <pt x="616" y="71" on="0"/>
        <pt x="582" y="38" on="1"/>
        <pt x="801" y="38" on="1"/>
        <pt x="805" y="1" on="1"/>
        <pt x="531" y="1" on="1"/>
        <pt x="523" y="38" on="1"/>
        <pt x="573" y="86" on="0"/>
        <pt x="655" y="166" on="0"/>
        <pt x="684" y="200" on="1"/>
        <pt x="745" y="273" on="0"/>
        <pt x="745" y="380" on="0"/>
      </contour>
      <contour>
        <pt x="556" y="750" on="1"/>
        <pt x="305" y="0" on="1"/>
        <pt x="257" y="0" on="1"/>
        <pt x="509" y="750" on="1"/>
      </contour>
    </TTGlyph>
    <TTGlyph name="onequarter" xMin="79" yMin="0" xMax="756" yMax="750">
      <contour>
        <pt x="556" y="750" on="1"/>
        <pt x="305" y="0" on="1"/>
        <pt x="257" y="0" on="1"/>
        <pt x="509" y="750" on="1"/>
      </contour>
      <contour>
        <pt x="675" y="0" on="1"/>
        <pt x="675" y="98" on="1"/>
        <pt x="465" y="98" on="1"/>
        <pt x="453" y="136" on="1"/>
        <pt x="675" y="463" on="1"/>
        <pt x="723" y="463" on="1"/>
        <pt x="723" y="136" on="1"/>
        <pt x="755" y="136" on="1"/>
        <pt x="756" y="98" on="1"/>
        <pt x="723" y="98" on="1"/>
        <pt x="723" y="0" on="1"/>
      </contour>
      <contour>
        <pt x="675" y="136" on="1"/>
        <pt x="675" y="393" on="1"/>
        <pt x="500" y="136" on="1"/>
      </contour>
      <contour>
        <pt x="80" y="692" on="1"/>
        <pt x="80" y="692" on="0"/>
        <pt x="79" y="725" on="1"/>
        <pt x="188" y="749" on="1"/>
        <pt x="230" y="749" on="1"/>
        <pt x="230" y="300" on="1"/>
        <pt x="188" y="300" on="1"/>
        <pt x="188" y="716" on="1"/>
      </contour>
    </TTGlyph>
    <TTGlyph name="onesuperior" xMin="87" yMin="500" xMax="170" yMax="749">
      <contour>
        <pt x="87" y="735" on="1"/>
        <pt x="146" y="749" on="1"/>
        <pt x="170" y="749" on="1"/>
        <pt x="170" y="500" on="1"/>
        <pt x="146" y="500" on="1"/>
        <pt x="146" y="731" on="1"/>
        <pt x="87" y="717" on="1"/>
      </contour>
    </TTGlyph>
    <TTGlyph name="ordfeminine" xMin="71" yMin="499" xMax="210" yMax="682">
      <contour>
        <pt x="140" y="682" on="1"/>
        <pt x="210" y="682" on="0"/>
        <pt x="210" y="629" on="1"/>
        <pt x="210" y="500" on="1"/>
        <pt x="186" y="500" on="1"/>
        <pt x="186" y="514" on="1"/>
        <pt x="153" y="499" on="0"/>
        <pt x="123" y="499" on="1"/>
        <pt x="72" y="499" on="0"/>
        <pt x="72" y="543" on="1"/>
        <pt x="72" y="572" on="0"/>
        <pt x="108" y="582" on="1"/>
        <pt x="131" y="588" on="0"/>
        <pt x="186" y="592" on="1"/>
        <pt x="186" y="621" on="1"/>
        <pt x="186" y="661" on="0"/>
        <pt x="145" y="661" on="1"/>
        <pt x="123" y="661" on="0"/>
        <pt x="85" y="646" on="0"/>
        <pt x="82" y="644" on="1"/>
        <pt x="75" y="661" on="1"/>
        <pt x="78" y="662" on="0"/>
        <pt x="91" y="669" on="0"/>
        <pt x="128" y="682" on="0"/>
      </contour>
      <contour>
        <pt x="94" y="541" on="1"/>
        <pt x="94" y="515" on="0"/>
        <pt x="160" y="515" on="0"/>
        <pt x="186" y="527" on="1"/>
        <pt x="186" y="579" on="1"/>
        <pt x="135" y="572" on="0"/>
        <pt x="116" y="567" on="1"/>
        <pt x="94" y="559" on="0"/>
      </contour>
    </TTGlyph>
    <TTGlyph name="ordmasculine" xMin="89" yMin="501" xMax="274" yMax="699">
      <contour>
        <pt x="143" y="501" on="0"/>
        <pt x="89" y="545" on="0"/>
        <pt x="89" y="646" on="0"/>
        <pt x="144" y="699" on="0"/>
        <pt x="221" y="699" on="0"/>
        <pt x="274" y="656" on="0"/>
        <pt x="274" y="555" on="0"/>
        <pt x="220" y="501" on="0"/>
      </contour>
      <contour>
        <pt x="155" y="677" on="0"/>
        <pt x="115" y="636" on="0"/>
        <pt x="115" y="561" on="0"/>
        <pt x="153" y="524" on="0"/>
        <pt x="209" y="524" on="0"/>
        <pt x="249" y="565" on="0"/>
        <pt x="249" y="639" on="0"/>
        <pt x="210" y="677" on="0"/>
      </contour>
    </TTGlyph>
    <TTGlyph name="oslash" xMin="75" yMin="-7" xMax="550" yMax="508">
      <contour>
        <pt x="131" y="64" on="1"/>
        <pt x="75" y="130" on="0"/>
        <pt x="75" y="363" on="0"/>
        <pt x="213" y="504" on="0"/>
        <pt x="317" y="504" on="1"/>
        <pt x="402" y="504" on="0"/>
        <pt x="459" y="466" on="1"/>
        <pt x="493" y="508" on="1"/>
        <pt x="526" y="486" on="1"/>
        <pt x="489" y="440" on="1"/>
        <pt x="550" y="374" on="0"/>
        <pt x="550" y="137" on="0"/>
        <pt x="412" y="-4" on="0"/>
        <pt x="216" y="-4" on="0"/>
        <pt x="160" y="37" on="1"/>
        <pt x="124" y="-7" on="1"/>
        <pt x="92" y="17" on="1"/>
      </contour>
      <contour>
        <pt x="202" y="89" on="1"/>
        <pt x="244" y="54" on="0"/>
        <pt x="385" y="54" on="0"/>
        <pt x="485" y="161" on="0"/>
        <pt x="485" y="336" on="0"/>
        <pt x="445" y="386" on="1"/>
      </contour>
      <contour>
        <pt x="417" y="415" on="1"/>
        <pt x="372" y="446" on="0"/>
        <pt x="326" y="446" on="1"/>
        <pt x="240" y="446" on="0"/>
        <pt x="140" y="339" on="0"/>
        <pt x="140" y="244" on="1"/>
        <pt x="140" y="170" on="0"/>
        <pt x="175" y="119" on="1"/>
      </contour>
    </TTGlyph>
    <TTGlyph name="otilde" xMin="51" yMin="-4" xMax="526" yMax="661">
      <contour>
        <pt x="70" y="128" on="1"/>
        <pt x="51" y="176" on="0"/>
        <pt x="51" y="240" on="1"/>
        <pt x="51" y="363" on="0"/>
        <pt x="189" y="504" on="0"/>
        <pt x="293" y="504" on="1"/>
        <pt x="456" y="504" on="0"/>
        <pt x="508" y="372" on="1"/>
        <pt x="526" y="324" on="0"/>
        <pt x="526" y="260" on="1"/>
        <pt x="526" y="137" on="0"/>
        <pt x="388" y="-4" on="0"/>
        <pt x="284" y="-4" on="1"/>
        <pt x="121" y="-4" on="0"/>
      </contour>
      <contour>
        <pt x="116" y="155" on="0"/>
        <pt x="210" y="54" on="0"/>
        <pt x="361" y="54" on="0"/>
        <pt x="461" y="161" on="0"/>
        <pt x="461" y="345" on="0"/>
        <pt x="366" y="446" on="0"/>
        <pt x="216" y="446" on="0"/>
        <pt x="116" y="339" on="0"/>
      </contour>
      <contour>
        <pt x="206" y="619" on="1"/>
        <pt x="153" y="619" on="0"/>
        <pt x="146" y="583" on="1"/>
        <pt x="112" y="590" on="1"/>
        <pt x="126" y="654" on="0"/>
        <pt x="201" y="654" on="1"/>
        <pt x="238" y="654" on="0"/>
        <pt x="370" y="622" on="0"/>
        <pt x="410" y="622" on="0"/>
        <pt x="420" y="625" on="1"/>
        <pt x="436" y="630" on="0"/>
        <pt x="443" y="661" on="1"/>
        <pt x="478" y="654" on="1"/>
        <pt x="464" y="591" on="0"/>
        <pt x="420" y="585" on="1"/>
        <pt x="412" y="584" on="0"/>
        <pt x="380" y="584" on="0"/>
        <pt x="244" y="619" on="0"/>
      </contour>
    </TTGlyph>
    <TTGlyph name="p" xMin="70" yMin="-250" xMax="468" yMax="509">
      <contour>
        <pt x="363" y="37" on="0"/>
        <pt x="282" y="4" on="0"/>
        <pt x="224" y="0" on="0"/>
        <pt x="168" y="0" on="0"/>
        <pt x="135" y="5" on="1"/>
        <pt x="135" y="-245" on="1"/>
        <pt x="70" y="-250" on="1"/>
        <pt x="70" y="474" on="1"/>
        <pt x="92" y="481" on="0"/>
        <pt x="183" y="509" on="0"/>
        <pt x="286" y="509" on="0"/>
        <pt x="361" y="492" on="0"/>
        <pt x="393" y="468" on="1"/>
        <pt x="468" y="410" on="0"/>
        <pt x="468" y="142" on="0"/>
        <pt x="396" y="70" on="1"/>
      </contour>
      <contour>
        <pt x="135" y="56" on="1"/>
        <pt x="165" y="49" on="0"/>
        <pt x="199" y="49" on="1"/>
        <pt x="297" y="49" on="0"/>
        <pt x="403" y="165" on="0"/>
        <pt x="403" y="375" on="0"/>
        <pt x="349" y="420" on="1"/>
        <pt x="311" y="451" on="0"/>
        <pt x="192" y="451" on="0"/>
        <pt x="135" y="434" on="1"/>
      </contour>
    </TTGlyph>
    <TTGlyph name="paragraph" xMin="115" yMin="0" xMax="458" yMax="700">
      <contour>
        <pt x="341" y="700" on="1"/>
        <pt x="341" y="0" on="1"/>
        <pt x="281" y="0" on="1"/>
        <pt x="281" y="359" on="1"/>
        <pt x="208" y="359" on="0"/>
        <pt x="115" y="448" on="0"/>
        <pt x="115" y="601" on="0"/>
        <pt x="211" y="700" on="0"/>
        <pt x="281" y="700" on="1"/>
      </contour>
      <contour>
        <pt x="458" y="700" on="1"/>
        <pt x="458" y="0" on="1"/>
        <pt x="448" y="0" on="1"/>
        <pt x="448" y="700" on="1"/>
      </contour>
    </TTGlyph>
    <TTGlyph name="parenleft" xMin="64" yMin="-200" xMax="267" yMax="750">
      <contour>
        <pt x="267" y="721" on="1"/>
        <pt x="211" y="690" on="0"/>
        <pt x="129" y="469" on="0"/>
        <pt x="129" y="270" on="1"/>
        <pt x="129" y="-30" on="0"/>
        <pt x="228" y="-146" on="1"/>
        <pt x="248" y="-168" on="0"/>
        <pt x="267" y="-178" on="1"/>
        <pt x="235" y="-200" on="1"/>
        <pt x="233" y="-199" on="0"/>
        <pt x="205" y="-187" on="0"/>
        <pt x="186" y="-170" on="1"/>
        <pt x="136" y="-124" on="0"/>
        <pt x="106" y="-36" on="1"/>
        <pt x="64" y="85" on="0"/>
        <pt x="64" y="270" on="1"/>
        <pt x="64" y="539" on="0"/>
        <pt x="149" y="672" on="1"/>
        <pt x="187" y="730" on="0"/>
        <pt x="235" y="750" on="1"/>
      </contour>
    </TTGlyph>
    <TTGlyph name="parenright" xMin="64" yMin="-200" xMax="267" yMax="750">
      <contour>
        <pt x="96" y="750" on="1"/>
        <pt x="165" y="721" on="0"/>
        <pt x="267" y="487" on="0"/>
        <pt x="267" y="286" on="1"/>
        <pt x="267" y="-57" on="0"/>
        <pt x="145" y="-170" on="1"/>
        <pt x="121" y="-192" on="0"/>
        <pt x="96" y="-200" on="1"/>
        <pt x="64" y="-178" on="1"/>
        <pt x="99" y="-160" on="0"/>
        <pt x="136" y="-98" on="1"/>
        <pt x="202" y="18" on="0"/>
        <pt x="202" y="516" on="0"/>
        <pt x="133" y="643" on="1"/>
        <pt x="102" y="699" on="0"/>
        <pt x="64" y="721" on="1"/>
      </contour>
    </TTGlyph>
    <TTGlyph name="percent" xMin="80" yMin="-5" xMax="610" yMax="520">
      <contour>
        <pt x="558" y="500" on="1"/>
        <pt x="180" y="0" on="1"/>
        <pt x="120" y="0" on="1"/>
        <pt x="498" y="500" on="1"/>
      </contour>
      <contour>
        <pt x="90" y="342" on="1"/>
        <pt x="80" y="365" on="0"/>
        <pt x="80" y="394" on="1"/>
        <pt x="80" y="448" on="0"/>
        <pt x="149" y="520" on="0"/>
        <pt x="200" y="520" on="1"/>
        <pt x="320" y="520" on="0"/>
        <pt x="320" y="400" on="1"/>
        <pt x="320" y="349" on="0"/>
        <pt x="248" y="280" on="0"/>
        <pt x="200" y="280" on="1"/>
        <pt x="115" y="280" on="0"/>
      </contour>
      <contour>
        <pt x="166" y="482" on="0"/>
        <pt x="120" y="434" on="0"/>
        <pt x="120" y="358" on="0"/>
        <pt x="166" y="318" on="0"/>
        <pt x="233" y="318" on="0"/>
        <pt x="280" y="365" on="0"/>
        <pt x="280" y="442" on="0"/>
        <pt x="233" y="482" on="0"/>
      </contour>
      <contour>
        <pt x="380" y="57" on="1"/>
        <pt x="370" y="80" on="0"/>
        <pt x="370" y="110" on="1"/>
        <pt x="370" y="163" on="0"/>
        <pt x="439" y="235" on="0"/>
        <pt x="490" y="235" on="1"/>
        <pt x="610" y="235" on="0"/>
        <pt x="610" y="115" on="1"/>
        <pt x="610" y="64" on="0"/>
        <pt x="538" y="-5" on="0"/>
        <pt x="490" y="-5" on="1"/>
        <pt x="405" y="-5" on="0"/>
      </contour>
      <contour>
        <pt x="456" y="197" on="0"/>
        <pt x="410" y="149" on="0"/>
        <pt x="410" y="73" on="0"/>
        <pt x="456" y="33" on="0"/>
        <pt x="523" y="33" on="0"/>
        <pt x="570" y="80" on="0"/>
        <pt x="570" y="157" on="0"/>
        <pt x="523" y="197" on="0"/>
      </contour>
    </TTGlyph>
    <TTGlyph name="period" xMin="34" yMin="-8" xMax="104" yMax="70">
      <contour>
        <pt x="49" y="-8" on="0"/>
        <pt x="34" y="12" on="0"/>
        <pt x="34" y="48" on="0"/>
        <pt x="53" y="70" on="0"/>
        <pt x="72" y="70" on="1"/>
        <pt x="104" y="70" on="0"/>
        <pt x="104" y="29" on="1"/>
        <pt x="104" y="12" on="0"/>
        <pt x="83" y="-8" on="0"/>
      </contour>
    </TTGlyph>
    <TTGlyph name="periodcentered" xMin="34" yMin="348" xMax="99" yMax="420">
      <contour>
        <pt x="66" y="348" on="1"/>
        <pt x="34" y="348" on="0"/>
        <pt x="34" y="382" on="1"/>
        <pt x="34" y="399" on="0"/>
        <pt x="52" y="420" on="0"/>
        <pt x="69" y="420" on="1"/>
        <pt x="99" y="420" on="0"/>
        <pt x="99" y="382" on="1"/>
        <pt x="99" y="366" on="0"/>
        <pt x="80" y="348" on="0"/>
      </contour>
    </TTGlyph>
    <TTGlyph name="perthousand" xMin="80" yMin="-5" xMax="897" yMax="520">
      <contour>
        <pt x="576" y="520" on="1"/>
        <pt x="180" y="0" on="1"/>
        <pt x="120" y="0" on="1"/>
        <pt x="516" y="520" on="1"/>
      </contour>
      <contour>
        <pt x="90" y="342" on="1"/>
        <pt x="80" y="365" on="0"/>
        <pt x="80" y="394" on="1"/>
        <pt x="80" y="448" on="0"/>
        <pt x="149" y="520" on="0"/>
        <pt x="200" y="520" on="1"/>
        <pt x="320" y="520" on="0"/>
        <pt x="320" y="400" on="1"/>
        <pt x="320" y="349" on="0"/>
        <pt x="248" y="280" on="0"/>
        <pt x="200" y="280" on="1"/>
        <pt x="115" y="280" on="0"/>
      </contour>
      <contour>
        <pt x="166" y="482" on="0"/>
        <pt x="120" y="434" on="0"/>
        <pt x="120" y="358" on="0"/>
        <pt x="166" y="318" on="0"/>
        <pt x="233" y="318" on="0"/>
        <pt x="280" y="365" on="0"/>
        <pt x="280" y="442" on="0"/>
        <pt x="233" y="482" on="0"/>
      </contour>
      <contour>
        <pt x="380" y="57" on="1"/>
        <pt x="370" y="80" on="0"/>
        <pt x="370" y="110" on="1"/>
        <pt x="370" y="163" on="0"/>
        <pt x="439" y="235" on="0"/>
        <pt x="490" y="235" on="1"/>
        <pt x="610" y="235" on="0"/>
        <pt x="610" y="115" on="1"/>
        <pt x="610" y="64" on="0"/>
        <pt x="538" y="-5" on="0"/>
        <pt x="490" y="-5" on="1"/>
        <pt x="405" y="-5" on="0"/>
      </contour>
      <contour>
        <pt x="456" y="197" on="0"/>
        <pt x="410" y="149" on="0"/>
        <pt x="410" y="73" on="0"/>
        <pt x="456" y="33" on="0"/>
        <pt x="523" y="33" on="0"/>
        <pt x="570" y="80" on="0"/>
        <pt x="570" y="157" on="0"/>
        <pt x="523" y="197" on="0"/>
      </contour>
      <contour>
        <pt x="666" y="57" on="1"/>
        <pt x="657" y="80" on="0"/>
        <pt x="657" y="110" on="1"/>
        <pt x="657" y="163" on="0"/>
        <pt x="726" y="235" on="0"/>
        <pt x="777" y="235" on="1"/>
        <pt x="897" y="235" on="0"/>
        <pt x="897" y="115" on="1"/>
        <pt x="897" y="64" on="0"/>
        <pt x="825" y="-5" on="0"/>
        <pt x="777" y="-5" on="1"/>
        <pt x="692" y="-5" on="0"/>
      </contour>
      <contour>
        <pt x="744" y="197" on="0"/>
        <pt x="697" y="149" on="0"/>
        <pt x="697" y="73" on="0"/>
        <pt x="744" y="33" on="0"/>
        <pt x="777" y="33" on="1"/>
        <pt x="810" y="33" on="0"/>
        <pt x="857" y="80" on="0"/>
        <pt x="857" y="157" on="0"/>
        <pt x="810" y="197" on="0"/>
        <pt x="777" y="197" on="1"/>
      </contour>
    </TTGlyph>
    <TTGlyph name="plus" xMin="146" yMin="0" xMax="646" yMax="500">
      <contour>
        <pt x="366" y="290" on="1"/>
        <pt x="366" y="500" on="1"/>
        <pt x="426" y="500" on="1"/>
        <pt x="426" y="290" on="1"/>
        <pt x="646" y="290" on="1"/>
        <pt x="646" y="232" on="1"/>
        <pt x="426" y="232" on="1"/>
        <pt x="426" y="0" on="1"/>
        <pt x="366" y="0" on="1"/>
        <pt x="366" y="232" on="1"/>
        <pt x="146" y="232" on="1"/>
        <pt x="146" y="290" on="1"/>
      </contour>
    </TTGlyph>
    <TTGlyph name="plusminus" xMin="146" yMin="65" xMax="646" yMax="700">
      <contour>
        <pt x="366" y="490" on="1"/>
        <pt x="366" y="700" on="1"/>
        <pt x="426" y="700" on="1"/>
        <pt x="426" y="490" on="1"/>
        <pt x="646" y="490" on="1"/>
        <pt x="646" y="432" on="1"/>
        <pt x="426" y="432" on="1"/>
        <pt x="426" y="200" on="1"/>
        <pt x="366" y="200" on="1"/>
        <pt x="366" y="432" on="1"/>
        <pt x="146" y="432" on="1"/>
        <pt x="146" y="490" on="1"/>
      </contour>
      <contour>
        <pt x="646" y="123" on="1"/>
        <pt x="646" y="65" on="1"/>
        <pt x="146" y="65" on="1"/>
        <pt x="146" y="123" on="1"/>
      </contour>
    </TTGlyph>
    <TTGlyph name="q" xMin="60" yMin="-251" xMax="485" yMax="506">
      <contour>
        <pt x="420" y="10" on="1"/>
        <pt x="341" y="-4" on="0"/>
        <pt x="294" y="-4" on="1"/>
        <pt x="60" y="-4" on="0"/>
        <pt x="60" y="230" on="1"/>
        <pt x="60" y="362" on="0"/>
        <pt x="203" y="505" on="0"/>
        <pt x="319" y="505" on="1"/>
        <pt x="391" y="505" on="0"/>
        <pt x="466" y="482" on="1"/>
        <pt x="484" y="477" on="0"/>
        <pt x="485" y="476" on="1"/>
        <pt x="485" y="-246" on="1"/>
        <pt x="420" y="-251" on="1"/>
      </contour>
      <contour>
        <pt x="420" y="429" on="1"/>
        <pt x="340" y="445" on="0"/>
        <pt x="316" y="446" on="1"/>
        <pt x="230" y="446" on="0"/>
        <pt x="125" y="334" on="0"/>
        <pt x="125" y="128" on="0"/>
        <pt x="182" y="86" on="1"/>
        <pt x="223" y="54" on="0"/>
        <pt x="348" y="54" on="0"/>
        <pt x="420" y="64" on="1"/>
      </contour>
    </TTGlyph>
    <TTGlyph name="question" xMin="58" yMin="-34" xMax="414" yMax="700">
      <contour>
        <pt x="58" y="638" on="1"/>
        <pt x="138" y="700" on="0"/>
        <pt x="237" y="700" on="1"/>
        <pt x="315" y="700" on="0"/>
        <pt x="414" y="616" on="0"/>
        <pt x="414" y="552" on="1"/>
        <pt x="414" y="508" on="0"/>
        <pt x="354" y="428" on="0"/>
        <pt x="282" y="355" on="1"/>
        <pt x="185" y="260" on="0"/>
        <pt x="185" y="128" on="1"/>
        <pt x="140" y="128" on="1"/>
        <pt x="140" y="277" on="0"/>
        <pt x="292" y="436" on="0"/>
        <pt x="349" y="511" on="0"/>
        <pt x="349" y="593" on="0"/>
        <pt x="287" y="648" on="0"/>
        <pt x="233" y="648" on="1"/>
        <pt x="153" y="648" on="0"/>
        <pt x="81" y="599" on="1"/>
      </contour>
      <contour>
        <pt x="165" y="-34" on="1"/>
        <pt x="127" y="-34" on="0"/>
        <pt x="127" y="6" on="1"/>
        <pt x="127" y="26" on="0"/>
        <pt x="148" y="49" on="0"/>
        <pt x="168" y="49" on="1"/>
        <pt x="203" y="49" on="0"/>
        <pt x="203" y="6" on="1"/>
        <pt x="203" y="-12" on="0"/>
        <pt x="182" y="-34" on="0"/>
      </contour>
    </TTGlyph>
    <TTGlyph name="questiondown" xMin="84" yMin="-201" xMax="440" yMax="534">
      <contour>
        <pt x="440" y="-138" on="1"/>
        <pt x="356" y="-200" on="0"/>
        <pt x="268" y="-200" on="1"/>
        <pt x="265" y="-200" on="0"/>
        <pt x="261" y="-200" on="1"/>
        <pt x="183" y="-200" on="0"/>
        <pt x="84" y="-116" on="0"/>
        <pt x="84" y="-52" on="1"/>
        <pt x="84" y="-8" on="0"/>
        <pt x="144" y="72" on="0"/>
        <pt x="216" y="145" on="1"/>
        <pt x="313" y="240" on="0"/>
        <pt x="313" y="372" on="1"/>
        <pt x="358" y="372" on="1"/>
        <pt x="358" y="224" on="0"/>
        <pt x="200" y="57" on="0"/>
        <pt x="184" y="34" on="1"/>
        <pt x="149" y="-11" on="0"/>
        <pt x="149" y="-93" on="0"/>
        <pt x="212" y="-148" on="0"/>
        <pt x="265" y="-148" on="1"/>
        <pt x="345" y="-148" on="0"/>
        <pt x="417" y="-99" on="1"/>
      </contour>
      <contour>
        <pt x="333" y="534" on="1"/>
        <pt x="371" y="534" on="0"/>
        <pt x="371" y="494" on="1"/>
        <pt x="371" y="474" on="0"/>
        <pt x="350" y="451" on="0"/>
        <pt x="330" y="451" on="1"/>
        <pt x="295" y="451" on="0"/>
        <pt x="295" y="494" on="1"/>
        <pt x="295" y="512" on="0"/>
        <pt x="316" y="534" on="0"/>
      </contour>
    </TTGlyph>
    <TTGlyph name="quotedbl" xMin="74" yMin="600" xMax="248" yMax="719">
      <contour>
        <pt x="128" y="719" on="1"/>
        <pt x="125" y="704" on="0"/>
        <pt x="122" y="665" on="0"/>
        <pt x="118" y="618" on="0"/>
        <pt x="118" y="603" on="1"/>
        <pt x="80" y="600" on="1"/>
        <pt x="80" y="601" on="0"/>
        <pt x="75" y="666" on="0"/>
        <pt x="74" y="718" on="1"/>
      </contour>
      <contour>
        <pt x="248" y="719" on="1"/>
        <pt x="245" y="704" on="0"/>
        <pt x="242" y="665" on="0"/>
        <pt x="238" y="618" on="0"/>
        <pt x="238" y="603" on="1"/>
        <pt x="200" y="600" on="1"/>
        <pt x="200" y="601" on="0"/>
        <pt x="195" y="666" on="0"/>
        <pt x="194" y="718" on="1"/>
      </contour>
    </TTGlyph>
    <TTGlyph name="quotedblbase" xMin="79" yMin="-32" xMax="233" yMax="88">
      <contour>
        <pt x="79" y="-32" on="1"/>
        <pt x="80" y="13" on="1"/>
        <pt x="80" y="50" on="1"/>
        <pt x="80" y="70" on="0"/>
        <pt x="79" y="85" on="1"/>
        <pt x="123" y="88" on="1"/>
        <pt x="122" y="36" on="0"/>
        <pt x="113" y="-29" on="0"/>
        <pt x="113" y="-30" on="1"/>
      </contour>
      <contour>
        <pt x="189" y="-32" on="1"/>
        <pt x="190" y="13" on="1"/>
        <pt x="190" y="50" on="1"/>
        <pt x="190" y="70" on="0"/>
        <pt x="189" y="85" on="1"/>
        <pt x="233" y="88" on="1"/>
        <pt x="232" y="36" on="0"/>
        <pt x="223" y="-29" on="0"/>
        <pt x="223" y="-30" on="1"/>
      </contour>
    </TTGlyph>
    <TTGlyph name="quotedblleft" xMin="79" yMin="597" xMax="233" yMax="718">
      <contour>
        <pt x="122" y="646" on="1"/>
        <pt x="123" y="601" on="1"/>
        <pt x="89" y="597" on="1"/>
        <pt x="89" y="598" on="0"/>
        <pt x="80" y="661" on="0"/>
        <pt x="79" y="713" on="1"/>
        <pt x="123" y="718" on="1"/>
        <pt x="122" y="703" on="0"/>
        <pt x="122" y="683" on="1"/>
      </contour>
      <contour>
        <pt x="232" y="646" on="1"/>
        <pt x="233" y="601" on="1"/>
        <pt x="199" y="597" on="1"/>
        <pt x="199" y="598" on="0"/>
        <pt x="190" y="661" on="0"/>
        <pt x="189" y="713" on="1"/>
        <pt x="233" y="718" on="1"/>
        <pt x="232" y="703" on="0"/>
        <pt x="232" y="683" on="1"/>
      </contour>
    </TTGlyph>
    <TTGlyph name="quotedblright" xMin="79" yMin="598" xMax="233" yMax="718">
      <contour>
        <pt x="79" y="598" on="1"/>
        <pt x="80" y="643" on="1"/>
        <pt x="80" y="680" on="1"/>
        <pt x="80" y="700" on="0"/>
        <pt x="79" y="715" on="1"/>
        <pt x="123" y="718" on="1"/>
        <pt x="122" y="666" on="0"/>
        <pt x="113" y="601" on="0"/>
        <pt x="113" y="600" on="1"/>
      </contour>
      <contour>
        <pt x="189" y="598" on="1"/>
        <pt x="190" y="643" on="1"/>
        <pt x="190" y="680" on="1"/>
        <pt x="190" y="700" on="0"/>
        <pt x="189" y="715" on="1"/>
        <pt x="233" y="718" on="1"/>
        <pt x="232" y="666" on="0"/>
        <pt x="223" y="601" on="0"/>
        <pt x="223" y="600" on="1"/>
      </contour>
    </TTGlyph>
    <TTGlyph name="quoteleft" xMin="79" yMin="597" xMax="123" yMax="718">
      <contour>
        <pt x="122" y="646" on="1"/>
        <pt x="123" y="601" on="1"/>
        <pt x="89" y="597" on="1"/>
        <pt x="89" y="598" on="0"/>
        <pt x="80" y="661" on="0"/>
        <pt x="79" y="713" on="1"/>
        <pt x="123" y="718" on="1"/>
        <pt x="122" y="703" on="0"/>
        <pt x="122" y="683" on="1"/>
      </contour>
    </TTGlyph>
    <TTGlyph name="quoteright" xMin="79" yMin="598" xMax="123" yMax="718">
      <contour>
        <pt x="79" y="598" on="1"/>
        <pt x="80" y="643" on="1"/>
        <pt x="80" y="680" on="1"/>
        <pt x="80" y="700" on="0"/>
        <pt x="79" y="715" on="1"/>
        <pt x="123" y="718" on="1"/>
        <pt x="122" y="666" on="0"/>
        <pt x="113" y="601" on="0"/>
        <pt x="113" y="600" on="1"/>
      </contour>
    </TTGlyph>
    <TTGlyph name="quotesinglbase" xMin="79" yMin="-32" xMax="123" yMax="88">
      <contour>
        <pt x="79" y="-32" on="1"/>
        <pt x="80" y="13" on="1"/>
        <pt x="80" y="50" on="1"/>
        <pt x="80" y="70" on="0"/>
        <pt x="79" y="85" on="1"/>
        <pt x="123" y="88" on="1"/>
        <pt x="122" y="36" on="0"/>
        <pt x="113" y="-29" on="0"/>
        <pt x="113" y="-30" on="1"/>
      </contour>
    </TTGlyph>
    <TTGlyph name="quotesingle" xMin="64" yMin="573" xMax="118" yMax="718">
      <contour>
        <pt x="64" y="573" on="1"/>
        <pt x="65" y="630" on="1"/>
        <pt x="65" y="676" on="1"/>
        <pt x="65" y="700" on="0"/>
        <pt x="64" y="715" on="1"/>
        <pt x="118" y="718" on="1"/>
        <pt x="118" y="653" on="0"/>
        <pt x="113" y="588" on="1"/>
        <pt x="112" y="575" on="1"/>
      </contour>
    </TTGlyph>
    <TTGlyph name="r" xMin="60" yMin="0" xMax="347" yMax="505">
      <contour>
        <pt x="321" y="430" on="1"/>
        <pt x="305" y="439" on="0"/>
        <pt x="269" y="439" on="0"/>
        <pt x="267" y="438" on="1"/>
        <pt x="229" y="438" on="0"/>
        <pt x="152" y="383" on="0"/>
        <pt x="125" y="349" on="1"/>
        <pt x="125" y="0" on="1"/>
        <pt x="60" y="0" on="1"/>
        <pt x="60" y="500" on="1"/>
        <pt x="125" y="505" on="1"/>
        <pt x="125" y="393" on="1"/>
        <pt x="162" y="440" on="0"/>
        <pt x="188" y="459" on="1"/>
        <pt x="236" y="495" on="0"/>
        <pt x="280" y="497" on="1"/>
        <pt x="286" y="498" on="0"/>
        <pt x="318" y="498" on="0"/>
        <pt x="347" y="490" on="1"/>
      </contour>
    </TTGlyph>
    <TTGlyph name="registered" xMin="90" yMin="289" xMax="503" yMax="710">
      <contour>
        <pt x="90" y="592" on="0"/>
        <pt x="208" y="710" on="0"/>
        <pt x="296" y="710" on="1"/>
        <pt x="388" y="710" on="0"/>
        <pt x="503" y="601" on="0"/>
        <pt x="503" y="405" on="0"/>
        <pt x="384" y="289" on="0"/>
        <pt x="296" y="289" on="1"/>
        <pt x="206" y="289" on="0"/>
        <pt x="90" y="397" on="0"/>
      </contour>
      <contour>
        <pt x="115" y="408" on="0"/>
        <pt x="217" y="312" on="0"/>
        <pt x="373" y="312" on="0"/>
        <pt x="478" y="414" on="0"/>
        <pt x="478" y="588" on="0"/>
        <pt x="375" y="687" on="0"/>
        <pt x="220" y="687" on="0"/>
        <pt x="115" y="585" on="0"/>
      </contour>
      <contour>
        <pt x="307" y="479" on="1"/>
        <pt x="295" y="477" on="0"/>
        <pt x="281" y="477" on="1"/>
        <pt x="255" y="477" on="1"/>
        <pt x="255" y="380" on="1"/>
        <pt x="233" y="380" on="1"/>
        <pt x="233" y="613" on="1"/>
        <pt x="281" y="613" on="1"/>
        <pt x="319" y="613" on="0"/>
        <pt x="361" y="588" on="0"/>
        <pt x="361" y="502" on="0"/>
        <pt x="328" y="486" on="1"/>
        <pt x="379" y="380" on="1"/>
        <pt x="354" y="380" on="1"/>
      </contour>
      <contour>
        <pt x="255" y="595" on="1"/>
        <pt x="255" y="496" on="1"/>
        <pt x="279" y="496" on="1"/>
        <pt x="308" y="496" on="0"/>
        <pt x="339" y="518" on="0"/>
        <pt x="339" y="577" on="0"/>
        <pt x="307" y="595" on="0"/>
        <pt x="279" y="595" on="1"/>
      </contour>
    </TTGlyph>
    <TTGlyph name="ring" xMin="80" yMin="585" xMax="249" yMax="744">
      <contour>
        <pt x="130" y="585" on="0"/>
        <pt x="80" y="620" on="0"/>
        <pt x="80" y="698" on="0"/>
        <pt x="130" y="744" on="0"/>
        <pt x="200" y="744" on="0"/>
        <pt x="249" y="708" on="0"/>
        <pt x="249" y="632" on="0"/>
        <pt x="200" y="585" on="0"/>
      </contour>
      <contour>
        <pt x="144" y="716" on="0"/>
        <pt x="115" y="685" on="0"/>
        <pt x="115" y="638" on="0"/>
        <pt x="144" y="613" on="0"/>
        <pt x="185" y="613" on="0"/>
        <pt x="214" y="643" on="0"/>
        <pt x="214" y="690" on="0"/>
        <pt x="185" y="716" on="0"/>
      </contour>
    </TTGlyph>
    <TTGlyph name="s" xMin="40" yMin="-4" xMax="387" yMax="504">
      <contour>
        <pt x="344" y="434" on="1"/>
        <pt x="308" y="446" on="0"/>
        <pt x="184" y="446" on="0"/>
        <pt x="116" y="402" on="0"/>
        <pt x="116" y="337" on="0"/>
        <pt x="156" y="307" on="0"/>
        <pt x="216" y="286" on="0"/>
        <pt x="287" y="266" on="0"/>
        <pt x="317" y="250" on="1"/>
        <pt x="387" y="214" on="0"/>
        <pt x="387" y="72" on="0"/>
        <pt x="290" y="-4" on="0"/>
        <pt x="197" y="-4" on="1"/>
        <pt x="150" y="-4" on="0"/>
        <pt x="63" y="15" on="0"/>
        <pt x="40" y="32" on="1"/>
        <pt x="62" y="85" on="1"/>
        <pt x="85" y="65" on="0"/>
        <pt x="155" y="56" on="1"/>
        <pt x="177" y="53" on="0"/>
        <pt x="200" y="53" on="1"/>
        <pt x="252" y="53" on="0"/>
        <pt x="322" y="96" on="0"/>
        <pt x="322" y="140" on="1"/>
        <pt x="322" y="170" on="0"/>
        <pt x="282" y="204" on="0"/>
        <pt x="222" y="227" on="0"/>
        <pt x="151" y="245" on="0"/>
        <pt x="91" y="274" on="0"/>
        <pt x="51" y="321" on="0"/>
        <pt x="51" y="361" on="1"/>
        <pt x="51" y="426" on="0"/>
        <pt x="151" y="504" on="0"/>
        <pt x="235" y="504" on="1"/>
        <pt x="256" y="504" on="0"/>
        <pt x="300" y="499" on="0"/>
        <pt x="318" y="497" on="1"/>
        <pt x="360" y="490" on="1"/>
      </contour>
    </TTGlyph>
    <TTGlyph name="section" xMin="90" yMin="23" xMax="410" yMax="600">
      <contour>
        <pt x="90" y="600" on="1"/>
        <pt x="155" y="600" on="1"/>
        <pt x="156" y="551" on="0"/>
        <pt x="194" y="498" on="0"/>
        <pt x="251" y="464" on="0"/>
        <pt x="316" y="438" on="0"/>
        <pt x="344" y="417" on="1"/>
        <pt x="410" y="369" on="0"/>
        <pt x="410" y="262" on="1"/>
        <pt x="345" y="262" on="1"/>
        <pt x="345" y="312" on="0"/>
        <pt x="307" y="369" on="0"/>
        <pt x="251" y="404" on="0"/>
        <pt x="184" y="431" on="0"/>
        <pt x="128" y="472" on="0"/>
        <pt x="90" y="540" on="0"/>
      </contour>
      <contour>
        <pt x="90" y="361" on="1"/>
        <pt x="155" y="361" on="1"/>
        <pt x="156" y="312" on="0"/>
        <pt x="194" y="258" on="0"/>
        <pt x="251" y="224" on="0"/>
        <pt x="316" y="198" on="0"/>
        <pt x="344" y="176" on="1"/>
        <pt x="410" y="127" on="0"/>
        <pt x="410" y="23" on="1"/>
        <pt x="345" y="23" on="1"/>
        <pt x="345" y="73" on="0"/>
        <pt x="307" y="130" on="0"/>
        <pt x="251" y="165" on="0"/>
        <pt x="184" y="191" on="0"/>
        <pt x="156" y="212" on="1"/>
        <pt x="90" y="260" on="0"/>
      </contour>
    </TTGlyph>
    <TTGlyph name="semicolon" xMin="68" yMin="-102" xMax="149" yMax="473">
      <contour>
        <pt x="127" y="64" on="1"/>
        <pt x="127" y="10" on="0"/>
        <pt x="103" y="-101" on="0"/>
        <pt x="103" y="-102" on="1"/>
        <pt x="68" y="-102" on="1"/>
        <pt x="68" y="-101" on="0"/>
        <pt x="92" y="10" on="0"/>
        <pt x="92" y="64" on="1"/>
      </contour>
      <contour>
        <pt x="94" y="395" on="0"/>
        <pt x="79" y="415" on="0"/>
        <pt x="79" y="451" on="0"/>
        <pt x="98" y="473" on="0"/>
        <pt x="116" y="473" on="1"/>
        <pt x="149" y="473" on="0"/>
        <pt x="149" y="432" on="1"/>
        <pt x="149" y="415" on="0"/>
        <pt x="128" y="395" on="0"/>
      </contour>
    </TTGlyph>
    <TTGlyph name="seven" xMin="90" yMin="0" xMax="475" yMax="662">
      <contour>
        <pt x="90" y="662" on="1"/>
        <pt x="461" y="662" on="1"/>
        <pt x="475" y="607" on="1"/>
        <pt x="223" y="0" on="1"/>
        <pt x="157" y="0" on="1"/>
        <pt x="409" y="607" on="1"/>
        <pt x="90" y="607" on="1"/>
      </contour>
    </TTGlyph>
    <TTGlyph name="six" xMin="70" yMin="-4" xMax="481" yMax="662">
      <contour>
        <pt x="464" y="614" on="1"/>
        <pt x="458" y="610" on="0"/>
        <pt x="399" y="577" on="0"/>
        <pt x="360" y="548" on="1"/>
        <pt x="257" y="475" on="0"/>
        <pt x="200" y="389" on="1"/>
        <pt x="290" y="386" on="0"/>
        <pt x="322" y="382" on="1"/>
        <pt x="395" y="371" on="0"/>
        <pt x="481" y="281" on="0"/>
        <pt x="481" y="108" on="0"/>
        <pt x="361" y="-4" on="0"/>
        <pt x="264" y="-4" on="1"/>
        <pt x="130" y="-4" on="0"/>
        <pt x="86" y="98" on="1"/>
        <pt x="70" y="134" on="0"/>
        <pt x="70" y="258" on="0"/>
        <pt x="120" y="382" on="0"/>
        <pt x="158" y="433" on="1"/>
        <pt x="249" y="558" on="0"/>
        <pt x="437" y="662" on="1"/>
      </contour>
      <contour>
        <pt x="170" y="334" on="1"/>
        <pt x="138" y="264" on="0"/>
        <pt x="138" y="115" on="0"/>
        <pt x="216" y="51" on="0"/>
        <pt x="258" y="51" on="1"/>
        <pt x="333" y="51" on="0"/>
        <pt x="413" y="135" on="0"/>
        <pt x="413" y="256" on="0"/>
        <pt x="354" y="320" on="0"/>
        <pt x="309" y="327" on="1"/>
        <pt x="282" y="332" on="0"/>
      </contour>
    </TTGlyph>
    <TTGlyph name="slash" xMin="112" yMin="-200" xMax="490" yMax="749">
      <contour>
        <pt x="490" y="749" on="1"/>
        <pt x="172" y="-200" on="1"/>
        <pt x="112" y="-200" on="1"/>
        <pt x="430" y="749" on="1"/>
      </contour>
    </TTGlyph>
    <TTGlyph name="sterling" xMin="51" yMin="0" xMax="431" yMax="597">
      <contour>
        <pt x="207" y="144" on="1"/>
        <pt x="207" y="74" on="0"/>
        <pt x="166" y="53" on="1"/>
        <pt x="426" y="53" on="1"/>
        <pt x="431" y="0" on="1"/>
        <pt x="85" y="0" on="1"/>
        <pt x="78" y="53" on="1"/>
        <pt x="87" y="53" on="1"/>
        <pt x="120" y="56" on="0"/>
        <pt x="136" y="90" on="1"/>
        <pt x="147" y="112" on="0"/>
        <pt x="147" y="179" on="0"/>
        <pt x="124" y="252" on="0"/>
        <pt x="117" y="280" on="1"/>
        <pt x="51" y="280" on="1"/>
        <pt x="51" y="313" on="1"/>
        <pt x="109" y="313" on="1"/>
        <pt x="100" y="374" on="0"/>
        <pt x="100" y="415" on="0"/>
        <pt x="101" y="436" on="1"/>
        <pt x="104" y="501" on="0"/>
        <pt x="134" y="542" on="1"/>
        <pt x="174" y="597" on="0"/>
        <pt x="333" y="597" on="0"/>
        <pt x="379" y="557" on="1"/>
        <pt x="356" y="515" on="1"/>
        <pt x="324" y="544" on="0"/>
        <pt x="208" y="544" on="0"/>
        <pt x="160" y="474" on="0"/>
        <pt x="160" y="396" on="1"/>
        <pt x="160" y="355" on="0"/>
        <pt x="166" y="313" on="1"/>
        <pt x="333" y="313" on="1"/>
        <pt x="333" y="280" on="1"/>
        <pt x="174" y="280" on="1"/>
        <pt x="181" y="259" on="1"/>
        <pt x="185" y="247" on="0"/>
        <pt x="207" y="179" on="0"/>
      </contour>
    </TTGlyph>
    <TTGlyph name="t" xMin="40" yMin="-1" xMax="289" yMax="605">
      <contour>
        <pt x="289" y="18" on="1"/>
        <pt x="271" y="0" on="0"/>
        <pt x="224" y="0" on="1"/>
        <pt x="158" y="0" on="0"/>
        <pt x="135" y="34" on="1"/>
        <pt x="96" y="71" on="0"/>
        <pt x="96" y="134" on="1"/>
        <pt x="96" y="442" on="1"/>
        <pt x="40" y="442" on="1"/>
        <pt x="49" y="500" on="1"/>
        <pt x="96" y="500" on="1"/>
        <pt x="96" y="599" on="1"/>
        <pt x="161" y="605" on="1"/>
        <pt x="161" y="500" on="1"/>
        <pt x="277" y="500" on="1"/>
        <pt x="277" y="442" on="1"/>
        <pt x="161" y="442" on="1"/>
        <pt x="161" y="118" on="1"/>
        <pt x="161" y="60" on="0"/>
        <pt x="221" y="60" on="1"/>
        <pt x="247" y="60" on="0"/>
        <pt x="277" y="72" on="1"/>
      </contour>
    </TTGlyph>
    <TTGlyph name="thorn" xMin="60" yMin="-250" xMax="458" yMax="750">
      <contour>
        <pt x="353" y="37" on="0"/>
        <pt x="272" y="4" on="0"/>
        <pt x="217" y="0" on="0"/>
        <pt x="171" y="0" on="0"/>
        <pt x="127" y="5" on="0"/>
        <pt x="125" y="5" on="1"/>
        <pt x="125" y="-245" on="1"/>
        <pt x="60" y="-250" on="1"/>
        <pt x="60" y="745" on="1"/>
        <pt x="125" y="750" on="1"/>
        <pt x="125" y="494" on="1"/>
        <pt x="126" y="494" on="0"/>
        <pt x="127" y="495" on="1"/>
        <pt x="173" y="509" on="0"/>
        <pt x="276" y="509" on="0"/>
        <pt x="351" y="492" on="0"/>
        <pt x="383" y="468" on="1"/>
        <pt x="458" y="410" on="0"/>
        <pt x="458" y="142" on="0"/>
        <pt x="386" y="70" on="1"/>
      </contour>
      <contour>
        <pt x="316" y="439" on="0"/>
        <pt x="262" y="451" on="0"/>
        <pt x="189" y="451" on="0"/>
        <pt x="125" y="434" on="1"/>
        <pt x="125" y="56" on="1"/>
        <pt x="153" y="49" on="0"/>
        <pt x="189" y="49" on="1"/>
        <pt x="287" y="49" on="0"/>
        <pt x="393" y="165" on="0"/>
        <pt x="393" y="375" on="0"/>
        <pt x="339" y="420" on="1"/>
      </contour>
    </TTGlyph>
    <TTGlyph name="three" xMin="87" yMin="-3" xMax="481" yMax="666">
      <contour>
        <pt x="206" y="52" on="1"/>
        <pt x="413" y="52" on="0"/>
        <pt x="413" y="198" on="1"/>
        <pt x="413" y="315" on="0"/>
        <pt x="266" y="322" on="1"/>
        <pt x="226" y="324" on="0"/>
        <pt x="190" y="324" on="1"/>
        <pt x="190" y="369" on="1"/>
        <pt x="231" y="369" on="1"/>
        <pt x="252" y="369" on="0"/>
        <pt x="273" y="368" on="1"/>
        <pt x="312" y="372" on="0"/>
        <pt x="373" y="415" on="0"/>
        <pt x="409" y="470" on="0"/>
        <pt x="409" y="514" on="1"/>
        <pt x="409" y="577" on="0"/>
        <pt x="352" y="601" on="1"/>
        <pt x="330" y="610" on="0"/>
        <pt x="297" y="610" on="1"/>
        <pt x="227" y="610" on="0"/>
        <pt x="135" y="566" on="1"/>
        <pt x="118" y="616" on="1"/>
        <pt x="163" y="641" on="0"/>
        <pt x="264" y="666" on="0"/>
        <pt x="301" y="666" on="1"/>
        <pt x="378" y="666" on="0"/>
        <pt x="477" y="592" on="0"/>
        <pt x="477" y="522" on="1"/>
        <pt x="477" y="432" on="0"/>
        <pt x="400" y="381" on="1"/>
        <pt x="379" y="367" on="0"/>
        <pt x="358" y="358" on="1"/>
        <pt x="481" y="330" on="0"/>
        <pt x="481" y="201" on="1"/>
        <pt x="481" y="47" on="0"/>
        <pt x="322" y="9" on="1"/>
        <pt x="273" y="-3" on="0"/>
        <pt x="145" y="-3" on="0"/>
        <pt x="87" y="13" on="1"/>
        <pt x="103" y="65" on="1"/>
        <pt x="140" y="52" on="0"/>
      </contour>
    </TTGlyph>
    <TTGlyph name="threequarters" xMin="45" yMin="0" xMax="753" yMax="750">
      <contour>
        <pt x="672" y="0" on="1"/>
        <pt x="672" y="98" on="1"/>
        <pt x="462" y="98" on="1"/>
        <pt x="450" y="137" on="1"/>
        <pt x="672" y="464" on="1"/>
        <pt x="720" y="464" on="1"/>
        <pt x="720" y="137" on="1"/>
        <pt x="752" y="137" on="1"/>
        <pt x="753" y="98" on="1"/>
        <pt x="720" y="98" on="1"/>
        <pt x="720" y="0" on="1"/>
      </contour>
      <contour>
        <pt x="125" y="337" on="1"/>
        <pt x="264" y="337" on="0"/>
        <pt x="264" y="435" on="1"/>
        <pt x="264" y="512" on="0"/>
        <pt x="166" y="518" on="1"/>
        <pt x="139" y="519" on="0"/>
        <pt x="115" y="519" on="1"/>
        <pt x="115" y="550" on="1"/>
        <pt x="142" y="550" on="1"/>
        <pt x="156" y="550" on="0"/>
        <pt x="170" y="549" on="1"/>
        <pt x="222" y="558" on="0"/>
        <pt x="249" y="600" on="1"/>
        <pt x="261" y="618" on="0"/>
        <pt x="261" y="638" on="1"/>
        <pt x="261" y="711" on="0"/>
        <pt x="186" y="711" on="1"/>
        <pt x="136" y="711" on="0"/>
        <pt x="78" y="682" on="1"/>
        <pt x="66" y="715" on="1"/>
        <pt x="130" y="749" on="0"/>
        <pt x="239" y="749" on="0"/>
        <pt x="307" y="701" on="0"/>
        <pt x="307" y="652" on="1"/>
        <pt x="307" y="576" on="0"/>
        <pt x="227" y="542" on="1"/>
        <pt x="310" y="523" on="0"/>
        <pt x="310" y="437" on="1"/>
        <pt x="310" y="365" on="0"/>
        <pt x="212" y="300" on="0"/>
        <pt x="129" y="300" on="1"/>
        <pt x="84" y="300" on="0"/>
        <pt x="45" y="311" on="1"/>
        <pt x="56" y="346" on="1"/>
        <pt x="85" y="337" on="0"/>
      </contour>
      <contour>
        <pt x="556" y="750" on="1"/>
        <pt x="305" y="0" on="1"/>
        <pt x="257" y="0" on="1"/>
        <pt x="509" y="750" on="1"/>
      </contour>
      <contour>
        <pt x="672" y="137" on="1"/>
        <pt x="672" y="394" on="1"/>
        <pt x="497" y="137" on="1"/>
      </contour>
    </TTGlyph>
    <TTGlyph name="threesuperior" xMin="91" yMin="499" xMax="235" yMax="744">
      <contour>
        <pt x="134" y="519" on="1"/>
        <pt x="210" y="519" on="0"/>
        <pt x="210" y="572" on="1"/>
        <pt x="210" y="617" on="0"/>
        <pt x="156" y="618" on="1"/>
        <pt x="141" y="619" on="0"/>
        <pt x="128" y="619" on="1"/>
        <pt x="128" y="635" on="1"/>
        <pt x="159" y="635" on="1"/>
        <pt x="171" y="635" on="0"/>
        <pt x="183" y="644" on="1"/>
        <pt x="208" y="661" on="0"/>
        <pt x="208" y="688" on="1"/>
        <pt x="208" y="700" on="0"/>
        <pt x="191" y="723" on="0"/>
        <pt x="144" y="723" on="0"/>
        <pt x="108" y="707" on="1"/>
        <pt x="102" y="725" on="1"/>
        <pt x="136" y="744" on="0"/>
        <pt x="196" y="744" on="0"/>
        <pt x="233" y="717" on="0"/>
        <pt x="233" y="691" on="1"/>
        <pt x="233" y="651" on="0"/>
        <pt x="190" y="631" on="1"/>
        <pt x="235" y="619" on="0"/>
        <pt x="235" y="574" on="1"/>
        <pt x="235" y="499" on="0"/>
        <pt x="136" y="499" on="1"/>
        <pt x="110" y="499" on="0"/>
        <pt x="91" y="505" on="1"/>
        <pt x="97" y="524" on="1"/>
        <pt x="110" y="519" on="0"/>
      </contour>
    </TTGlyph>
</ttFont>
